<ttFont>
    <TTGlyph name="A" xMin="15" yMin="-25" xMax="645" yMax="902">
      <contour>
        <pt x="236" y="878" on="1"/>
        <pt x="242" y="896" on="0"/>
        <pt x="265" y="902" on="0"/>
        <pt x="280" y="902" on="1"/>
        <pt x="303" y="902" on="0"/>
        <pt x="360" y="841" on="0"/>
        <pt x="420" y="739" on="0"/>
        <pt x="481" y="607" on="0"/>
        <pt x="538" y="466" on="0"/>
        <pt x="588" y="326" on="0"/>
        <pt x="625" y="209" on="0"/>
        <pt x="645" y="123" on="0"/>
        <pt x="645" y="107" on="1"/>
        <pt x="645" y="91" on="0"/>
        <pt x="630" y="62" on="0"/>
        <pt x="611" y="62" on="1"/>
        <pt x="599" y="62" on="0"/>
        <pt x="582" y="77" on="0"/>
        <pt x="570" y="99" on="0"/>
        <pt x="560" y="121" on="0"/>
        <pt x="556" y="129" on="1"/>
        <pt x="552" y="140" on="0"/>
        <pt x="527" y="202" on="0"/>
        <pt x="500" y="270" on="0"/>
        <pt x="476" y="330" on="0"/>
        <pt x="471" y="343" on="1"/>
        <pt x="401" y="355" on="0"/>
        <pt x="260" y="376" on="0"/>
        <pt x="182" y="386" on="1"/>
        <pt x="171" y="386" on="1"/>
        <pt x="135" y="231" on="0"/>
        <pt x="80" y="51" on="0"/>
        <pt x="43" y="-25" on="0"/>
        <pt x="22" y="-12" on="0"/>
        <pt x="15" y="67" on="0"/>
        <pt x="24" y="199" on="0"/>
        <pt x="49" y="358" on="0"/>
        <pt x="85" y="532" on="0"/>
        <pt x="136" y="694" on="0"/>
        <pt x="199" y="833" on="0"/>
      </contour>
      <contour>
        <pt x="212" y="526" on="1"/>
        <pt x="212" y="489" on="0"/>
        <pt x="260" y="454" on="0"/>
        <pt x="328" y="444" on="0"/>
        <pt x="403" y="446" on="0"/>
        <pt x="430" y="446" on="1"/>
        <pt x="430" y="486" on="0"/>
        <pt x="404" y="579" on="0"/>
        <pt x="364" y="671" on="0"/>
        <pt x="319" y="758" on="0"/>
        <pt x="300" y="793" on="1"/>
        <pt x="289" y="782" on="0"/>
        <pt x="264" y="723" on="0"/>
        <pt x="239" y="650" on="0"/>
        <pt x="219" y="580" on="0"/>
        <pt x="214" y="558" on="1"/>
        <pt x="214" y="555" on="0"/>
        <pt x="212" y="530" on="0"/>
      </contour>
    </TTGlyph>
    <TTGlyph name="AE" xMin="30" yMin="-25" xMax="897" yMax="905">
      <contour>
        <pt x="250" y="883" on="1"/>
        <pt x="281" y="905" on="0"/>
        <pt x="333" y="881" on="0"/>
        <pt x="356" y="843" on="1"/>
        <pt x="372" y="850" on="0"/>
        <pt x="404" y="858" on="0"/>
        <pt x="414" y="859" on="1"/>
        <pt x="435" y="859" on="1"/>
        <pt x="459" y="857" on="0"/>
        <pt x="526" y="849" on="0"/>
        <pt x="598" y="838" on="0"/>
        <pt x="668" y="828" on="0"/>
        <pt x="726" y="819" on="0"/>
        <pt x="765" y="813" on="0"/>
        <pt x="769" y="813" on="1"/>
        <pt x="778" y="812" on="0"/>
        <pt x="803" y="806" on="0"/>
        <pt x="828" y="796" on="0"/>
        <pt x="850" y="780" on="0"/>
        <pt x="855" y="769" on="1"/>
        <pt x="847" y="753" on="0"/>
        <pt x="835" y="736" on="0"/>
        <pt x="822" y="728" on="0"/>
        <pt x="806" y="727" on="0"/>
        <pt x="796" y="727" on="1"/>
        <pt x="753" y="727" on="0"/>
        <pt x="711" y="730" on="1"/>
        <pt x="542" y="742" on="1"/>
        <pt x="499" y="746" on="0"/>
        <pt x="456" y="746" on="1"/>
        <pt x="456" y="727" on="0"/>
        <pt x="447" y="656" on="0"/>
        <pt x="443" y="576" on="0"/>
        <pt x="451" y="497" on="0"/>
        <pt x="469" y="470" on="1"/>
        <pt x="504" y="490" on="0"/>
        <pt x="580" y="493" on="0"/>
        <pt x="619" y="493" on="1"/>
        <pt x="662" y="493" on="1"/>
        <pt x="688" y="493" on="0"/>
        <pt x="737" y="481" on="0"/>
        <pt x="771" y="453" on="0"/>
        <pt x="771" y="425" on="1"/>
        <pt x="771" y="405" on="0"/>
        <pt x="755" y="384" on="0"/>
        <pt x="726" y="384" on="1"/>
        <pt x="724" y="384" on="0"/>
        <pt x="705" y="391" on="0"/>
        <pt x="683" y="399" on="0"/>
        <pt x="665" y="406" on="0"/>
        <pt x="662" y="406" on="1"/>
        <pt x="661" y="406" on="0"/>
        <pt x="648" y="407" on="0"/>
        <pt x="630" y="407" on="0"/>
        <pt x="613" y="408" on="0"/>
        <pt x="608" y="408" on="1"/>
        <pt x="585" y="408" on="0"/>
        <pt x="543" y="401" on="0"/>
        <pt x="510" y="382" on="0"/>
        <pt x="491" y="348" on="0"/>
        <pt x="491" y="321" on="1"/>
        <pt x="491" y="311" on="0"/>
        <pt x="495" y="269" on="0"/>
        <pt x="502" y="216" on="0"/>
        <pt x="515" y="159" on="0"/>
        <pt x="535" y="112" on="0"/>
        <pt x="560" y="82" on="0"/>
        <pt x="577" y="82" on="1"/>
        <pt x="580" y="82" on="0"/>
        <pt x="597" y="84" on="0"/>
        <pt x="598" y="84" on="1"/>
        <pt x="631" y="106" on="0"/>
        <pt x="700" y="161" on="0"/>
        <pt x="775" y="208" on="0"/>
        <pt x="854" y="240" on="0"/>
        <pt x="897" y="240" on="1"/>
        <pt x="897" y="192" on="1"/>
        <pt x="897" y="187" on="0"/>
        <pt x="859" y="152" on="0"/>
        <pt x="796" y="103" on="0"/>
        <pt x="718" y="49" on="0"/>
        <pt x="640" y="4" on="0"/>
        <pt x="569" y="-25" on="0"/>
        <pt x="544" y="-25" on="1"/>
        <pt x="508" y="-25" on="0"/>
        <pt x="452" y="44" on="0"/>
        <pt x="431" y="101" on="1"/>
        <pt x="431" y="76" on="0"/>
        <pt x="429" y="31" on="0"/>
        <pt x="427" y="13" on="1"/>
        <pt x="404" y="13" on="0"/>
        <pt x="374" y="22" on="0"/>
        <pt x="367" y="38" on="1"/>
        <pt x="364" y="46" on="0"/>
        <pt x="364" y="93" on="0"/>
        <pt x="369" y="155" on="0"/>
        <pt x="375" y="225" on="0"/>
        <pt x="380" y="288" on="0"/>
        <pt x="380" y="335" on="0"/>
        <pt x="377" y="343" on="1"/>
        <pt x="342" y="348" on="0"/>
        <pt x="306" y="361" on="0"/>
        <pt x="275" y="373" on="0"/>
        <pt x="234" y="385" on="0"/>
        <pt x="195" y="391" on="1"/>
        <pt x="185" y="391" on="1"/>
        <pt x="149" y="236" on="0"/>
        <pt x="94" y="56" on="0"/>
        <pt x="57" y="-21" on="0"/>
        <pt x="36" y="-7" on="0"/>
        <pt x="30" y="72" on="0"/>
        <pt x="39" y="203" on="0"/>
        <pt x="62" y="363" on="0"/>
        <pt x="100" y="536" on="0"/>
        <pt x="149" y="698" on="0"/>
        <pt x="212" y="838" on="0"/>
      </contour>
      <contour>
        <pt x="228" y="562" on="1"/>
        <pt x="206" y="533" on="0"/>
        <pt x="208" y="489" on="0"/>
        <pt x="242" y="461" on="0"/>
        <pt x="301" y="446" on="0"/>
        <pt x="337" y="446" on="1"/>
        <pt x="337" y="486" on="0"/>
        <pt x="341" y="580" on="0"/>
        <pt x="339" y="675" on="0"/>
        <pt x="324" y="764" on="0"/>
        <pt x="305" y="799" on="1"/>
        <pt x="294" y="788" on="0"/>
        <pt x="272" y="728" on="0"/>
        <pt x="250" y="655" on="0"/>
        <pt x="232" y="584" on="0"/>
      </contour>
    </TTGlyph>
    <TTGlyph name="AEacute" xMin="30" yMin="-25" xMax="897" yMax="1124">
      <component glyphName="AE" x="0" y="0" flags="0x204"/>
      <component glyphName="acute" x="236" y="349" flags="0x4"/>
    </TTGlyph>
    <TTGlyph name="Aacute" xMin="15" yMin="-25" xMax="645" yMax="1152">
      <component glyphName="A" x="0" y="0" flags="0x204"/>
      <component glyphName="acute" x="22" y="377" flags="0x4"/>
    </TTGlyph>
    <TTGlyph name="Abreve" xMin="15" yMin="-25" xMax="645" yMax="1208">
      <component glyphName="A" x="0" y="0" flags="0x204"/>
      <component glyphName="breve" x="38" y="349" flags="0x4"/>
    </TTGlyph>
    <TTGlyph name="Acircumflex" xMin="15" yMin="-25" xMax="645" yMax="1274">
      <component glyphName="A" x="0" y="0" flags="0x204"/>
      <component glyphName="circumflex" x="67" y="292" flags="0x4"/>
    </TTGlyph>
    <TTGlyph name="Adieresis" xMin="15" yMin="-25" xMax="645" yMax="1077">
      <component glyphName="A" x="0" y="0" flags="0x204"/>
      <component glyphName="dieresis" x="-96" y="292" flags="0x4"/>
    </TTGlyph>
    <TTGlyph name="Agrave" xMin="15" yMin="-25" xMax="645" yMax="1113">
      <component glyphName="A" x="0" y="0" flags="0x204"/>
      <component glyphName="grave" x="118" y="325" flags="0x4"/>
    </TTGlyph>
    <TTGlyph name="Amacron" xMin="15" yMin="-25" xMax="645" yMax="1059">
      <component glyphName="A" x="0" y="0" flags="0x204"/>
      <component glyphName="macron" x="59" y="443" flags="0x4"/>
    </TTGlyph>
    <TTGlyph name="Aogonek" xMin="15" yMin="-110" xMax="691" yMax="902">
      <contour>
        <pt x="236" y="878" on="1"/>
        <pt x="242" y="896" on="0"/>
        <pt x="265" y="902" on="0"/>
        <pt x="280" y="902" on="1"/>
        <pt x="303" y="902" on="0"/>
        <pt x="360" y="841" on="0"/>
        <pt x="420" y="739" on="0"/>
        <pt x="481" y="607" on="0"/>
        <pt x="538" y="466" on="0"/>
        <pt x="588" y="326" on="0"/>
        <pt x="625" y="209" on="0"/>
        <pt x="645" y="123" on="0"/>
        <pt x="645" y="107" on="1"/>
        <pt x="645" y="91" on="0"/>
        <pt x="630" y="62" on="0"/>
        <pt x="611" y="62" on="1"/>
        <pt x="599" y="62" on="0"/>
        <pt x="590" y="69" on="1"/>
        <pt x="589" y="71" on="0"/>
        <pt x="588" y="72" on="1"/>
        <pt x="570" y="52" on="1"/>
        <pt x="555" y="34" on="0"/>
        <pt x="535" y="1" on="0"/>
        <pt x="535" y="-8" on="1"/>
        <pt x="535" y="-23" on="0"/>
        <pt x="548" y="-40" on="0"/>
        <pt x="571" y="-46" on="0"/>
        <pt x="598" y="-39" on="0"/>
        <pt x="613" y="-29" on="1"/>
        <pt x="650" y="-2" on="0"/>
        <pt x="685" y="7" on="0"/>
        <pt x="691" y="-11" on="0"/>
        <pt x="676" y="-47" on="0"/>
        <pt x="648" y="-83" on="0"/>
        <pt x="614" y="-110" on="0"/>
        <pt x="598" y="-110" on="1"/>
        <pt x="570" y="-110" on="0"/>
        <pt x="519" y="-95" on="0"/>
        <pt x="481" y="-69" on="0"/>
        <pt x="460" y="-31" on="0"/>
        <pt x="460" y="-6" on="1"/>
        <pt x="460" y="13" on="0"/>
        <pt x="477" y="55" on="0"/>
        <pt x="505" y="94" on="0"/>
        <pt x="522" y="110" on="1"/>
        <pt x="537" y="124" on="0"/>
        <pt x="553" y="135" on="1"/>
        <pt x="549" y="148" on="0"/>
        <pt x="539" y="171" on="1"/>
        <pt x="527" y="202" on="0"/>
        <pt x="500" y="270" on="0"/>
        <pt x="476" y="330" on="0"/>
        <pt x="471" y="343" on="1"/>
        <pt x="401" y="355" on="0"/>
        <pt x="260" y="376" on="0"/>
        <pt x="182" y="386" on="1"/>
        <pt x="171" y="386" on="1"/>
        <pt x="135" y="231" on="0"/>
        <pt x="80" y="51" on="0"/>
        <pt x="43" y="-25" on="0"/>
        <pt x="22" y="-12" on="0"/>
        <pt x="15" y="67" on="0"/>
        <pt x="24" y="199" on="0"/>
        <pt x="49" y="358" on="0"/>
        <pt x="85" y="532" on="0"/>
        <pt x="136" y="694" on="0"/>
        <pt x="199" y="833" on="0"/>
      </contour>
      <contour>
        <pt x="212" y="526" on="1"/>
        <pt x="212" y="489" on="0"/>
        <pt x="260" y="454" on="0"/>
        <pt x="328" y="444" on="0"/>
        <pt x="403" y="446" on="0"/>
        <pt x="430" y="446" on="1"/>
        <pt x="430" y="486" on="0"/>
        <pt x="404" y="579" on="0"/>
        <pt x="364" y="671" on="0"/>
        <pt x="319" y="758" on="0"/>
        <pt x="300" y="793" on="1"/>
        <pt x="289" y="782" on="0"/>
        <pt x="264" y="723" on="0"/>
        <pt x="239" y="650" on="0"/>
        <pt x="219" y="580" on="0"/>
        <pt x="214" y="558" on="1"/>
        <pt x="214" y="555" on="0"/>
        <pt x="212" y="530" on="0"/>
      </contour>
    </TTGlyph>
    <TTGlyph name="Aring" xMin="15" yMin="-25" xMax="645" yMax="1147">
      <contour>
        <pt x="148" y="985" on="1"/>
        <pt x="148" y="1020" on="0"/>
        <pt x="183" y="1079" on="0"/>
        <pt x="239" y="1122" on="0"/>
        <pt x="312" y="1147" on="0"/>
        <pt x="349" y="1147" on="1"/>
        <pt x="369" y="1147" on="0"/>
        <pt x="401" y="1122" on="0"/>
        <pt x="423" y="1087" on="0"/>
        <pt x="435" y="1048" on="0"/>
        <pt x="435" y="1032" on="1"/>
        <pt x="435" y="1001" on="0"/>
        <pt x="402" y="942" on="0"/>
        <pt x="376" y="919" on="1"/>
        <pt x="351" y="896" on="0"/>
        <pt x="319" y="883" on="1"/>
        <pt x="325" y="877" on="0"/>
        <pt x="331" y="871" on="1"/>
        <pt x="360" y="841" on="0"/>
        <pt x="420" y="739" on="0"/>
        <pt x="481" y="607" on="0"/>
        <pt x="538" y="466" on="0"/>
        <pt x="588" y="326" on="0"/>
        <pt x="625" y="209" on="0"/>
        <pt x="645" y="123" on="0"/>
        <pt x="645" y="107" on="1"/>
        <pt x="645" y="91" on="0"/>
        <pt x="630" y="62" on="0"/>
        <pt x="611" y="62" on="1"/>
        <pt x="599" y="62" on="0"/>
        <pt x="582" y="77" on="0"/>
        <pt x="570" y="99" on="0"/>
        <pt x="560" y="121" on="0"/>
        <pt x="556" y="129" on="1"/>
        <pt x="552" y="140" on="0"/>
        <pt x="527" y="202" on="0"/>
        <pt x="500" y="270" on="0"/>
        <pt x="476" y="330" on="0"/>
        <pt x="471" y="343" on="1"/>
        <pt x="401" y="355" on="0"/>
        <pt x="260" y="376" on="0"/>
        <pt x="182" y="386" on="1"/>
        <pt x="171" y="386" on="1"/>
        <pt x="135" y="231" on="0"/>
        <pt x="80" y="51" on="0"/>
        <pt x="43" y="-25" on="0"/>
        <pt x="22" y="-12" on="0"/>
        <pt x="15" y="67" on="0"/>
        <pt x="24" y="199" on="0"/>
        <pt x="49" y="358" on="0"/>
        <pt x="85" y="532" on="0"/>
        <pt x="136" y="694" on="0"/>
        <pt x="167" y="763" on="1"/>
        <pt x="195" y="827" on="0"/>
        <pt x="229" y="869" on="1"/>
        <pt x="214" y="872" on="0"/>
        <pt x="203" y="877" on="1"/>
        <pt x="184" y="886" on="0"/>
        <pt x="158" y="918" on="0"/>
        <pt x="148" y="960" on="0"/>
      </contour>
      <contour>
        <pt x="212" y="526" on="1"/>
        <pt x="212" y="489" on="0"/>
        <pt x="260" y="454" on="0"/>
        <pt x="328" y="444" on="0"/>
        <pt x="403" y="446" on="0"/>
        <pt x="430" y="446" on="1"/>
        <pt x="430" y="486" on="0"/>
        <pt x="404" y="579" on="0"/>
        <pt x="364" y="671" on="0"/>
        <pt x="319" y="758" on="0"/>
        <pt x="300" y="793" on="1"/>
        <pt x="289" y="782" on="0"/>
        <pt x="264" y="723" on="0"/>
        <pt x="239" y="650" on="0"/>
        <pt x="219" y="580" on="0"/>
        <pt x="214" y="558" on="1"/>
        <pt x="214" y="555" on="0"/>
        <pt x="212" y="530" on="0"/>
      </contour>
      <contour>
        <pt x="222" y="983" on="1"/>
        <pt x="222" y="968" on="0"/>
        <pt x="224" y="948" on="0"/>
        <pt x="232" y="934" on="0"/>
        <pt x="251" y="927" on="0"/>
        <pt x="269" y="927" on="1"/>
        <pt x="313" y="927" on="0"/>
        <pt x="367" y="976" on="0"/>
        <pt x="367" y="1016" on="1"/>
        <pt x="367" y="1025" on="0"/>
        <pt x="363" y="1049" on="0"/>
        <pt x="354" y="1072" on="0"/>
        <pt x="337" y="1087" on="0"/>
        <pt x="325" y="1087" on="1"/>
        <pt x="309" y="1087" on="0"/>
        <pt x="273" y="1064" on="0"/>
        <pt x="242" y="1030" on="0"/>
        <pt x="222" y="994" on="0"/>
      </contour>
    </TTGlyph>
    <TTGlyph name="Atilde" xMin="15" yMin="-25" xMax="645" yMax="1192">
      <component glyphName="A" x="0" y="0" flags="0x204"/>
      <component glyphName="tilde" x="26" y="471" flags="0x4"/>
    </TTGlyph>
    <TTGlyph name="B" xMin="34" yMin="20" xMax="556" yMax="904">
      <contour>
        <pt x="34" y="746" on="1"/>
        <pt x="46" y="807" on="0"/>
        <pt x="110" y="878" on="0"/>
        <pt x="193" y="904" on="0"/>
        <pt x="288" y="891" on="0"/>
        <pt x="373" y="845" on="0"/>
        <pt x="437" y="772" on="0"/>
        <pt x="463" y="679" on="0"/>
        <pt x="437" y="571" on="0"/>
        <pt x="391" y="514" on="1"/>
        <pt x="427" y="501" on="0"/>
        <pt x="489" y="475" on="0"/>
        <pt x="532" y="437" on="0"/>
        <pt x="556" y="383" on="0"/>
        <pt x="556" y="343" on="1"/>
        <pt x="556" y="310" on="0"/>
        <pt x="532" y="236" on="0"/>
        <pt x="489" y="164" on="0"/>
        <pt x="432" y="99" on="0"/>
        <pt x="366" y="49" on="0"/>
        <pt x="297" y="20" on="0"/>
        <pt x="264" y="20" on="1"/>
        <pt x="242" y="20" on="0"/>
        <pt x="200" y="76" on="0"/>
        <pt x="160" y="168" on="0"/>
        <pt x="122" y="288" on="0"/>
        <pt x="90" y="417" on="0"/>
        <pt x="64" y="544" on="0"/>
        <pt x="45" y="652" on="0"/>
        <pt x="34" y="731" on="0"/>
      </contour>
      <contour>
        <pt x="212" y="313" on="1"/>
        <pt x="212" y="296" on="0"/>
        <pt x="228" y="240" on="0"/>
        <pt x="253" y="184" on="0"/>
        <pt x="283" y="137" on="0"/>
        <pt x="300" y="129" on="1"/>
        <pt x="314" y="121" on="0"/>
        <pt x="352" y="140" on="0"/>
        <pt x="391" y="181" on="0"/>
        <pt x="427" y="234" on="0"/>
        <pt x="456" y="286" on="0"/>
        <pt x="473" y="331" on="0"/>
        <pt x="473" y="343" on="1"/>
        <pt x="473" y="369" on="0"/>
        <pt x="459" y="402" on="0"/>
        <pt x="432" y="422" on="0"/>
        <pt x="395" y="430" on="0"/>
        <pt x="373" y="430" on="1"/>
        <pt x="348" y="430" on="0"/>
        <pt x="292" y="414" on="0"/>
        <pt x="245" y="384" on="0"/>
        <pt x="212" y="340" on="0"/>
      </contour>
      <contour>
        <pt x="148" y="653" on="1"/>
        <pt x="148" y="635" on="0"/>
        <pt x="146" y="582" on="0"/>
        <pt x="148" y="526" on="0"/>
        <pt x="158" y="470" on="0"/>
        <pt x="171" y="450" on="1"/>
        <pt x="220" y="459" on="0"/>
        <pt x="293" y="509" on="0"/>
        <pt x="338" y="576" on="0"/>
        <pt x="358" y="652" on="0"/>
        <pt x="353" y="724" on="0"/>
        <pt x="324" y="784" on="0"/>
        <pt x="272" y="817" on="0"/>
        <pt x="198" y="817" on="0"/>
        <pt x="150" y="793" on="1"/>
        <pt x="150" y="785" on="0"/>
        <pt x="149" y="745" on="0"/>
        <pt x="148" y="701" on="0"/>
        <pt x="148" y="661" on="0"/>
      </contour>
    </TTGlyph>
    <TTGlyph name="C" xMin="20" yMin="-2" xMax="621" yMax="709">
      <contour>
        <pt x="20" y="343" on="1"/>
        <pt x="20" y="377" on="0"/>
        <pt x="39" y="457" on="0"/>
        <pt x="73" y="538" on="0"/>
        <pt x="121" y="615" on="0"/>
        <pt x="181" y="674" on="0"/>
        <pt x="251" y="709" on="0"/>
        <pt x="290" y="709" on="1"/>
        <pt x="322" y="709" on="0"/>
        <pt x="378" y="692" on="0"/>
        <pt x="418" y="658" on="0"/>
        <pt x="441" y="607" on="0"/>
        <pt x="441" y="572" on="1"/>
        <pt x="419" y="572" on="0"/>
        <pt x="392" y="595" on="0"/>
        <pt x="369" y="623" on="0"/>
        <pt x="342" y="645" on="0"/>
        <pt x="321" y="645" on="1"/>
        <pt x="290" y="645" on="0"/>
        <pt x="233" y="613" on="0"/>
        <pt x="184" y="559" on="0"/>
        <pt x="147" y="491" on="0"/>
        <pt x="120" y="422" on="0"/>
        <pt x="105" y="356" on="0"/>
        <pt x="105" y="332" on="1"/>
        <pt x="105" y="280" on="0"/>
        <pt x="136" y="189" on="0"/>
        <pt x="194" y="122" on="0"/>
        <pt x="280" y="84" on="0"/>
        <pt x="335" y="84" on="1"/>
        <pt x="370" y="84" on="0"/>
        <pt x="433" y="105" on="0"/>
        <pt x="492" y="130" on="0"/>
        <pt x="550" y="152" on="0"/>
        <pt x="579" y="152" on="1"/>
        <pt x="583" y="152" on="0"/>
        <pt x="598" y="151" on="0"/>
        <pt x="611" y="147" on="0"/>
        <pt x="621" y="138" on="0"/>
        <pt x="621" y="129" on="1"/>
        <pt x="621" y="93" on="0"/>
        <pt x="566" y="43" on="0"/>
        <pt x="490" y="12" on="0"/>
        <pt x="408" y="-2" on="0"/>
        <pt x="382" y="-2" on="1"/>
        <pt x="306" y="-2" on="0"/>
        <pt x="174" y="47" on="0"/>
        <pt x="76" y="137" on="0"/>
        <pt x="20" y="264" on="0"/>
      </contour>
    </TTGlyph>
    <TTGlyph name="Cacute" xMin="20" yMin="-2" xMax="621" yMax="968">
      <component glyphName="C" x="0" y="0" flags="0x204"/>
      <component glyphName="acute" x="90" y="193" flags="0x4"/>
    </TTGlyph>
    <TTGlyph name="Ccaron" xMin="20" yMin="-2" xMax="621" yMax="1057">
      <component glyphName="C" x="0" y="0" flags="0x204"/>
      <component glyphName="caron" x="110" y="193" flags="0x4"/>
    </TTGlyph>
    <TTGlyph name="Ccedilla" xMin="20" yMin="-390" xMax="621" yMax="709">
      <contour>
        <pt x="287" y="-344" on="1"/>
        <pt x="302" y="-333" on="0"/>
        <pt x="348" y="-304" on="0"/>
        <pt x="396" y="-274" on="0"/>
        <pt x="439" y="-240" on="0"/>
        <pt x="463" y="-210" on="0"/>
        <pt x="464" y="-180" on="0"/>
        <pt x="445" y="-168" on="1"/>
        <pt x="398" y="-168" on="0"/>
        <pt x="312" y="-173" on="0"/>
        <pt x="247" y="-150" on="0"/>
        <pt x="209" y="-84" on="0"/>
        <pt x="209" y="-14" on="1"/>
        <pt x="206" y="16" on="0"/>
        <pt x="211" y="34" on="1"/>
        <pt x="163" y="57" on="0"/>
        <pt x="125" y="92" on="1"/>
        <pt x="76" y="137" on="0"/>
        <pt x="20" y="264" on="0"/>
        <pt x="20" y="343" on="1"/>
        <pt x="20" y="377" on="0"/>
        <pt x="39" y="457" on="0"/>
        <pt x="73" y="538" on="0"/>
        <pt x="121" y="615" on="0"/>
        <pt x="181" y="674" on="0"/>
        <pt x="251" y="709" on="0"/>
        <pt x="290" y="709" on="1"/>
        <pt x="322" y="709" on="0"/>
        <pt x="378" y="692" on="0"/>
        <pt x="418" y="658" on="0"/>
        <pt x="441" y="607" on="0"/>
        <pt x="441" y="572" on="1"/>
        <pt x="419" y="572" on="0"/>
        <pt x="392" y="595" on="0"/>
        <pt x="369" y="623" on="0"/>
        <pt x="342" y="645" on="0"/>
        <pt x="321" y="645" on="1"/>
        <pt x="290" y="645" on="0"/>
        <pt x="233" y="613" on="0"/>
        <pt x="184" y="559" on="0"/>
        <pt x="147" y="491" on="0"/>
        <pt x="120" y="422" on="0"/>
        <pt x="105" y="356" on="0"/>
        <pt x="105" y="332" on="1"/>
        <pt x="105" y="280" on="0"/>
        <pt x="136" y="189" on="0"/>
        <pt x="194" y="122" on="0"/>
        <pt x="280" y="84" on="0"/>
        <pt x="335" y="84" on="1"/>
        <pt x="370" y="84" on="0"/>
        <pt x="433" y="105" on="0"/>
        <pt x="492" y="130" on="0"/>
        <pt x="550" y="152" on="0"/>
        <pt x="579" y="152" on="1"/>
        <pt x="583" y="152" on="0"/>
        <pt x="598" y="151" on="0"/>
        <pt x="611" y="147" on="0"/>
        <pt x="621" y="138" on="0"/>
        <pt x="621" y="129" on="1"/>
        <pt x="621" y="93" on="0"/>
        <pt x="566" y="43" on="0"/>
        <pt x="490" y="12" on="0"/>
        <pt x="408" y="-2" on="0"/>
        <pt x="382" y="-2" on="1"/>
        <pt x="339" y="-2" on="0"/>
        <pt x="301" y="5" on="1"/>
        <pt x="302" y="-6" on="0"/>
        <pt x="295" y="-15" on="1"/>
        <pt x="295" y="-47" on="0"/>
        <pt x="318" y="-78" on="0"/>
        <pt x="354" y="-90" on="0"/>
        <pt x="400" y="-88" on="0"/>
        <pt x="450" y="-85" on="0"/>
        <pt x="497" y="-86" on="0"/>
        <pt x="533" y="-103" on="0"/>
        <pt x="555" y="-142" on="0"/>
        <pt x="555" y="-179" on="1"/>
        <pt x="555" y="-203" on="0"/>
        <pt x="508" y="-275" on="0"/>
        <pt x="436" y="-342" on="0"/>
        <pt x="355" y="-390" on="0"/>
        <pt x="321" y="-390" on="1"/>
        <pt x="301" y="-390" on="0"/>
        <pt x="287" y="-360" on="0"/>
      </contour>
    </TTGlyph>
    <TTGlyph name="Ccircumflex" xMin="20" yMin="-2" xMax="621" yMax="1169">
      <component glyphName="C" x="0" y="0" flags="0x204"/>
      <component glyphName="circumflex" x="120" y="187" flags="0x4"/>
    </TTGlyph>
    <TTGlyph name="Cdotaccent" xMin="20" yMin="-2" xMax="621" yMax="931">
      <component glyphName="C" x="0" y="0" flags="0x204"/>
      <component glyphName="dotaccent" x="140" y="234" flags="0x4"/>
    </TTGlyph>
    <TTGlyph name="D" xMin="22" yMin="20" xMax="495" yMax="816">
      <contour>
        <pt x="22" y="678" on="1"/>
        <pt x="22" y="720" on="0"/>
        <pt x="71" y="774" on="0"/>
        <pt x="144" y="805" on="0"/>
        <pt x="228" y="816" on="0"/>
        <pt x="262" y="816" on="1"/>
        <pt x="327" y="816" on="0"/>
        <pt x="416" y="765" on="0"/>
        <pt x="471" y="681" on="0"/>
        <pt x="495" y="571" on="0"/>
        <pt x="495" y="514" on="1"/>
        <pt x="495" y="476" on="0"/>
        <pt x="479" y="373" on="0"/>
        <pt x="447" y="264" on="0"/>
        <pt x="400" y="157" on="0"/>
        <pt x="338" y="72" on="0"/>
        <pt x="261" y="20" on="0"/>
        <pt x="215" y="20" on="1"/>
        <pt x="206" y="20" on="0"/>
        <pt x="181" y="69" on="0"/>
        <pt x="150" y="151" on="0"/>
        <pt x="117" y="258" on="0"/>
        <pt x="85" y="373" on="0"/>
        <pt x="57" y="489" on="0"/>
        <pt x="34" y="587" on="0"/>
        <pt x="22" y="661" on="0"/>
      </contour>
      <contour>
        <pt x="105" y="621" on="1"/>
        <pt x="105" y="589" on="0"/>
        <pt x="114" y="507" on="0"/>
        <pt x="133" y="419" on="0"/>
        <pt x="162" y="330" on="0"/>
        <pt x="200" y="252" on="0"/>
        <pt x="248" y="189" on="0"/>
        <pt x="278" y="171" on="1"/>
        <pt x="312" y="219" on="0"/>
        <pt x="362" y="295" on="0"/>
        <pt x="394" y="371" on="0"/>
        <pt x="409" y="457" on="0"/>
        <pt x="409" y="514" on="1"/>
        <pt x="409" y="555" on="0"/>
        <pt x="399" y="633" on="0"/>
        <pt x="366" y="694" on="0"/>
        <pt x="306" y="731" on="0"/>
        <pt x="257" y="731" on="1"/>
        <pt x="217" y="731" on="0"/>
        <pt x="142" y="706" on="0"/>
        <pt x="107" y="686" on="1"/>
        <pt x="107" y="683" on="0"/>
        <pt x="106" y="665" on="0"/>
        <pt x="106" y="644" on="0"/>
        <pt x="105" y="625" on="0"/>
      </contour>
    </TTGlyph>
    <TTGlyph name="Dcaron" xMin="22" yMin="20" xMax="495" yMax="1057">
      <component glyphName="D" x="0" y="0" flags="0x204"/>
      <component glyphName="caron" x="45" y="193" flags="0x4"/>
    </TTGlyph>
    <TTGlyph name="Dcroat" xMin="-40" yMin="20" xMax="495" yMax="816">
      <contour>
        <pt x="-40" y="436" on="1"/>
        <pt x="-40" y="439" on="0"/>
        <pt x="-38" y="456" on="0"/>
        <pt x="-38" y="458" on="1"/>
        <pt x="-13" y="458" on="0"/>
        <pt x="26" y="461" on="1"/>
        <pt x="44" y="463" on="0"/>
        <pt x="63" y="463" on="1"/>
        <pt x="53" y="503" on="0"/>
        <pt x="45" y="537" on="1"/>
        <pt x="34" y="587" on="0"/>
        <pt x="22" y="661" on="0"/>
        <pt x="22" y="678" on="1"/>
        <pt x="22" y="720" on="0"/>
        <pt x="71" y="774" on="0"/>
        <pt x="144" y="805" on="0"/>
        <pt x="228" y="816" on="0"/>
        <pt x="262" y="816" on="1"/>
        <pt x="327" y="816" on="0"/>
        <pt x="416" y="765" on="0"/>
        <pt x="471" y="681" on="0"/>
        <pt x="495" y="571" on="0"/>
        <pt x="495" y="514" on="1"/>
        <pt x="495" y="476" on="0"/>
        <pt x="479" y="373" on="0"/>
        <pt x="447" y="264" on="0"/>
        <pt x="400" y="157" on="0"/>
        <pt x="338" y="72" on="0"/>
        <pt x="261" y="20" on="0"/>
        <pt x="215" y="20" on="1"/>
        <pt x="206" y="20" on="0"/>
        <pt x="181" y="69" on="0"/>
        <pt x="150" y="151" on="0"/>
        <pt x="117" y="258" on="0"/>
        <pt x="101" y="316" on="1"/>
        <pt x="80" y="392" on="1"/>
        <pt x="68" y="392" on="1"/>
        <pt x="33" y="394" on="0"/>
        <pt x="5" y="393" on="1"/>
        <pt x="-22" y="391" on="0"/>
        <pt x="-40" y="418" on="0"/>
      </contour>
      <contour>
        <pt x="105" y="621" on="1"/>
        <pt x="105" y="589" on="0"/>
        <pt x="110" y="547" on="1"/>
        <pt x="113" y="508" on="0"/>
        <pt x="122" y="467" on="1"/>
        <pt x="157" y="469" on="0"/>
        <pt x="187" y="469" on="1"/>
        <pt x="226" y="470" on="0"/>
        <pt x="249" y="465" on="1"/>
        <pt x="267" y="465" on="0"/>
        <pt x="282" y="457" on="0"/>
        <pt x="282" y="434" on="1"/>
        <pt x="252" y="414" on="0"/>
        <pt x="179" y="397" on="0"/>
        <pt x="141" y="394" on="1"/>
        <pt x="144" y="384" on="0"/>
        <pt x="148" y="374" on="1"/>
        <pt x="162" y="330" on="0"/>
        <pt x="200" y="252" on="0"/>
        <pt x="248" y="189" on="0"/>
        <pt x="278" y="171" on="1"/>
        <pt x="312" y="219" on="0"/>
        <pt x="362" y="295" on="0"/>
        <pt x="394" y="371" on="0"/>
        <pt x="409" y="457" on="0"/>
        <pt x="409" y="514" on="1"/>
        <pt x="409" y="555" on="0"/>
        <pt x="399" y="633" on="0"/>
        <pt x="366" y="694" on="0"/>
        <pt x="306" y="731" on="0"/>
        <pt x="257" y="731" on="1"/>
        <pt x="217" y="731" on="0"/>
        <pt x="142" y="706" on="0"/>
        <pt x="107" y="686" on="1"/>
        <pt x="107" y="683" on="0"/>
        <pt x="106" y="665" on="0"/>
        <pt x="106" y="644" on="0"/>
        <pt x="105" y="625" on="0"/>
      </contour>
    </TTGlyph>
    <TTGlyph name="E" xMin="-2" yMin="-2" xMax="621" yMax="878">
      <contour>
        <pt x="65" y="793" on="1"/>
        <pt x="60" y="793" on="0"/>
        <pt x="41" y="798" on="0"/>
        <pt x="21" y="805" on="0"/>
        <pt x="3" y="812" on="0"/>
        <pt x="0" y="814" on="1"/>
        <pt x="-1" y="816" on="0"/>
        <pt x="-1" y="818" on="1"/>
        <pt x="-2" y="820" on="0"/>
        <pt x="-2" y="823" on="1"/>
        <pt x="-2" y="837" on="0"/>
        <pt x="20" y="857" on="0"/>
        <pt x="49" y="870" on="0"/>
        <pt x="77" y="877" on="0"/>
        <pt x="85" y="878" on="1"/>
        <pt x="97" y="878" on="1"/>
        <pt x="107" y="878" on="1"/>
        <pt x="131" y="876" on="0"/>
        <pt x="205" y="868" on="0"/>
        <pt x="288" y="859" on="0"/>
        <pt x="373" y="850" on="0"/>
        <pt x="442" y="841" on="0"/>
        <pt x="489" y="836" on="0"/>
        <pt x="493" y="836" on="1"/>
        <pt x="501" y="835" on="0"/>
        <pt x="526" y="830" on="0"/>
        <pt x="552" y="819" on="0"/>
        <pt x="574" y="804" on="0"/>
        <pt x="579" y="793" on="1"/>
        <pt x="571" y="777" on="0"/>
        <pt x="559" y="760" on="0"/>
        <pt x="545" y="751" on="0"/>
        <pt x="530" y="751" on="0"/>
        <pt x="519" y="751" on="1"/>
        <pt x="477" y="751" on="0"/>
        <pt x="392" y="757" on="0"/>
        <pt x="308" y="763" on="0"/>
        <pt x="223" y="769" on="0"/>
        <pt x="180" y="769" on="1"/>
        <pt x="180" y="751" on="0"/>
        <pt x="171" y="679" on="0"/>
        <pt x="166" y="599" on="0"/>
        <pt x="175" y="520" on="0"/>
        <pt x="193" y="493" on="1"/>
        <pt x="228" y="514" on="0"/>
        <pt x="304" y="516" on="0"/>
        <pt x="343" y="516" on="1"/>
        <pt x="360" y="516" on="0"/>
        <pt x="412" y="516" on="0"/>
        <pt x="461" y="504" on="0"/>
        <pt x="495" y="476" on="0"/>
        <pt x="495" y="448" on="1"/>
        <pt x="495" y="428" on="0"/>
        <pt x="479" y="408" on="0"/>
        <pt x="450" y="408" on="1"/>
        <pt x="447" y="408" on="0"/>
        <pt x="428" y="414" on="0"/>
        <pt x="407" y="422" on="0"/>
        <pt x="389" y="428" on="0"/>
        <pt x="386" y="428" on="1"/>
        <pt x="385" y="428" on="0"/>
        <pt x="372" y="429" on="0"/>
        <pt x="354" y="429" on="0"/>
        <pt x="337" y="430" on="0"/>
        <pt x="332" y="430" on="1"/>
        <pt x="309" y="430" on="0"/>
        <pt x="266" y="424" on="0"/>
        <pt x="234" y="406" on="0"/>
        <pt x="215" y="372" on="0"/>
        <pt x="215" y="345" on="1"/>
        <pt x="215" y="336" on="0"/>
        <pt x="219" y="292" on="0"/>
        <pt x="226" y="239" on="0"/>
        <pt x="238" y="183" on="0"/>
        <pt x="258" y="136" on="0"/>
        <pt x="283" y="105" on="0"/>
        <pt x="301" y="105" on="1"/>
        <pt x="303" y="105" on="0"/>
        <pt x="319" y="107" on="0"/>
        <pt x="321" y="107" on="1"/>
        <pt x="355" y="130" on="0"/>
        <pt x="424" y="184" on="0"/>
        <pt x="498" y="231" on="0"/>
        <pt x="578" y="264" on="0"/>
        <pt x="621" y="264" on="1"/>
        <pt x="621" y="215" on="1"/>
        <pt x="621" y="211" on="0"/>
        <pt x="582" y="175" on="0"/>
        <pt x="519" y="127" on="0"/>
        <pt x="441" y="73" on="0"/>
        <pt x="363" y="28" on="0"/>
        <pt x="292" y="-2" on="0"/>
        <pt x="268" y="-2" on="1"/>
        <pt x="234" y="-2" on="0"/>
        <pt x="181" y="59" on="0"/>
        <pt x="139" y="160" on="0"/>
        <pt x="111" y="292" on="0"/>
        <pt x="90" y="432" on="0"/>
        <pt x="77" y="571" on="0"/>
        <pt x="69" y="689" on="0"/>
        <pt x="66" y="776" on="0"/>
      </contour>
    </TTGlyph>
    <TTGlyph name="Eacute" xMin="-2" yMin="-2" xMax="621" yMax="1110">
      <component glyphName="E" x="0" y="0" flags="0x204"/>
      <component glyphName="acute" x="58" y="335" flags="0x4"/>
    </TTGlyph>
    <TTGlyph name="Ebreve" xMin="-2" yMin="-2" xMax="621" yMax="1179">
      <component glyphName="E" x="0" y="0" flags="0x204"/>
      <component glyphName="breve" x="47" y="320" flags="0x4"/>
    </TTGlyph>
    <TTGlyph name="Ecaron" xMin="-2" yMin="-2" xMax="621" yMax="1120">
      <component glyphName="E" x="0" y="0" flags="0x204"/>
      <component glyphName="caron" x="140" y="256" flags="0x4"/>
    </TTGlyph>
    <TTGlyph name="Ecircumflex" xMin="-2" yMin="-2" xMax="621" yMax="1260">
      <component glyphName="E" x="0" y="0" flags="0x204"/>
      <component glyphName="circumflex" x="113" y="278" flags="0x4"/>
    </TTGlyph>
    <TTGlyph name="Edieresis" xMin="-2" yMin="-2" xMax="621" yMax="1021">
      <component glyphName="E" x="0" y="0" flags="0x204"/>
      <component glyphName="dieresis" x="-60" y="236" flags="0x4"/>
    </TTGlyph>
    <TTGlyph name="Edotaccent" xMin="-2" yMin="-2" xMax="621" yMax="1017">
      <component glyphName="E" x="0" y="0" flags="0x204"/>
      <component glyphName="dotaccent" x="193" y="320" flags="0x4"/>
    </TTGlyph>
    <TTGlyph name="Egrave" xMin="-2" yMin="-2" xMax="621" yMax="1103">
      <component glyphName="E" x="0" y="0" flags="0x204"/>
      <component glyphName="grave" x="99" y="315" flags="0x4"/>
    </TTGlyph>
    <TTGlyph name="Emacron" xMin="-2" yMin="-2" xMax="621" yMax="1026">
      <component glyphName="E" x="0" y="0" flags="0x204"/>
      <component glyphName="macron" x="67" y="410" flags="0x4"/>
    </TTGlyph>
    <TTGlyph name="Eogonek" xMin="-2" yMin="-120" xMax="621" yMax="878">
      <contour>
        <pt x="485" y="102" on="1"/>
        <pt x="472" y="94" on="0"/>
        <pt x="438" y="60" on="0"/>
        <pt x="409" y="24" on="0"/>
        <pt x="388" y="-9" on="0"/>
        <pt x="388" y="-18" on="1"/>
        <pt x="388" y="-32" on="0"/>
        <pt x="401" y="-50" on="0"/>
        <pt x="424" y="-56" on="0"/>
        <pt x="452" y="-49" on="0"/>
        <pt x="466" y="-39" on="1"/>
        <pt x="503" y="-12" on="0"/>
        <pt x="538" y="-3" on="0"/>
        <pt x="544" y="-21" on="0"/>
        <pt x="529" y="-57" on="0"/>
        <pt x="501" y="-93" on="0"/>
        <pt x="467" y="-120" on="0"/>
        <pt x="452" y="-120" on="1"/>
        <pt x="423" y="-120" on="0"/>
        <pt x="373" y="-105" on="0"/>
        <pt x="335" y="-79" on="0"/>
        <pt x="313" y="-41" on="0"/>
        <pt x="313" y="-16" on="1"/>
        <pt x="313" y="-4" on="0"/>
        <pt x="316" y="8" on="1"/>
        <pt x="288" y="-2" on="0"/>
        <pt x="268" y="-2" on="1"/>
        <pt x="234" y="-2" on="0"/>
        <pt x="181" y="59" on="0"/>
        <pt x="139" y="160" on="0"/>
        <pt x="111" y="292" on="0"/>
        <pt x="90" y="432" on="0"/>
        <pt x="77" y="571" on="0"/>
        <pt x="69" y="689" on="0"/>
        <pt x="66" y="776" on="0"/>
        <pt x="65" y="793" on="1"/>
        <pt x="60" y="793" on="0"/>
        <pt x="41" y="798" on="0"/>
        <pt x="21" y="805" on="0"/>
        <pt x="3" y="812" on="0"/>
        <pt x="0" y="814" on="1"/>
        <pt x="-1" y="816" on="0"/>
        <pt x="-1" y="818" on="1"/>
        <pt x="-2" y="820" on="0"/>
        <pt x="-2" y="823" on="1"/>
        <pt x="-2" y="837" on="0"/>
        <pt x="20" y="857" on="0"/>
        <pt x="49" y="870" on="0"/>
        <pt x="77" y="877" on="0"/>
        <pt x="85" y="878" on="1"/>
        <pt x="107" y="878" on="1"/>
        <pt x="131" y="876" on="0"/>
        <pt x="205" y="868" on="0"/>
        <pt x="288" y="859" on="0"/>
        <pt x="373" y="850" on="0"/>
        <pt x="442" y="841" on="0"/>
        <pt x="489" y="836" on="0"/>
        <pt x="493" y="836" on="1"/>
        <pt x="501" y="835" on="0"/>
        <pt x="526" y="830" on="0"/>
        <pt x="552" y="819" on="0"/>
        <pt x="574" y="804" on="0"/>
        <pt x="579" y="793" on="1"/>
        <pt x="571" y="777" on="0"/>
        <pt x="559" y="760" on="0"/>
        <pt x="545" y="751" on="0"/>
        <pt x="530" y="751" on="0"/>
        <pt x="519" y="751" on="1"/>
        <pt x="477" y="751" on="0"/>
        <pt x="435" y="753" on="1"/>
        <pt x="265" y="766" on="1"/>
        <pt x="223" y="769" on="0"/>
        <pt x="180" y="769" on="1"/>
        <pt x="180" y="751" on="0"/>
        <pt x="171" y="679" on="0"/>
        <pt x="166" y="599" on="0"/>
        <pt x="175" y="520" on="0"/>
        <pt x="193" y="493" on="1"/>
        <pt x="228" y="514" on="0"/>
        <pt x="304" y="516" on="0"/>
        <pt x="343" y="516" on="1"/>
        <pt x="386" y="516" on="1"/>
        <pt x="412" y="516" on="0"/>
        <pt x="461" y="504" on="0"/>
        <pt x="495" y="476" on="0"/>
        <pt x="495" y="448" on="1"/>
        <pt x="495" y="428" on="0"/>
        <pt x="479" y="408" on="0"/>
        <pt x="450" y="408" on="1"/>
        <pt x="447" y="408" on="0"/>
        <pt x="428" y="414" on="0"/>
        <pt x="407" y="422" on="0"/>
        <pt x="389" y="428" on="0"/>
        <pt x="386" y="428" on="1"/>
        <pt x="385" y="428" on="0"/>
        <pt x="372" y="429" on="0"/>
        <pt x="354" y="429" on="0"/>
        <pt x="337" y="430" on="0"/>
        <pt x="332" y="430" on="1"/>
        <pt x="309" y="430" on="0"/>
        <pt x="266" y="424" on="0"/>
        <pt x="234" y="406" on="0"/>
        <pt x="215" y="372" on="0"/>
        <pt x="215" y="345" on="1"/>
        <pt x="215" y="336" on="0"/>
        <pt x="219" y="292" on="0"/>
        <pt x="226" y="239" on="0"/>
        <pt x="238" y="183" on="0"/>
        <pt x="258" y="136" on="0"/>
        <pt x="283" y="105" on="0"/>
        <pt x="301" y="105" on="1"/>
        <pt x="303" y="105" on="0"/>
        <pt x="319" y="107" on="0"/>
        <pt x="321" y="107" on="1"/>
        <pt x="355" y="130" on="0"/>
        <pt x="424" y="184" on="0"/>
        <pt x="498" y="231" on="0"/>
        <pt x="578" y="264" on="0"/>
        <pt x="621" y="264" on="1"/>
        <pt x="621" y="215" on="1"/>
        <pt x="621" y="211" on="0"/>
        <pt x="582" y="175" on="0"/>
        <pt x="551" y="150" on="1"/>
        <pt x="520" y="128" on="0"/>
        <pt x="483" y="102" on="1"/>
      </contour>
    </TTGlyph>
    <TTGlyph name="Eth" xMin="0" yMin="20" xMax="490" yMax="816">
      <contour>
        <pt x="9" y="329" on="1"/>
        <pt x="9" y="330" on="0"/>
        <pt x="6" y="348" on="0"/>
        <pt x="3" y="369" on="0"/>
        <pt x="0" y="386" on="0"/>
        <pt x="0" y="387" on="1"/>
        <pt x="24" y="380" on="0"/>
        <pt x="56" y="384" on="1"/>
        <pt x="66" y="386" on="0"/>
        <pt x="76" y="388" on="1"/>
        <pt x="66" y="431" on="1"/>
        <pt x="51" y="489" on="0"/>
        <pt x="29" y="587" on="0"/>
        <pt x="16" y="661" on="0"/>
        <pt x="16" y="678" on="1"/>
        <pt x="16" y="720" on="0"/>
        <pt x="66" y="774" on="0"/>
        <pt x="139" y="805" on="0"/>
        <pt x="223" y="816" on="0"/>
        <pt x="257" y="816" on="1"/>
        <pt x="322" y="816" on="0"/>
        <pt x="411" y="765" on="0"/>
        <pt x="466" y="681" on="0"/>
        <pt x="490" y="571" on="0"/>
        <pt x="490" y="514" on="1"/>
        <pt x="490" y="476" on="0"/>
        <pt x="474" y="373" on="0"/>
        <pt x="443" y="264" on="0"/>
        <pt x="396" y="157" on="0"/>
        <pt x="333" y="72" on="0"/>
        <pt x="256" y="20" on="0"/>
        <pt x="210" y="20" on="1"/>
        <pt x="202" y="20" on="0"/>
        <pt x="175" y="69" on="0"/>
        <pt x="145" y="151" on="0"/>
        <pt x="112" y="258" on="0"/>
        <pt x="96" y="316" on="1"/>
        <pt x="91" y="332" on="1"/>
        <pt x="85" y="332" on="1"/>
        <pt x="52" y="328" on="0"/>
        <pt x="8" y="327" on="0"/>
      </contour>
      <contour>
        <pt x="101" y="621" on="1"/>
        <pt x="101" y="589" on="0"/>
        <pt x="110" y="507" on="0"/>
        <pt x="119" y="463" on="1"/>
        <pt x="126" y="431" on="0"/>
        <pt x="135" y="399" on="1"/>
        <pt x="160" y="402" on="0"/>
        <pt x="183" y="405" on="1"/>
        <pt x="213" y="408" on="0"/>
        <pt x="234" y="396" on="1"/>
        <pt x="255" y="385" on="0"/>
        <pt x="238" y="365" on="0"/>
        <pt x="212" y="356" on="1"/>
        <pt x="188" y="348" on="0"/>
        <pt x="154" y="342" on="1"/>
        <pt x="165" y="316" on="0"/>
        <pt x="176" y="291" on="1"/>
        <pt x="195" y="252" on="0"/>
        <pt x="244" y="189" on="0"/>
        <pt x="274" y="171" on="1"/>
        <pt x="307" y="219" on="0"/>
        <pt x="356" y="295" on="0"/>
        <pt x="389" y="371" on="0"/>
        <pt x="405" y="457" on="0"/>
        <pt x="405" y="514" on="1"/>
        <pt x="405" y="555" on="0"/>
        <pt x="394" y="633" on="0"/>
        <pt x="362" y="694" on="0"/>
        <pt x="301" y="731" on="0"/>
        <pt x="253" y="731" on="1"/>
        <pt x="212" y="731" on="0"/>
        <pt x="138" y="706" on="0"/>
        <pt x="103" y="686" on="1"/>
        <pt x="103" y="683" on="0"/>
        <pt x="102" y="665" on="0"/>
        <pt x="102" y="644" on="0"/>
        <pt x="101" y="625" on="0"/>
      </contour>
    </TTGlyph>
    <TTGlyph name="Euro" xMin="47" yMin="0" xMax="690" yMax="709">
      <contour>
        <pt x="382" y="276" on="1"/>
        <pt x="408" y="277" on="0"/>
        <pt x="421" y="261" on="0"/>
        <pt x="421" y="248" on="1"/>
        <pt x="421" y="233" on="0"/>
        <pt x="398" y="216" on="0"/>
        <pt x="363" y="208" on="0"/>
        <pt x="324" y="206" on="0"/>
        <pt x="309" y="205" on="1"/>
        <pt x="300" y="204" on="0"/>
        <pt x="265" y="204" on="0"/>
        <pt x="244" y="204" on="1"/>
        <pt x="271" y="149" on="0"/>
        <pt x="373" y="84" on="0"/>
        <pt x="447" y="84" on="1"/>
        <pt x="482" y="84" on="0"/>
        <pt x="532" y="94" on="0"/>
        <pt x="575" y="108" on="0"/>
        <pt x="619" y="119" on="0"/>
        <pt x="648" y="119" on="1"/>
        <pt x="652" y="119" on="0"/>
        <pt x="667" y="118" on="0"/>
        <pt x="680" y="113" on="0"/>
        <pt x="690" y="104" on="0"/>
        <pt x="690" y="95" on="1"/>
        <pt x="690" y="71" on="0"/>
        <pt x="664" y="39" on="0"/>
        <pt x="622" y="17" on="0"/>
        <pt x="568" y="6" on="0"/>
        <pt x="514" y="1" on="0"/>
        <pt x="464" y="0" on="0"/>
        <pt x="447" y="0" on="1"/>
        <pt x="331" y="0" on="0"/>
        <pt x="181" y="108" on="0"/>
        <pt x="151" y="205" on="1"/>
        <pt x="120" y="206" on="0"/>
        <pt x="68" y="206" on="0"/>
        <pt x="56" y="206" on="1"/>
        <pt x="56" y="234" on="0"/>
        <pt x="102" y="265" on="0"/>
        <pt x="137" y="273" on="1"/>
        <pt x="131" y="305" on="0"/>
        <pt x="131" y="341" on="1"/>
        <pt x="103" y="346" on="0"/>
        <pt x="58" y="366" on="0"/>
        <pt x="47" y="387" on="1"/>
        <pt x="66" y="400" on="1"/>
        <pt x="81" y="400" on="1"/>
        <pt x="88" y="400" on="0"/>
        <pt x="110" y="400" on="0"/>
        <pt x="123" y="401" on="1"/>
        <pt x="122" y="459" on="0"/>
        <pt x="166" y="571" on="0"/>
        <pt x="253" y="658" on="0"/>
        <pt x="377" y="709" on="0"/>
        <pt x="456" y="706" on="1"/>
        <pt x="514" y="708" on="0"/>
        <pt x="587" y="686" on="0"/>
        <pt x="623" y="653" on="0"/>
        <pt x="621" y="619" on="0"/>
        <pt x="587" y="602" on="0"/>
        <pt x="521" y="611" on="0"/>
        <pt x="474" y="637" on="1"/>
        <pt x="418" y="644" on="0"/>
        <pt x="324" y="605" on="0"/>
        <pt x="255" y="535" on="0"/>
        <pt x="213" y="446" on="0"/>
        <pt x="209" y="404" on="1"/>
        <pt x="256" y="405" on="0"/>
        <pt x="351" y="407" on="0"/>
        <pt x="386" y="409" on="1"/>
        <pt x="397" y="409" on="1"/>
        <pt x="414" y="409" on="0"/>
        <pt x="425" y="391" on="0"/>
        <pt x="425" y="381" on="1"/>
        <pt x="425" y="364" on="0"/>
        <pt x="409" y="346" on="0"/>
        <pt x="386" y="338" on="1"/>
        <pt x="379" y="338" on="0"/>
        <pt x="346" y="337" on="0"/>
        <pt x="307" y="337" on="0"/>
        <pt x="273" y="337" on="0"/>
        <pt x="266" y="337" on="1"/>
        <pt x="256" y="337" on="0"/>
        <pt x="230" y="336" on="0"/>
        <pt x="216" y="336" on="1"/>
        <pt x="218" y="332" on="1"/>
        <pt x="218" y="319" on="0"/>
        <pt x="220" y="293" on="0"/>
        <pt x="221" y="281" on="1"/>
        <pt x="248" y="282" on="0"/>
        <pt x="301" y="280" on="0"/>
        <pt x="346" y="277" on="0"/>
        <pt x="377" y="275" on="0"/>
      </contour>
    </TTGlyph>
    <TTGlyph name="F" xMin="0" yMin="-2" xMax="487" yMax="752">
      <contour>
        <pt x="0" y="706" on="1"/>
        <pt x="39" y="726" on="0"/>
        <pt x="108" y="745" on="0"/>
        <pt x="177" y="752" on="0"/>
        <pt x="248" y="752" on="0"/>
        <pt x="290" y="752" on="1"/>
        <pt x="298" y="752" on="0"/>
        <pt x="337" y="751" on="0"/>
        <pt x="382" y="751" on="0"/>
        <pt x="420" y="751" on="0"/>
        <pt x="428" y="751" on="1"/>
        <pt x="439" y="747" on="0"/>
        <pt x="451" y="727" on="0"/>
        <pt x="457" y="705" on="0"/>
        <pt x="459" y="682" on="0"/>
        <pt x="459" y="676" on="1"/>
        <pt x="129" y="676" on="1"/>
        <pt x="129" y="461" on="1"/>
        <pt x="487" y="461" on="1"/>
        <pt x="487" y="427" on="0"/>
        <pt x="445" y="388" on="0"/>
        <pt x="382" y="366" on="0"/>
        <pt x="304" y="359" on="0"/>
        <pt x="234" y="360" on="0"/>
        <pt x="180" y="364" on="0"/>
        <pt x="171" y="364" on="1"/>
        <pt x="171" y="343" on="1"/>
        <pt x="171" y="301" on="0"/>
        <pt x="211" y="226" on="0"/>
        <pt x="260" y="156" on="0"/>
        <pt x="301" y="88" on="0"/>
        <pt x="301" y="53" on="1"/>
        <pt x="301" y="31" on="0"/>
        <pt x="283" y="-2" on="0"/>
        <pt x="259" y="-2" on="1"/>
        <pt x="234" y="-2" on="0"/>
        <pt x="185" y="50" on="0"/>
        <pt x="139" y="137" on="0"/>
        <pt x="98" y="250" on="0"/>
        <pt x="61" y="373" on="0"/>
        <pt x="32" y="494" on="0"/>
        <pt x="12" y="599" on="0"/>
        <pt x="0" y="679" on="0"/>
        <pt x="0" y="697" on="1"/>
      </contour>
    </TTGlyph>
    <TTGlyph name="G" xMin="-2" yMin="17" xMax="666" yMax="797">
      <contour>
        <pt x="-2" y="355" on="1"/>
        <pt x="-2" y="405" on="0"/>
        <pt x="27" y="509" on="0"/>
        <pt x="78" y="607" on="0"/>
        <pt x="149" y="695" on="0"/>
        <pt x="236" y="760" on="0"/>
        <pt x="335" y="797" on="0"/>
        <pt x="388" y="797" on="1"/>
        <pt x="411" y="797" on="0"/>
        <pt x="484" y="787" on="0"/>
        <pt x="553" y="763" on="0"/>
        <pt x="602" y="724" on="0"/>
        <pt x="602" y="697" on="1"/>
        <pt x="602" y="695" on="0"/>
        <pt x="601" y="692" on="0"/>
        <pt x="601" y="690" on="1"/>
        <pt x="600" y="688" on="0"/>
        <pt x="600" y="686" on="1"/>
        <pt x="598" y="683" on="0"/>
        <pt x="582" y="666" on="0"/>
        <pt x="579" y="664" on="1"/>
        <pt x="577" y="663" on="0"/>
        <pt x="574" y="663" on="1"/>
        <pt x="571" y="662" on="0"/>
        <pt x="568" y="662" on="1"/>
        <pt x="564" y="662" on="0"/>
        <pt x="562" y="663" on="1"/>
        <pt x="560" y="663" on="0"/>
        <pt x="558" y="664" on="1"/>
        <pt x="553" y="667" on="0"/>
        <pt x="515" y="686" on="0"/>
        <pt x="471" y="708" on="0"/>
        <pt x="433" y="727" on="0"/>
        <pt x="428" y="729" on="1"/>
        <pt x="424" y="729" on="0"/>
        <pt x="420" y="730" on="1"/>
        <pt x="417" y="730" on="0"/>
        <pt x="411" y="731" on="0"/>
        <pt x="409" y="731" on="1"/>
        <pt x="362" y="731" on="0"/>
        <pt x="276" y="697" on="0"/>
        <pt x="204" y="637" on="0"/>
        <pt x="146" y="559" on="0"/>
        <pt x="105" y="472" on="0"/>
        <pt x="84" y="381" on="0"/>
        <pt x="84" y="338" on="1"/>
        <pt x="84" y="282" on="0"/>
        <pt x="120" y="194" on="0"/>
        <pt x="184" y="135" on="0"/>
        <pt x="273" y="105" on="0"/>
        <pt x="325" y="105" on="1"/>
        <pt x="355" y="105" on="0"/>
        <pt x="443" y="121" on="0"/>
        <pt x="524" y="157" on="0"/>
        <pt x="580" y="214" on="0"/>
        <pt x="580" y="256" on="1"/>
        <pt x="580" y="273" on="0"/>
        <pt x="570" y="292" on="0"/>
        <pt x="552" y="301" on="0"/>
        <pt x="526" y="302" on="0"/>
        <pt x="512" y="302" on="1"/>
        <pt x="490" y="302" on="0"/>
        <pt x="458" y="288" on="0"/>
        <pt x="427" y="270" on="0"/>
        <pt x="396" y="256" on="0"/>
        <pt x="375" y="256" on="1"/>
        <pt x="349" y="256" on="0"/>
        <pt x="319" y="272" on="0"/>
        <pt x="319" y="301" on="1"/>
        <pt x="319" y="329" on="0"/>
        <pt x="360" y="364" on="0"/>
        <pt x="417" y="382" on="0"/>
        <pt x="479" y="388" on="0"/>
        <pt x="499" y="388" on="1"/>
        <pt x="535" y="388" on="0"/>
        <pt x="597" y="377" on="0"/>
        <pt x="642" y="348" on="0"/>
        <pt x="666" y="297" on="0"/>
        <pt x="666" y="257" on="1"/>
        <pt x="666" y="195" on="0"/>
        <pt x="598" y="104" on="0"/>
        <pt x="495" y="46" on="0"/>
        <pt x="376" y="17" on="0"/>
        <pt x="325" y="17" on="1"/>
        <pt x="253" y="17" on="0"/>
        <pt x="132" y="67" on="0"/>
        <pt x="46" y="158" on="0"/>
        <pt x="-2" y="283" on="0"/>
      </contour>
    </TTGlyph>
    <TTGlyph name="Gbreve" xMin="-2" yMin="17" xMax="666" yMax="1179">
      <component glyphName="G" x="0" y="0" flags="0x204"/>
      <component glyphName="breve" x="68" y="320" flags="0x4"/>
    </TTGlyph>
    <TTGlyph name="Gcircumflex" xMin="-2" yMin="17" xMax="666" yMax="1302">
      <component glyphName="G" x="0" y="0" flags="0x204"/>
      <component glyphName="circumflex" x="130" y="320" flags="0x4"/>
    </TTGlyph>
    <TTGlyph name="Gcommaaccent" xMin="-2" yMin="-450" xMax="666" yMax="797">
      <component glyphName="G" x="0" y="0" flags="0x204"/>
      <component glyphName="commaaccent" x="153" y="0" flags="0x4"/>
    </TTGlyph>
    <TTGlyph name="Gdotaccent" xMin="-2" yMin="17" xMax="666" yMax="1017">
      <component glyphName="G" x="0" y="0" flags="0x204"/>
      <component glyphName="dotaccent" x="215" y="320" flags="0x4"/>
    </TTGlyph>
    <TTGlyph name="H" xMin="-2" yMin="-13" xMax="628" yMax="752">
      <contour>
        <pt x="-2" y="621" on="1"/>
        <pt x="-2" y="626" on="0"/>
        <pt x="-1" y="651" on="0"/>
        <pt x="-1" y="678" on="0"/>
        <pt x="0" y="702" on="0"/>
        <pt x="0" y="706" on="1"/>
        <pt x="25" y="733" on="0"/>
        <pt x="58" y="743" on="0"/>
        <pt x="78" y="722" on="0"/>
        <pt x="87" y="676" on="0"/>
        <pt x="91" y="618" on="0"/>
        <pt x="91" y="554" on="0"/>
        <pt x="93" y="499" on="0"/>
        <pt x="99" y="457" on="0"/>
        <pt x="107" y="450" on="1"/>
        <pt x="450" y="450" on="1"/>
        <pt x="471" y="450" on="0"/>
        <pt x="489" y="476" on="0"/>
        <pt x="492" y="518" on="0"/>
        <pt x="486" y="572" on="0"/>
        <pt x="481" y="629" on="0"/>
        <pt x="482" y="684" on="0"/>
        <pt x="499" y="726" on="0"/>
        <pt x="535" y="752" on="0"/>
        <pt x="570" y="752" on="1"/>
        <pt x="583" y="733" on="0"/>
        <pt x="589" y="688" on="0"/>
        <pt x="586" y="640" on="0"/>
        <pt x="579" y="593" on="0"/>
        <pt x="579" y="571" on="1"/>
        <pt x="579" y="512" on="0"/>
        <pt x="594" y="394" on="0"/>
        <pt x="611" y="276" on="0"/>
        <pt x="626" y="159" on="0"/>
        <pt x="626" y="102" on="1"/>
        <pt x="628" y="40" on="0"/>
        <pt x="608" y="-13" on="0"/>
        <pt x="578" y="-8" on="0"/>
        <pt x="541" y="48" on="0"/>
        <pt x="510" y="142" on="0"/>
        <pt x="491" y="269" on="0"/>
        <pt x="493" y="343" on="1"/>
        <pt x="132" y="343" on="1"/>
        <pt x="139" y="274" on="0"/>
        <pt x="162" y="152" on="0"/>
        <pt x="175" y="59" on="0"/>
        <pt x="172" y="4" on="0"/>
        <pt x="153" y="3" on="1"/>
        <pt x="124" y="3" on="0"/>
        <pt x="84" y="42" on="0"/>
        <pt x="55" y="110" on="0"/>
        <pt x="37" y="201" on="0"/>
        <pt x="25" y="302" on="0"/>
        <pt x="18" y="408" on="0"/>
        <pt x="12" y="506" on="0"/>
        <pt x="4" y="591" on="0"/>
      </contour>
    </TTGlyph>
    <TTGlyph name="Hbar" xMin="-2" yMin="-13" xMax="628" yMax="752">
      <contour>
        <pt x="-2" y="621" on="1"/>
        <pt x="-2" y="626" on="0"/>
        <pt x="-1" y="651" on="0"/>
        <pt x="-1" y="678" on="0"/>
        <pt x="0" y="702" on="0"/>
        <pt x="0" y="706" on="1"/>
        <pt x="25" y="733" on="0"/>
        <pt x="58" y="743" on="0"/>
        <pt x="78" y="722" on="0"/>
        <pt x="87" y="676" on="0"/>
        <pt x="89" y="647" on="1"/>
        <pt x="89" y="641" on="0"/>
        <pt x="90" y="634" on="1"/>
        <pt x="118" y="634" on="0"/>
        <pt x="154" y="636" on="1"/>
        <pt x="214" y="640" on="0"/>
        <pt x="342" y="644" on="0"/>
        <pt x="400" y="644" on="1"/>
        <pt x="449" y="645" on="0"/>
        <pt x="481" y="642" on="1"/>
        <pt x="481" y="656" on="1"/>
        <pt x="482" y="684" on="0"/>
        <pt x="499" y="726" on="0"/>
        <pt x="535" y="752" on="0"/>
        <pt x="570" y="752" on="1"/>
        <pt x="583" y="733" on="0"/>
        <pt x="589" y="688" on="0"/>
        <pt x="586" y="640" on="0"/>
        <pt x="579" y="593" on="0"/>
        <pt x="579" y="571" on="1"/>
        <pt x="579" y="512" on="0"/>
        <pt x="594" y="394" on="0"/>
        <pt x="611" y="276" on="0"/>
        <pt x="626" y="159" on="0"/>
        <pt x="626" y="102" on="1"/>
        <pt x="628" y="40" on="0"/>
        <pt x="608" y="-13" on="0"/>
        <pt x="578" y="-8" on="0"/>
        <pt x="541" y="48" on="0"/>
        <pt x="510" y="142" on="0"/>
        <pt x="491" y="269" on="0"/>
        <pt x="493" y="343" on="1"/>
        <pt x="132" y="343" on="1"/>
        <pt x="139" y="274" on="0"/>
        <pt x="162" y="152" on="0"/>
        <pt x="175" y="59" on="0"/>
        <pt x="172" y="4" on="0"/>
        <pt x="153" y="3" on="1"/>
        <pt x="124" y="3" on="0"/>
        <pt x="84" y="42" on="0"/>
        <pt x="55" y="110" on="0"/>
        <pt x="37" y="201" on="0"/>
        <pt x="25" y="302" on="0"/>
        <pt x="18" y="408" on="0"/>
        <pt x="12" y="506" on="0"/>
        <pt x="4" y="591" on="0"/>
      </contour>
      <contour>
        <pt x="92" y="526" on="1"/>
        <pt x="93" y="499" on="0"/>
        <pt x="99" y="457" on="0"/>
        <pt x="107" y="450" on="1"/>
        <pt x="450" y="450" on="1"/>
        <pt x="471" y="450" on="0"/>
        <pt x="489" y="476" on="0"/>
        <pt x="492" y="518" on="0"/>
        <pt x="489" y="545" on="1"/>
        <pt x="487" y="565" on="0"/>
        <pt x="484" y="586" on="1"/>
        <pt x="464" y="581" on="0"/>
        <pt x="443" y="578" on="1"/>
        <pt x="387" y="569" on="0"/>
        <pt x="273" y="563" on="0"/>
        <pt x="165" y="566" on="0"/>
        <pt x="121" y="565" on="1"/>
        <pt x="103" y="564" on="0"/>
        <pt x="91" y="566" on="1"/>
        <pt x="91" y="545" on="0"/>
      </contour>
    </TTGlyph>
    <TTGlyph name="Hcircumflex" xMin="-2" yMin="-13" xMax="628" yMax="1302">
      <component glyphName="H" x="0" y="0" flags="0x204"/>
      <component glyphName="circumflex" x="109" y="320" flags="0x4"/>
    </TTGlyph>
    <TTGlyph name="I" xMin="13" yMin="22" xMax="718" yMax="729">
      <contour>
        <pt x="321" y="139" on="1"/>
        <pt x="321" y="192" on="0"/>
        <pt x="295" y="316" on="0"/>
        <pt x="265" y="446" on="0"/>
        <pt x="237" y="575" on="0"/>
        <pt x="236" y="632" on="1"/>
        <pt x="13" y="632" on="1"/>
        <pt x="13" y="640" on="0"/>
        <pt x="13" y="670" on="0"/>
        <pt x="19" y="701" on="0"/>
        <pt x="31" y="726" on="0"/>
        <pt x="43" y="729" on="1"/>
        <pt x="593" y="729" on="1"/>
        <pt x="592" y="697" on="0"/>
        <pt x="568" y="663" on="0"/>
        <pt x="529" y="645" on="0"/>
        <pt x="481" y="640" on="0"/>
        <pt x="433" y="634" on="0"/>
        <pt x="387" y="625" on="0"/>
        <pt x="354" y="599" on="0"/>
        <pt x="337" y="554" on="0"/>
        <pt x="341" y="516" on="1"/>
        <pt x="341" y="495" on="0"/>
        <pt x="347" y="426" on="0"/>
        <pt x="361" y="346" on="0"/>
        <pt x="383" y="265" on="0"/>
        <pt x="416" y="198" on="0"/>
        <pt x="459" y="157" on="0"/>
        <pt x="488" y="157" on="1"/>
        <pt x="508" y="155" on="0"/>
        <pt x="571" y="158" on="0"/>
        <pt x="635" y="160" on="0"/>
        <pt x="692" y="156" on="0"/>
        <pt x="718" y="136" on="0"/>
        <pt x="704" y="97" on="0"/>
        <pt x="667" y="64" on="1"/>
        <pt x="603" y="40" on="0"/>
        <pt x="472" y="23" on="0"/>
        <pt x="340" y="22" on="0"/>
        <pt x="208" y="27" on="0"/>
        <pt x="143" y="27" on="1"/>
        <pt x="106" y="72" on="0"/>
        <pt x="92" y="120" on="0"/>
        <pt x="117" y="139" on="0"/>
        <pt x="172" y="140" on="0"/>
        <pt x="236" y="135" on="0"/>
        <pt x="300" y="132" on="0"/>
      </contour>
    </TTGlyph>
    <TTGlyph name="Iacute" xMin="13" yMin="22" xMax="718" yMax="968">
      <component glyphName="I" x="0" y="0" flags="0x204"/>
      <component glyphName="acute" x="154" y="193" flags="0x4"/>
    </TTGlyph>
    <TTGlyph name="Ibreve" xMin="13" yMin="22" xMax="718" yMax="1179">
      <component glyphName="I" x="0" y="0" flags="0x204"/>
      <component glyphName="breve" x="101" y="320" flags="0x4"/>
    </TTGlyph>
    <TTGlyph name="Icircumflex" xMin="13" yMin="22" xMax="718" yMax="1175">
      <component glyphName="I" x="0" y="0" flags="0x204"/>
      <component glyphName="circumflex" x="162" y="193" flags="0x4"/>
    </TTGlyph>
    <TTGlyph name="Idieresis" xMin="13" yMin="22" xMax="718" yMax="916">
      <component glyphName="I" x="0" y="0" flags="0x204"/>
      <component glyphName="dieresis" x="-40" y="131" flags="0x4"/>
    </TTGlyph>
    <TTGlyph name="Idotaccent" xMin="13" yMin="22" xMax="718" yMax="1017">
      <component glyphName="I" x="0" y="0" flags="0x204"/>
      <component glyphName="dotaccent" x="247" y="320" flags="0x4"/>
    </TTGlyph>
    <TTGlyph name="Igrave" xMin="13" yMin="22" xMax="718" yMax="981">
      <component glyphName="I" x="0" y="0" flags="0x204"/>
      <component glyphName="grave" x="194" y="193" flags="0x4"/>
    </TTGlyph>
    <TTGlyph name="Imacron" xMin="13" yMin="22" xMax="718" yMax="936">
      <component glyphName="I" x="0" y="0" flags="0x204"/>
      <component glyphName="macron" x="175" y="320" flags="0x4"/>
    </TTGlyph>
    <TTGlyph name="Iogonek" xMin="13" yMin="-167" xMax="718" yMax="729">
      <contour>
        <pt x="321" y="139" on="1"/>
        <pt x="321" y="192" on="0"/>
        <pt x="295" y="316" on="0"/>
        <pt x="265" y="446" on="0"/>
        <pt x="237" y="575" on="0"/>
        <pt x="236" y="632" on="1"/>
        <pt x="13" y="632" on="1"/>
        <pt x="13" y="640" on="0"/>
        <pt x="13" y="670" on="0"/>
        <pt x="19" y="701" on="0"/>
        <pt x="31" y="726" on="0"/>
        <pt x="43" y="729" on="1"/>
        <pt x="593" y="729" on="1"/>
        <pt x="592" y="697" on="0"/>
        <pt x="568" y="663" on="0"/>
        <pt x="529" y="645" on="0"/>
        <pt x="481" y="640" on="0"/>
        <pt x="433" y="634" on="0"/>
        <pt x="387" y="625" on="0"/>
        <pt x="354" y="599" on="0"/>
        <pt x="337" y="554" on="0"/>
        <pt x="341" y="516" on="1"/>
        <pt x="341" y="495" on="0"/>
        <pt x="347" y="426" on="0"/>
        <pt x="361" y="346" on="0"/>
        <pt x="383" y="265" on="0"/>
        <pt x="416" y="198" on="0"/>
        <pt x="459" y="157" on="0"/>
        <pt x="488" y="157" on="1"/>
        <pt x="508" y="155" on="0"/>
        <pt x="571" y="158" on="0"/>
        <pt x="635" y="160" on="0"/>
        <pt x="692" y="156" on="0"/>
        <pt x="718" y="136" on="0"/>
        <pt x="704" y="97" on="0"/>
        <pt x="667" y="64" on="1"/>
        <pt x="603" y="40" on="0"/>
        <pt x="537" y="31" on="1"/>
        <pt x="533" y="31" on="0"/>
        <pt x="529" y="31" on="1"/>
        <pt x="527" y="29" on="1"/>
        <pt x="511" y="13" on="0"/>
        <pt x="481" y="-23" on="0"/>
        <pt x="461" y="-57" on="0"/>
        <pt x="461" y="-66" on="1"/>
        <pt x="461" y="-80" on="0"/>
        <pt x="474" y="-97" on="0"/>
        <pt x="497" y="-104" on="0"/>
        <pt x="525" y="-96" on="0"/>
        <pt x="539" y="-86" on="1"/>
        <pt x="576" y="-59" on="0"/>
        <pt x="611" y="-50" on="0"/>
        <pt x="617" y="-68" on="0"/>
        <pt x="602" y="-104" on="0"/>
        <pt x="574" y="-140" on="0"/>
        <pt x="540" y="-167" on="0"/>
        <pt x="525" y="-167" on="1"/>
        <pt x="496" y="-167" on="0"/>
        <pt x="445" y="-153" on="0"/>
        <pt x="408" y="-127" on="0"/>
        <pt x="386" y="-88" on="0"/>
        <pt x="386" y="-64" on="1"/>
        <pt x="386" y="-44" on="0"/>
        <pt x="403" y="-3" on="0"/>
        <pt x="417" y="16" on="1"/>
        <pt x="419" y="19" on="0"/>
        <pt x="421" y="22" on="1"/>
        <pt x="406" y="22" on="1"/>
        <pt x="340" y="22" on="0"/>
        <pt x="208" y="27" on="0"/>
        <pt x="143" y="27" on="1"/>
        <pt x="106" y="72" on="0"/>
        <pt x="92" y="120" on="0"/>
        <pt x="117" y="139" on="0"/>
        <pt x="172" y="140" on="0"/>
        <pt x="236" y="135" on="0"/>
        <pt x="300" y="132" on="0"/>
      </contour>
    </TTGlyph>
    <TTGlyph name="Itilde" xMin="13" yMin="22" xMax="718" yMax="1081">
      <component glyphName="I" x="0" y="0" flags="0x204"/>
      <component glyphName="tilde" x="11" y="360" flags="0x4"/>
    </TTGlyph>
    <TTGlyph name="J" xMin="-2" yMin="-2" xMax="607" yMax="752">
      <contour>
        <pt x="191" y="65" on="1"/>
        <pt x="191" y="92" on="0"/>
        <pt x="223" y="111" on="0"/>
        <pt x="272" y="116" on="0"/>
        <pt x="328" y="117" on="0"/>
        <pt x="377" y="135" on="0"/>
        <pt x="409" y="177" on="0"/>
        <pt x="409" y="221" on="1"/>
        <pt x="409" y="346" on="0"/>
        <pt x="382" y="516" on="0"/>
        <pt x="301" y="616" on="0"/>
        <pt x="158" y="652" on="0"/>
        <pt x="43" y="643" on="1"/>
        <pt x="40" y="644" on="0"/>
        <pt x="27" y="656" on="0"/>
        <pt x="13" y="670" on="0"/>
        <pt x="2" y="683" on="0"/>
        <pt x="0" y="686" on="1"/>
        <pt x="-1" y="688" on="0"/>
        <pt x="-1" y="690" on="1"/>
        <pt x="-2" y="693" on="0"/>
        <pt x="-2" y="697" on="1"/>
        <pt x="-2" y="699" on="0"/>
        <pt x="-1" y="702" on="1"/>
        <pt x="-1" y="704" on="0"/>
        <pt x="0" y="706" on="1"/>
        <pt x="3" y="709" on="0"/>
        <pt x="14" y="717" on="0"/>
        <pt x="29" y="724" on="0"/>
        <pt x="40" y="729" on="0"/>
        <pt x="43" y="729" on="1"/>
        <pt x="62" y="730" on="0"/>
        <pt x="139" y="734" on="0"/>
        <pt x="237" y="739" on="0"/>
        <pt x="350" y="745" on="0"/>
        <pt x="463" y="750" on="0"/>
        <pt x="566" y="752" on="0"/>
        <pt x="607" y="752" on="1"/>
        <pt x="607" y="721" on="0"/>
        <pt x="583" y="688" on="0"/>
        <pt x="548" y="671" on="0"/>
        <pt x="507" y="663" on="0"/>
        <pt x="472" y="650" on="0"/>
        <pt x="448" y="623" on="0"/>
        <pt x="448" y="597" on="1"/>
        <pt x="448" y="545" on="0"/>
        <pt x="469" y="447" on="0"/>
        <pt x="495" y="350" on="0"/>
        <pt x="516" y="252" on="0"/>
        <pt x="516" y="202" on="1"/>
        <pt x="516" y="157" on="0"/>
        <pt x="476" y="83" on="0"/>
        <pt x="411" y="29" on="0"/>
        <pt x="330" y="-2" on="0"/>
        <pt x="290" y="-2" on="1"/>
        <pt x="274" y="-2" on="0"/>
        <pt x="239" y="4" on="0"/>
        <pt x="210" y="21" on="0"/>
        <pt x="191" y="46" on="0"/>
      </contour>
    </TTGlyph>
    <TTGlyph name="Jcircumflex" xMin="-2" yMin="-2" xMax="607" yMax="1302">
      <component glyphName="J" x="0" y="0" flags="0x204"/>
      <component glyphName="circumflex" x="98" y="320" flags="0x4"/>
    </TTGlyph>
    <TTGlyph name="K" xMin="18" yMin="0" xMax="688" yMax="818">
      <contour>
        <pt x="20" y="692" on="1"/>
        <pt x="20" y="711" on="0"/>
        <pt x="18" y="755" on="0"/>
        <pt x="27" y="793" on="0"/>
        <pt x="50" y="818" on="0"/>
        <pt x="76" y="818" on="1"/>
        <pt x="95" y="792" on="0"/>
        <pt x="106" y="715" on="0"/>
        <pt x="110" y="630" on="0"/>
        <pt x="115" y="546" on="0"/>
        <pt x="129" y="514" on="1"/>
        <pt x="130" y="510" on="0"/>
        <pt x="147" y="495" on="0"/>
        <pt x="150" y="493" on="1"/>
        <pt x="180" y="519" on="0"/>
        <pt x="229" y="575" on="0"/>
        <pt x="277" y="628" on="0"/>
        <pt x="325" y="676" on="0"/>
        <pt x="382" y="712" on="0"/>
        <pt x="453" y="733" on="0"/>
        <pt x="498" y="733" on="1"/>
        <pt x="498" y="709" on="0"/>
        <pt x="464" y="661" on="0"/>
        <pt x="412" y="612" on="0"/>
        <pt x="350" y="561" on="0"/>
        <pt x="292" y="508" on="0"/>
        <pt x="246" y="455" on="0"/>
        <pt x="236" y="428" on="1"/>
        <pt x="253" y="424" on="0"/>
        <pt x="332" y="393" on="0"/>
        <pt x="433" y="348" on="0"/>
        <pt x="541" y="296" on="0"/>
        <pt x="631" y="245" on="0"/>
        <pt x="688" y="200" on="0"/>
        <pt x="688" y="186" on="1"/>
        <pt x="688" y="183" on="0"/>
        <pt x="688" y="164" on="0"/>
        <pt x="685" y="144" on="0"/>
        <pt x="675" y="129" on="0"/>
        <pt x="664" y="129" on="1"/>
        <pt x="622" y="130" on="0"/>
        <pt x="548" y="159" on="0"/>
        <pt x="478" y="202" on="0"/>
        <pt x="409" y="249" on="0"/>
        <pt x="337" y="292" on="0"/>
        <pt x="260" y="319" on="0"/>
        <pt x="215" y="321" on="1"/>
        <pt x="200" y="297" on="0"/>
        <pt x="204" y="252" on="0"/>
        <pt x="227" y="207" on="0"/>
        <pt x="259" y="160" on="0"/>
        <pt x="283" y="109" on="0"/>
        <pt x="291" y="53" on="0"/>
        <pt x="278" y="22" on="1"/>
        <pt x="276" y="19" on="0"/>
        <pt x="265" y="12" on="0"/>
        <pt x="252" y="4" on="0"/>
        <pt x="238" y="0" on="0"/>
        <pt x="236" y="0" on="1"/>
        <pt x="223" y="0" on="0"/>
        <pt x="192" y="50" on="0"/>
        <pt x="157" y="136" on="0"/>
        <pt x="120" y="247" on="0"/>
        <pt x="85" y="366" on="0"/>
        <pt x="56" y="487" on="0"/>
        <pt x="33" y="592" on="0"/>
        <pt x="20" y="672" on="0"/>
      </contour>
    </TTGlyph>
    <TTGlyph name="Kcommaaccent" xMin="18" yMin="-450" xMax="688" yMax="818">
      <component glyphName="K" x="0" y="0" flags="0x204"/>
      <component glyphName="commaaccent" x="153" y="0" flags="0x4"/>
    </TTGlyph>
    <TTGlyph name="L" xMin="0" yMin="0" xMax="602" yMax="688">
      <contour>
        <pt x="0" y="656" on="1"/>
        <pt x="0" y="676" on="0"/>
        <pt x="27" y="688" on="0"/>
        <pt x="43" y="688" on="1"/>
        <pt x="46" y="688" on="0"/>
        <pt x="63" y="686" on="0"/>
        <pt x="65" y="686" on="1"/>
        <pt x="68" y="655" on="0"/>
        <pt x="74" y="568" on="0"/>
        <pt x="82" y="467" on="0"/>
        <pt x="94" y="359" on="0"/>
        <pt x="116" y="256" on="0"/>
        <pt x="148" y="163" on="0"/>
        <pt x="171" y="129" on="1"/>
        <pt x="176" y="120" on="0"/>
        <pt x="185" y="111" on="0"/>
        <pt x="194" y="106" on="0"/>
        <pt x="206" y="105" on="0"/>
        <pt x="215" y="105" on="1"/>
        <pt x="256" y="105" on="0"/>
        <pt x="331" y="133" on="0"/>
        <pt x="405" y="167" on="0"/>
        <pt x="481" y="195" on="0"/>
        <pt x="523" y="195" on="1"/>
        <pt x="532" y="195" on="0"/>
        <pt x="560" y="196" on="0"/>
        <pt x="584" y="192" on="0"/>
        <pt x="602" y="176" on="0"/>
        <pt x="602" y="160" on="1"/>
        <pt x="602" y="145" on="0"/>
        <pt x="548" y="110" on="0"/>
        <pt x="464" y="75" on="0"/>
        <pt x="365" y="41" on="0"/>
        <pt x="274" y="15" on="0"/>
        <pt x="204" y="0" on="0"/>
        <pt x="193" y="0" on="1"/>
        <pt x="157" y="0" on="0"/>
        <pt x="102" y="49" on="0"/>
        <pt x="61" y="132" on="0"/>
        <pt x="33" y="239" on="0"/>
        <pt x="15" y="355" on="0"/>
        <pt x="5" y="469" on="0"/>
        <pt x="1" y="567" on="0"/>
        <pt x="0" y="641" on="0"/>
      </contour>
    </TTGlyph>
    <TTGlyph name="Lacute" xMin="0" yMin="0" xMax="602" yMax="968">
      <component glyphName="L" x="0" y="0" flags="0x204"/>
      <component glyphName="acute" x="79" y="193" flags="0x4"/>
    </TTGlyph>
    <TTGlyph name="Lcaron" xMin="0" yMin="0" xMax="602" yMax="938">
      <contour>
        <pt x="0" y="656" on="1"/>
        <pt x="0" y="676" on="0"/>
        <pt x="27" y="688" on="0"/>
        <pt x="43" y="688" on="1"/>
        <pt x="46" y="688" on="0"/>
        <pt x="63" y="686" on="0"/>
        <pt x="65" y="686" on="1"/>
        <pt x="68" y="655" on="0"/>
        <pt x="74" y="568" on="0"/>
        <pt x="82" y="467" on="0"/>
        <pt x="94" y="359" on="0"/>
        <pt x="116" y="256" on="0"/>
        <pt x="148" y="163" on="0"/>
        <pt x="171" y="129" on="1"/>
        <pt x="176" y="120" on="0"/>
        <pt x="185" y="111" on="0"/>
        <pt x="194" y="106" on="0"/>
        <pt x="206" y="105" on="0"/>
        <pt x="215" y="105" on="1"/>
        <pt x="256" y="105" on="0"/>
        <pt x="331" y="133" on="0"/>
        <pt x="405" y="167" on="0"/>
        <pt x="481" y="195" on="0"/>
        <pt x="523" y="195" on="1"/>
        <pt x="532" y="195" on="0"/>
        <pt x="560" y="196" on="0"/>
        <pt x="584" y="192" on="0"/>
        <pt x="602" y="176" on="0"/>
        <pt x="602" y="160" on="1"/>
        <pt x="602" y="145" on="0"/>
        <pt x="548" y="110" on="0"/>
        <pt x="464" y="75" on="0"/>
        <pt x="365" y="41" on="0"/>
        <pt x="274" y="15" on="0"/>
        <pt x="204" y="0" on="0"/>
        <pt x="193" y="0" on="1"/>
        <pt x="157" y="0" on="0"/>
        <pt x="102" y="49" on="0"/>
        <pt x="61" y="132" on="0"/>
        <pt x="33" y="239" on="0"/>
        <pt x="15" y="355" on="0"/>
        <pt x="5" y="469" on="0"/>
        <pt x="1" y="567" on="0"/>
        <pt x="0" y="641" on="0"/>
      </contour>
      <contour>
        <pt x="187" y="728" on="1"/>
        <pt x="160" y="736" on="0"/>
        <pt x="108" y="790" on="0"/>
        <pt x="66" y="854" on="0"/>
        <pt x="40" y="917" on="0"/>
        <pt x="40" y="935" on="1"/>
        <pt x="69" y="935" on="0"/>
        <pt x="104" y="938" on="0"/>
        <pt x="125" y="936" on="0"/>
        <pt x="138" y="928" on="0"/>
        <pt x="151" y="904" on="0"/>
        <pt x="173" y="864" on="0"/>
        <pt x="192" y="832" on="1"/>
        <pt x="222" y="832" on="0"/>
        <pt x="254" y="853" on="0"/>
        <pt x="279" y="884" on="0"/>
        <pt x="307" y="919" on="0"/>
        <pt x="334" y="931" on="1"/>
        <pt x="337" y="931" on="1"/>
        <pt x="339" y="931" on="0"/>
        <pt x="342" y="932" on="0"/>
        <pt x="343" y="932" on="1"/>
        <pt x="344" y="932" on="0"/>
        <pt x="346" y="931" on="0"/>
        <pt x="348" y="931" on="1"/>
        <pt x="352" y="931" on="1"/>
        <pt x="355" y="930" on="0"/>
        <pt x="368" y="922" on="0"/>
        <pt x="381" y="913" on="0"/>
        <pt x="385" y="909" on="1"/>
        <pt x="390" y="904" on="1"/>
        <pt x="373" y="891" on="0"/>
        <pt x="351" y="867" on="1"/>
        <pt x="328" y="841" on="0"/>
        <pt x="272" y="787" on="0"/>
        <pt x="214" y="739" on="0"/>
      </contour>
    </TTGlyph>
    <TTGlyph name="Lcommaaccent" xMin="0" yMin="-450" xMax="602" yMax="688">
      <component glyphName="L" x="0" y="0" flags="0x204"/>
      <component glyphName="commaaccent" x="111" y="0" flags="0x4"/>
    </TTGlyph>
    <TTGlyph name="Ldot" xMin="0" yMin="0" xMax="602" yMax="688">
      <component glyphName="L" x="0" y="0" flags="0x204"/>
      <component glyphName="periodcentered" x="148" y="0" flags="0x4"/>
    </TTGlyph>
    <TTGlyph name="Lslash" xMin="-32" yMin="0" xMax="602" yMax="688">
      <contour>
        <pt x="0" y="656" on="1"/>
        <pt x="0" y="676" on="0"/>
        <pt x="27" y="688" on="0"/>
        <pt x="43" y="688" on="1"/>
        <pt x="46" y="688" on="0"/>
        <pt x="63" y="686" on="0"/>
        <pt x="65" y="686" on="1"/>
        <pt x="68" y="655" on="0"/>
        <pt x="74" y="568" on="0"/>
        <pt x="82" y="467" on="0"/>
        <pt x="88" y="413" on="1"/>
        <pt x="93" y="374" on="0"/>
        <pt x="99" y="337" on="1"/>
        <pt x="100" y="337" on="1"/>
        <pt x="139" y="351" on="0"/>
        <pt x="193" y="362" on="1"/>
        <pt x="210" y="369" on="0"/>
        <pt x="226" y="366" on="0"/>
        <pt x="235" y="346" on="1"/>
        <pt x="215" y="316" on="0"/>
        <pt x="166" y="278" on="0"/>
        <pt x="139" y="265" on="1"/>
        <pt x="129" y="260" on="0"/>
        <pt x="117" y="255" on="1"/>
        <pt x="124" y="231" on="0"/>
        <pt x="131" y="209" on="1"/>
        <pt x="148" y="163" on="0"/>
        <pt x="171" y="129" on="1"/>
        <pt x="176" y="120" on="0"/>
        <pt x="185" y="111" on="0"/>
        <pt x="194" y="106" on="0"/>
        <pt x="206" y="105" on="0"/>
        <pt x="215" y="105" on="1"/>
        <pt x="256" y="105" on="0"/>
        <pt x="331" y="133" on="0"/>
        <pt x="405" y="167" on="0"/>
        <pt x="481" y="195" on="0"/>
        <pt x="523" y="195" on="1"/>
        <pt x="532" y="195" on="0"/>
        <pt x="560" y="196" on="0"/>
        <pt x="584" y="192" on="0"/>
        <pt x="602" y="176" on="0"/>
        <pt x="602" y="160" on="1"/>
        <pt x="602" y="145" on="0"/>
        <pt x="548" y="110" on="0"/>
        <pt x="464" y="75" on="0"/>
        <pt x="365" y="41" on="0"/>
        <pt x="274" y="15" on="0"/>
        <pt x="204" y="0" on="0"/>
        <pt x="193" y="0" on="1"/>
        <pt x="157" y="0" on="0"/>
        <pt x="102" y="49" on="0"/>
        <pt x="61" y="132" on="0"/>
        <pt x="47" y="185" on="1"/>
        <pt x="37" y="224" on="1"/>
        <pt x="34" y="223" on="0"/>
        <pt x="32" y="222" on="1"/>
        <pt x="20" y="216" on="0"/>
        <pt x="2" y="215" on="0"/>
        <pt x="-12" y="222" on="0"/>
        <pt x="-23" y="236" on="0"/>
        <pt x="-26" y="245" on="1"/>
        <pt x="-27" y="247" on="0"/>
        <pt x="-31" y="264" on="0"/>
        <pt x="-32" y="265" on="1"/>
        <pt x="-23" y="272" on="0"/>
        <pt x="-6" y="283" on="1"/>
        <pt x="5" y="292" on="0"/>
        <pt x="23" y="303" on="1"/>
        <pt x="14" y="357" on="0"/>
        <pt x="10" y="411" on="1"/>
        <pt x="5" y="469" on="0"/>
        <pt x="1" y="567" on="0"/>
        <pt x="0" y="641" on="0"/>
      </contour>
    </TTGlyph>
    <TTGlyph name="M" xMin="20" yMin="-2" xMax="838" yMax="731">
      <contour>
        <pt x="20" y="428" on="1"/>
        <pt x="20" y="440" on="0"/>
        <pt x="21" y="495" on="0"/>
        <pt x="21" y="556" on="0"/>
        <pt x="22" y="610" on="0"/>
        <pt x="22" y="621" on="1"/>
        <pt x="23" y="628" on="0"/>
        <pt x="31" y="657" on="0"/>
        <pt x="42" y="685" on="0"/>
        <pt x="61" y="706" on="0"/>
        <pt x="75" y="706" on="1"/>
        <pt x="108" y="706" on="0"/>
        <pt x="166" y="670" on="0"/>
        <pt x="220" y="611" on="0"/>
        <pt x="269" y="539" on="0"/>
        <pt x="317" y="468" on="0"/>
        <pt x="363" y="405" on="0"/>
        <pt x="386" y="386" on="1"/>
        <pt x="411" y="397" on="0"/>
        <pt x="439" y="456" on="0"/>
        <pt x="457" y="533" on="0"/>
        <pt x="472" y="616" on="0"/>
        <pt x="498" y="686" on="0"/>
        <pt x="541" y="731" on="0"/>
        <pt x="579" y="731" on="1"/>
        <pt x="624" y="731" on="0"/>
        <pt x="697" y="661" on="0"/>
        <pt x="755" y="553" on="0"/>
        <pt x="796" y="421" on="0"/>
        <pt x="824" y="299" on="0"/>
        <pt x="838" y="201" on="0"/>
        <pt x="838" y="180" on="1"/>
        <pt x="838" y="171" on="0"/>
        <pt x="836" y="150" on="0"/>
        <pt x="828" y="133" on="0"/>
        <pt x="810" y="124" on="0"/>
        <pt x="793" y="129" on="1"/>
        <pt x="788" y="130" on="0"/>
        <pt x="775" y="139" on="0"/>
        <pt x="761" y="153" on="0"/>
        <pt x="751" y="166" on="0"/>
        <pt x="751" y="171" on="1"/>
        <pt x="742" y="220" on="0"/>
        <pt x="720" y="340" on="0"/>
        <pt x="687" y="463" on="0"/>
        <pt x="637" y="579" on="0"/>
        <pt x="600" y="621" on="1"/>
        <pt x="571" y="605" on="0"/>
        <pt x="538" y="540" on="0"/>
        <pt x="516" y="463" on="0"/>
        <pt x="498" y="383" on="0"/>
        <pt x="468" y="318" on="0"/>
        <pt x="422" y="276" on="0"/>
        <pt x="383" y="276" on="1"/>
        <pt x="356" y="276" on="0"/>
        <pt x="305" y="311" on="0"/>
        <pt x="257" y="368" on="0"/>
        <pt x="212" y="437" on="0"/>
        <pt x="169" y="504" on="0"/>
        <pt x="128" y="562" on="0"/>
        <pt x="107" y="579" on="1"/>
        <pt x="99" y="548" on="0"/>
        <pt x="90" y="501" on="0"/>
        <pt x="85" y="457" on="0"/>
        <pt x="84" y="411" on="0"/>
        <pt x="84" y="383" on="1"/>
        <pt x="84" y="341" on="0"/>
        <pt x="98" y="258" on="0"/>
        <pt x="114" y="176" on="0"/>
        <pt x="129" y="93" on="0"/>
        <pt x="129" y="51" on="1"/>
        <pt x="129" y="43" on="1"/>
        <pt x="127" y="40" on="0"/>
        <pt x="115" y="27" on="0"/>
        <pt x="102" y="13" on="0"/>
        <pt x="88" y="2" on="0"/>
        <pt x="85" y="0" on="1"/>
        <pt x="84" y="-1" on="0"/>
        <pt x="81" y="-1" on="1"/>
        <pt x="78" y="-2" on="0"/>
        <pt x="75" y="-2" on="1"/>
        <pt x="73" y="-2" on="0"/>
        <pt x="67" y="0" on="0"/>
        <pt x="65" y="0" on="1"/>
        <pt x="58" y="58" on="0"/>
        <pt x="42" y="162" on="0"/>
        <pt x="29" y="264" on="0"/>
        <pt x="20" y="368" on="0"/>
      </contour>
    </TTGlyph>
    <TTGlyph name="N" xMin="0" yMin="20" xMax="664" yMax="842">
      <contour>
        <pt x="65" y="43" on="1"/>
        <pt x="61" y="59" on="0"/>
        <pt x="48" y="119" on="0"/>
        <pt x="33" y="191" on="0"/>
        <pt x="19" y="270" on="0"/>
        <pt x="7" y="345" on="0"/>
        <pt x="0" y="408" on="0"/>
        <pt x="0" y="428" on="1"/>
        <pt x="0" y="437" on="0"/>
        <pt x="4" y="481" on="0"/>
        <pt x="12" y="529" on="0"/>
        <pt x="19" y="571" on="0"/>
        <pt x="22" y="579" on="1"/>
        <pt x="25" y="580" on="0"/>
        <pt x="40" y="580" on="0"/>
        <pt x="57" y="582" on="0"/>
        <pt x="72" y="583" on="0"/>
        <pt x="75" y="583" on="1"/>
        <pt x="123" y="583" on="0"/>
        <pt x="209" y="545" on="0"/>
        <pt x="287" y="487" on="0"/>
        <pt x="361" y="415" on="0"/>
        <pt x="436" y="347" on="0"/>
        <pt x="514" y="292" on="0"/>
        <pt x="558" y="278" on="1"/>
        <pt x="558" y="283" on="0"/>
        <pt x="559" y="304" on="0"/>
        <pt x="559" y="328" on="0"/>
        <pt x="560" y="349" on="0"/>
        <pt x="560" y="354" on="1"/>
        <pt x="560" y="417" on="0"/>
        <pt x="544" y="537" on="0"/>
        <pt x="524" y="657" on="0"/>
        <pt x="508" y="778" on="0"/>
        <pt x="508" y="842" on="1"/>
        <pt x="515" y="842" on="0"/>
        <pt x="536" y="841" on="0"/>
        <pt x="558" y="836" on="0"/>
        <pt x="576" y="825" on="0"/>
        <pt x="579" y="814" on="1"/>
        <pt x="583" y="742" on="0"/>
        <pt x="611" y="597" on="0"/>
        <pt x="641" y="452" on="0"/>
        <pt x="664" y="307" on="0"/>
        <pt x="664" y="236" on="1"/>
        <pt x="664" y="223" on="0"/>
        <pt x="663" y="193" on="0"/>
        <pt x="656" y="166" on="0"/>
        <pt x="640" y="148" on="0"/>
        <pt x="624" y="148" on="1"/>
        <pt x="572" y="148" on="0"/>
        <pt x="484" y="195" on="0"/>
        <pt x="401" y="265" on="0"/>
        <pt x="322" y="349" on="0"/>
        <pt x="239" y="419" on="0"/>
        <pt x="150" y="467" on="0"/>
        <pt x="99" y="467" on="1"/>
        <pt x="99" y="411" on="0"/>
        <pt x="115" y="308" on="0"/>
        <pt x="134" y="206" on="0"/>
        <pt x="150" y="105" on="0"/>
        <pt x="150" y="53" on="1"/>
        <pt x="150" y="34" on="0"/>
        <pt x="123" y="20" on="0"/>
        <pt x="107" y="20" on="1"/>
        <pt x="94" y="20" on="0"/>
        <pt x="71" y="25" on="0"/>
      </contour>
    </TTGlyph>
    <TTGlyph name="Nacute" xMin="0" yMin="20" xMax="664" yMax="968">
      <component glyphName="N" x="0" y="0" flags="0x204"/>
      <component glyphName="acute" x="112" y="193" flags="0x4"/>
    </TTGlyph>
    <TTGlyph name="Ncaron" xMin="0" yMin="20" xMax="664" yMax="1057">
      <component glyphName="N" x="0" y="0" flags="0x204"/>
      <component glyphName="caron" x="130" y="193" flags="0x4"/>
    </TTGlyph>
    <TTGlyph name="Ncommaaccent" xMin="0" yMin="-450" xMax="664" yMax="842">
      <component glyphName="N" x="0" y="0" flags="0x204"/>
      <component glyphName="commaaccent" x="143" y="0" flags="0x4"/>
    </TTGlyph>
    <TTGlyph name="Ntilde" xMin="-4" yMin="-29" xMax="661" yMax="1112">
      <component glyphName="N" x="-3" y="-49" flags="0x204"/>
      <component glyphName="tilde" x="-38" y="391" flags="0x4"/>
    </TTGlyph>
    <TTGlyph name="O" xMin="0" yMin="-2" xMax="602" yMax="709">
      <contour>
        <pt x="0" y="278" on="1"/>
        <pt x="0" y="329" on="0"/>
        <pt x="27" y="434" on="0"/>
        <pt x="76" y="530" on="0"/>
        <pt x="146" y="613" on="0"/>
        <pt x="231" y="674" on="0"/>
        <pt x="331" y="709" on="0"/>
        <pt x="386" y="709" on="1"/>
        <pt x="441" y="709" on="0"/>
        <pt x="522" y="666" on="0"/>
        <pt x="576" y="594" on="0"/>
        <pt x="602" y="501" on="0"/>
        <pt x="602" y="453" on="1"/>
        <pt x="602" y="369" on="0"/>
        <pt x="552" y="206" on="0"/>
        <pt x="454" y="77" on="0"/>
        <pt x="309" y="-2" on="0"/>
        <pt x="215" y="-2" on="1"/>
        <pt x="159" y="-2" on="0"/>
        <pt x="78" y="49" on="0"/>
        <pt x="25" y="130" on="0"/>
        <pt x="0" y="229" on="0"/>
      </contour>
      <contour>
        <pt x="85" y="256" on="1"/>
        <pt x="85" y="229" on="0"/>
        <pt x="103" y="169" on="0"/>
        <pt x="135" y="119" on="0"/>
        <pt x="184" y="85" on="0"/>
        <pt x="215" y="85" on="1"/>
        <pt x="282" y="85" on="0"/>
        <pt x="392" y="146" on="0"/>
        <pt x="472" y="243" on="0"/>
        <pt x="516" y="363" on="0"/>
        <pt x="516" y="422" on="1"/>
        <pt x="516" y="456" on="0"/>
        <pt x="512" y="528" on="0"/>
        <pt x="490" y="587" on="0"/>
        <pt x="443" y="624" on="0"/>
        <pt x="399" y="624" on="1"/>
        <pt x="385" y="624" on="0"/>
        <pt x="338" y="622" on="0"/>
        <pt x="292" y="613" on="0"/>
        <pt x="257" y="595" on="0"/>
        <pt x="257" y="579" on="1"/>
        <pt x="257" y="577" on="0"/>
        <pt x="264" y="564" on="0"/>
        <pt x="272" y="550" on="0"/>
        <pt x="278" y="537" on="0"/>
        <pt x="278" y="535" on="1"/>
        <pt x="278" y="533" on="0"/>
        <pt x="262" y="516" on="0"/>
        <pt x="257" y="514" on="1"/>
        <pt x="207" y="501" on="0"/>
        <pt x="140" y="462" on="0"/>
        <pt x="101" y="400" on="0"/>
        <pt x="85" y="314" on="0"/>
      </contour>
    </TTGlyph>
    <TTGlyph name="OE" xMin="31" yMin="-41" xMax="1042" yMax="815">
      <contour>
        <pt x="31" y="261" on="1"/>
        <pt x="31" y="363" on="0"/>
        <pt x="63" y="515" on="0"/>
        <pt x="118" y="624" on="0"/>
        <pt x="189" y="696" on="0"/>
        <pt x="267" y="740" on="0"/>
        <pt x="346" y="760" on="0"/>
        <pt x="416" y="767" on="0"/>
        <pt x="471" y="764" on="0"/>
        <pt x="486" y="763" on="1"/>
        <pt x="484" y="765" on="0"/>
        <pt x="481" y="768" on="0"/>
        <pt x="479" y="769" on="1"/>
        <pt x="479" y="778" on="1"/>
        <pt x="481" y="792" on="0"/>
        <pt x="507" y="807" on="0"/>
        <pt x="537" y="814" on="0"/>
        <pt x="567" y="815" on="0"/>
        <pt x="575" y="815" on="1"/>
        <pt x="577" y="815" on="0"/>
        <pt x="579" y="814" on="1"/>
        <pt x="582" y="813" on="0"/>
        <pt x="586" y="813" on="1"/>
        <pt x="587" y="813" on="0"/>
        <pt x="590" y="812" on="0"/>
        <pt x="592" y="812" on="1"/>
        <pt x="595" y="811" on="0"/>
        <pt x="597" y="811" on="1"/>
        <pt x="620" y="804" on="0"/>
        <pt x="691" y="781" on="0"/>
        <pt x="770" y="756" on="0"/>
        <pt x="851" y="731" on="0"/>
        <pt x="918" y="709" on="0"/>
        <pt x="962" y="695" on="0"/>
        <pt x="967" y="694" on="1"/>
        <pt x="975" y="692" on="0"/>
        <pt x="998" y="681" on="0"/>
        <pt x="1021" y="666" on="0"/>
        <pt x="1039" y="646" on="0"/>
        <pt x="1042" y="635" on="1"/>
        <pt x="1031" y="621" on="0"/>
        <pt x="1015" y="607" on="0"/>
        <pt x="1002" y="601" on="0"/>
        <pt x="985" y="603" on="0"/>
        <pt x="975" y="605" on="1"/>
        <pt x="933" y="613" on="0"/>
        <pt x="852" y="635" on="0"/>
        <pt x="811" y="647" on="1"/>
        <pt x="729" y="670" on="1"/>
        <pt x="688" y="682" on="0"/>
        <pt x="646" y="690" on="1"/>
        <pt x="643" y="671" on="0"/>
        <pt x="620" y="604" on="0"/>
        <pt x="600" y="526" on="0"/>
        <pt x="593" y="446" on="0"/>
        <pt x="606" y="417" on="1"/>
        <pt x="625" y="423" on="0"/>
        <pt x="662" y="426" on="0"/>
        <pt x="700" y="422" on="0"/>
        <pt x="738" y="414" on="0"/>
        <pt x="757" y="410" on="1"/>
        <pt x="799" y="401" on="1"/>
        <pt x="825" y="396" on="0"/>
        <pt x="870" y="375" on="0"/>
        <pt x="898" y="340" on="0"/>
        <pt x="893" y="313" on="1"/>
        <pt x="888" y="293" on="0"/>
        <pt x="869" y="276" on="0"/>
        <pt x="841" y="282" on="1"/>
        <pt x="838" y="283" on="0"/>
        <pt x="822" y="292" on="0"/>
        <pt x="802" y="305" on="0"/>
        <pt x="785" y="315" on="0"/>
        <pt x="782" y="315" on="1"/>
        <pt x="729" y="328" on="1"/>
        <pt x="706" y="333" on="0"/>
        <pt x="663" y="335" on="0"/>
        <pt x="628" y="323" on="0"/>
        <pt x="604" y="293" on="0"/>
        <pt x="598" y="266" on="1"/>
        <pt x="593" y="239" on="1"/>
        <pt x="589" y="221" on="0"/>
        <pt x="583" y="178" on="0"/>
        <pt x="581" y="132" on="0"/>
        <pt x="589" y="94" on="0"/>
        <pt x="606" y="66" on="0"/>
        <pt x="623" y="63" on="1"/>
        <pt x="625" y="62" on="0"/>
        <pt x="643" y="61" on="0"/>
        <pt x="644" y="61" on="1"/>
        <pt x="680" y="76" on="0"/>
        <pt x="763" y="102" on="0"/>
        <pt x="850" y="115" on="0"/>
        <pt x="939" y="116" on="0"/>
        <pt x="981" y="108" on="1"/>
        <pt x="958" y="51" on="1"/>
        <pt x="958" y="47" on="0"/>
        <pt x="913" y="28" on="0"/>
        <pt x="841" y="6" on="0"/>
        <pt x="755" y="-17" on="0"/>
        <pt x="670" y="-33" on="0"/>
        <pt x="594" y="-41" on="0"/>
        <pt x="571" y="-36" on="1"/>
        <pt x="549" y="-32" on="0"/>
        <pt x="518" y="0" on="0"/>
        <pt x="507" y="23" on="1"/>
        <pt x="481" y="11" on="0"/>
        <pt x="414" y="-5" on="0"/>
        <pt x="343" y="-15" on="0"/>
        <pt x="274" y="-20" on="0"/>
        <pt x="245" y="-20" on="1"/>
        <pt x="189" y="-20" on="0"/>
        <pt x="109" y="31" on="0"/>
        <pt x="56" y="112" on="0"/>
        <pt x="31" y="211" on="0"/>
      </contour>
      <contour>
        <pt x="245" y="68" on="1"/>
        <pt x="270" y="68" on="0"/>
        <pt x="333" y="75" on="0"/>
        <pt x="397" y="88" on="0"/>
        <pt x="458" y="108" on="0"/>
        <pt x="483" y="122" on="1"/>
        <pt x="478" y="173" on="0"/>
        <pt x="480" y="293" on="0"/>
        <pt x="490" y="417" on="0"/>
        <pt x="507" y="536" on="0"/>
        <pt x="522" y="638" on="0"/>
        <pt x="535" y="714" on="0"/>
        <pt x="537" y="732" on="1"/>
        <pt x="510" y="678" on="1"/>
        <pt x="468" y="678" on="0"/>
        <pt x="377" y="650" on="0"/>
        <pt x="290" y="596" on="0"/>
        <pt x="211" y="519" on="0"/>
        <pt x="151" y="421" on="0"/>
        <pt x="116" y="304" on="0"/>
        <pt x="116" y="238" on="1"/>
        <pt x="116" y="211" on="0"/>
        <pt x="133" y="151" on="0"/>
        <pt x="166" y="102" on="0"/>
        <pt x="213" y="68" on="0"/>
      </contour>
    </TTGlyph>
    <TTGlyph name="Oacute" xMin="0" yMin="-2" xMax="602" yMax="968">
      <component glyphName="O" x="0" y="0" flags="0x204"/>
      <component glyphName="acute" x="90" y="193" flags="0x4"/>
    </TTGlyph>
    <TTGlyph name="Obreve" xMin="0" yMin="-2" xMax="602" yMax="1179">
      <component glyphName="O" x="0" y="0" flags="0x204"/>
      <component glyphName="breve" x="37" y="320" flags="0x4"/>
    </TTGlyph>
    <TTGlyph name="Ocircumflex" xMin="0" yMin="-2" xMax="602" yMax="1175">
      <component glyphName="O" x="0" y="0" flags="0x204"/>
      <component glyphName="circumflex" x="99" y="193" flags="0x4"/>
    </TTGlyph>
    <TTGlyph name="Odieresis" xMin="0" yMin="-2" xMax="602" yMax="978">
      <component glyphName="O" x="0" y="0" flags="0x204"/>
      <component glyphName="dieresis" x="-19" y="193" flags="0x4"/>
    </TTGlyph>
    <TTGlyph name="Ograve" xMin="0" yMin="-2" xMax="602" yMax="981">
      <component glyphName="O" x="0" y="0" flags="0x204"/>
      <component glyphName="grave" x="130" y="193" flags="0x4"/>
    </TTGlyph>
    <TTGlyph name="Ohungarumlaut" xMin="0" yMin="-2" xMax="602" yMax="1107">
      <component glyphName="O" x="0" y="0" flags="0x204"/>
      <component glyphName="hungarumlaut" x="152" y="320" flags="0x4"/>
    </TTGlyph>
    <TTGlyph name="Omacron" xMin="0" yMin="-2" xMax="602" yMax="936">
      <component glyphName="O" x="0" y="0" flags="0x204"/>
      <component glyphName="macron" x="111" y="320" flags="0x4"/>
    </TTGlyph>
    <TTGlyph name="Oslash" xMin="0" yMin="-41" xMax="602" yMax="768">
      <contour>
        <pt x="0" y="278" on="1"/>
        <pt x="0" y="329" on="0"/>
        <pt x="27" y="434" on="0"/>
        <pt x="76" y="530" on="0"/>
        <pt x="146" y="613" on="0"/>
        <pt x="231" y="674" on="0"/>
        <pt x="331" y="709" on="0"/>
        <pt x="386" y="709" on="1"/>
        <pt x="391" y="709" on="1"/>
        <pt x="404" y="726" on="0"/>
        <pt x="418" y="739" on="1"/>
        <pt x="451" y="768" on="0"/>
        <pt x="489" y="753" on="1"/>
        <pt x="482" y="721" on="0"/>
        <pt x="475" y="690" on="1"/>
        <pt x="478" y="688" on="0"/>
        <pt x="481" y="688" on="1"/>
        <pt x="522" y="666" on="0"/>
        <pt x="576" y="594" on="0"/>
        <pt x="602" y="501" on="0"/>
        <pt x="602" y="453" on="1"/>
        <pt x="602" y="369" on="0"/>
        <pt x="552" y="206" on="0"/>
        <pt x="454" y="77" on="0"/>
        <pt x="381" y="38" on="1"/>
        <pt x="330" y="10" on="0"/>
        <pt x="270" y="2" on="1"/>
        <pt x="266" y="-30" on="0"/>
        <pt x="256" y="-35" on="1"/>
        <pt x="244" y="-41" on="0"/>
        <pt x="229" y="-36" on="1"/>
        <pt x="217" y="-32" on="0"/>
        <pt x="208" y="-24" on="1"/>
        <pt x="200" y="-18" on="0"/>
        <pt x="197" y="-1" on="1"/>
        <pt x="152" y="2" on="0"/>
        <pt x="119" y="23" on="1"/>
        <pt x="78" y="49" on="0"/>
        <pt x="25" y="130" on="0"/>
        <pt x="0" y="229" on="0"/>
      </contour>
      <contour>
        <pt x="85" y="256" on="1"/>
        <pt x="85" y="229" on="0"/>
        <pt x="103" y="169" on="0"/>
        <pt x="135" y="119" on="0"/>
        <pt x="159" y="102" on="1"/>
        <pt x="181" y="86" on="0"/>
        <pt x="209" y="85" on="1"/>
        <pt x="213" y="110" on="0"/>
        <pt x="220" y="153" on="0"/>
        <pt x="221" y="162" on="1"/>
        <pt x="228" y="196" on="0"/>
        <pt x="251" y="319" on="0"/>
        <pt x="286" y="460" on="0"/>
        <pt x="309" y="531" on="1"/>
        <pt x="324" y="580" on="0"/>
        <pt x="342" y="621" on="1"/>
        <pt x="328" y="620" on="0"/>
        <pt x="315" y="617" on="1"/>
        <pt x="292" y="613" on="0"/>
        <pt x="257" y="595" on="0"/>
        <pt x="257" y="579" on="1"/>
        <pt x="257" y="577" on="0"/>
        <pt x="264" y="564" on="0"/>
        <pt x="272" y="550" on="0"/>
        <pt x="278" y="537" on="0"/>
        <pt x="278" y="535" on="1"/>
        <pt x="278" y="533" on="0"/>
        <pt x="262" y="516" on="0"/>
        <pt x="257" y="514" on="1"/>
        <pt x="207" y="501" on="0"/>
        <pt x="140" y="462" on="0"/>
        <pt x="101" y="400" on="0"/>
        <pt x="85" y="314" on="0"/>
      </contour>
      <contour>
        <pt x="337" y="115" on="1"/>
        <pt x="392" y="146" on="0"/>
        <pt x="472" y="243" on="0"/>
        <pt x="516" y="363" on="0"/>
        <pt x="516" y="422" on="1"/>
        <pt x="516" y="456" on="0"/>
        <pt x="512" y="528" on="0"/>
        <pt x="490" y="587" on="0"/>
        <pt x="466" y="605" on="1"/>
        <pt x="461" y="609" on="0"/>
        <pt x="454" y="612" on="1"/>
        <pt x="437" y="555" on="0"/>
        <pt x="418" y="501" on="1"/>
        <pt x="398" y="443" on="0"/>
        <pt x="355" y="328" on="0"/>
        <pt x="314" y="208" on="0"/>
        <pt x="297" y="143" on="1"/>
        <pt x="292" y="120" on="0"/>
        <pt x="285" y="94" on="1"/>
        <pt x="312" y="102" on="0"/>
      </contour>
    </TTGlyph>
    <TTGlyph name="Oslashacute" xMin="0" yMin="-2" xMax="602" yMax="1095">
      <contour>
        <pt x="0" y="278" on="1"/>
        <pt x="0" y="329" on="0"/>
        <pt x="27" y="434" on="0"/>
        <pt x="76" y="530" on="0"/>
        <pt x="146" y="613" on="0"/>
        <pt x="231" y="674" on="0"/>
        <pt x="331" y="709" on="0"/>
        <pt x="386" y="709" on="1"/>
        <pt x="431" y="709" on="0"/>
        <pt x="466" y="694" on="1"/>
        <pt x="491" y="701" on="0"/>
        <pt x="518" y="694" on="1"/>
        <pt x="515" y="680" on="0"/>
        <pt x="512" y="667" on="1"/>
        <pt x="533" y="651" on="0"/>
        <pt x="549" y="630" on="1"/>
        <pt x="576" y="594" on="0"/>
        <pt x="602" y="501" on="0"/>
        <pt x="602" y="453" on="1"/>
        <pt x="602" y="369" on="0"/>
        <pt x="552" y="206" on="0"/>
        <pt x="454" y="77" on="0"/>
        <pt x="309" y="-2" on="0"/>
        <pt x="215" y="-2" on="1"/>
        <pt x="159" y="-2" on="0"/>
        <pt x="78" y="49" on="0"/>
        <pt x="25" y="130" on="0"/>
        <pt x="0" y="229" on="0"/>
      </contour>
      <contour>
        <pt x="85" y="256" on="1"/>
        <pt x="85" y="229" on="0"/>
        <pt x="103" y="169" on="0"/>
        <pt x="135" y="119" on="0"/>
        <pt x="159" y="102" on="1"/>
        <pt x="173" y="93" on="0"/>
        <pt x="188" y="88" on="1"/>
        <pt x="192" y="103" on="0"/>
        <pt x="195" y="118" on="1"/>
        <pt x="200" y="139" on="0"/>
        <pt x="208" y="177" on="0"/>
        <pt x="210" y="185" on="1"/>
        <pt x="217" y="215" on="0"/>
        <pt x="244" y="320" on="0"/>
        <pt x="283" y="442" on="0"/>
        <pt x="337" y="563" on="0"/>
        <pt x="368" y="610" on="1"/>
        <pt x="377" y="623" on="1"/>
        <pt x="362" y="623" on="1"/>
        <pt x="338" y="622" on="0"/>
        <pt x="292" y="613" on="0"/>
        <pt x="257" y="595" on="0"/>
        <pt x="257" y="579" on="1"/>
        <pt x="257" y="577" on="0"/>
        <pt x="264" y="564" on="0"/>
        <pt x="272" y="550" on="0"/>
        <pt x="278" y="537" on="0"/>
        <pt x="278" y="535" on="1"/>
        <pt x="278" y="533" on="0"/>
        <pt x="262" y="516" on="0"/>
        <pt x="257" y="514" on="1"/>
        <pt x="207" y="501" on="0"/>
        <pt x="140" y="462" on="0"/>
        <pt x="101" y="400" on="0"/>
        <pt x="85" y="314" on="0"/>
      </contour>
      <contour>
        <pt x="337" y="115" on="1"/>
        <pt x="392" y="146" on="0"/>
        <pt x="472" y="243" on="0"/>
        <pt x="516" y="363" on="0"/>
        <pt x="516" y="422" on="1"/>
        <pt x="516" y="456" on="0"/>
        <pt x="512" y="528" on="0"/>
        <pt x="501" y="557" on="1"/>
        <pt x="495" y="573" on="0"/>
        <pt x="485" y="586" on="1"/>
        <pt x="483" y="580" on="1"/>
        <pt x="462" y="527" on="0"/>
        <pt x="414" y="427" on="0"/>
        <pt x="364" y="328" on="0"/>
        <pt x="317" y="224" on="0"/>
        <pt x="298" y="168" on="1"/>
        <pt x="285" y="131" on="0"/>
        <pt x="275" y="92" on="1"/>
        <pt x="308" y="100" on="0"/>
      </contour>
      <contour>
        <pt x="409" y="1060" on="1"/>
        <pt x="301" y="900" on="1"/>
        <pt x="289" y="886" on="0"/>
        <pt x="265" y="890" on="0"/>
        <pt x="252" y="909" on="0"/>
        <pt x="251" y="939" on="0"/>
        <pt x="262" y="952" on="1"/>
        <pt x="265" y="956" on="0"/>
        <pt x="272" y="967" on="0"/>
        <pt x="273" y="968" on="1"/>
        <pt x="283" y="985" on="0"/>
        <pt x="309" y="1024" on="0"/>
        <pt x="337" y="1059" on="0"/>
        <pt x="364" y="1086" on="0"/>
        <pt x="388" y="1095" on="0"/>
        <pt x="405" y="1083" on="0"/>
      </contour>
    </TTGlyph>
    <TTGlyph name="Otilde" xMin="0" yMin="-2" xMax="614" yMax="1060">
      <component glyphName="O" x="0" y="0" flags="0x204"/>
      <component glyphName="tilde" x="14" y="339" flags="0x4"/>
    </TTGlyph>
    <TTGlyph name="P" xMin="10" yMin="13" xMax="472" yMax="903">
      <contour>
        <pt x="10" y="790" on="1"/>
        <pt x="10" y="821" on="0"/>
        <pt x="33" y="861" on="0"/>
        <pt x="73" y="886" on="0"/>
        <pt x="122" y="898" on="0"/>
        <pt x="175" y="903" on="0"/>
        <pt x="225" y="902" on="0"/>
        <pt x="246" y="902" on="1"/>
        <pt x="287" y="902" on="0"/>
        <pt x="369" y="886" on="0"/>
        <pt x="432" y="846" on="0"/>
        <pt x="472" y="779" on="0"/>
        <pt x="472" y="729" on="1"/>
        <pt x="472" y="685" on="0"/>
        <pt x="437" y="598" on="0"/>
        <pt x="382" y="519" on="0"/>
        <pt x="312" y="454" on="0"/>
        <pt x="243" y="408" on="0"/>
        <pt x="180" y="382" on="0"/>
        <pt x="159" y="385" on="1"/>
        <pt x="147" y="346" on="0"/>
        <pt x="142" y="257" on="0"/>
        <pt x="144" y="172" on="0"/>
        <pt x="148" y="95" on="0"/>
        <pt x="137" y="40" on="0"/>
        <pt x="107" y="13" on="0"/>
        <pt x="76" y="18" on="1"/>
        <pt x="67" y="89" on="0"/>
        <pt x="58" y="235" on="0"/>
        <pt x="52" y="379" on="0"/>
        <pt x="47" y="516" on="0"/>
        <pt x="38" y="640" on="0"/>
        <pt x="22" y="748" on="0"/>
      </contour>
      <contour>
        <pt x="257" y="816" on="1"/>
        <pt x="242" y="816" on="0"/>
        <pt x="198" y="814" on="0"/>
        <pt x="157" y="803" on="0"/>
        <pt x="129" y="776" on="0"/>
        <pt x="129" y="751" on="1"/>
        <pt x="129" y="489" on="1"/>
        <pt x="170" y="489" on="0"/>
        <pt x="262" y="533" on="0"/>
        <pt x="338" y="601" on="0"/>
        <pt x="388" y="687" on="0"/>
        <pt x="388" y="729" on="1"/>
        <pt x="388" y="760" on="0"/>
        <pt x="365" y="794" on="0"/>
        <pt x="328" y="812" on="0"/>
        <pt x="282" y="816" on="0"/>
      </contour>
    </TTGlyph>
    <TTGlyph name="Q" xMin="20" yMin="0" xMax="773" yMax="946">
      <contour>
        <pt x="568" y="171" on="1"/>
        <pt x="528" y="171" on="0"/>
        <pt x="451" y="144" on="0"/>
        <pt x="373" y="111" on="0"/>
        <pt x="292" y="84" on="0"/>
        <pt x="248" y="84" on="1"/>
        <pt x="189" y="84" on="0"/>
        <pt x="103" y="130" on="0"/>
        <pt x="47" y="207" on="0"/>
        <pt x="20" y="310" on="0"/>
        <pt x="20" y="367" on="1"/>
        <pt x="20" y="423" on="0"/>
        <pt x="42" y="552" on="0"/>
        <pt x="88" y="680" on="0"/>
        <pt x="157" y="799" on="0"/>
        <pt x="249" y="891" on="0"/>
        <pt x="364" y="946" on="0"/>
        <pt x="433" y="946" on="1"/>
        <pt x="481" y="946" on="0"/>
        <pt x="562" y="912" on="0"/>
        <pt x="628" y="853" on="0"/>
        <pt x="678" y="776" on="0"/>
        <pt x="711" y="689" on="0"/>
        <pt x="728" y="599" on="0"/>
        <pt x="728" y="558" on="1"/>
        <pt x="728" y="517" on="0"/>
        <pt x="701" y="436" on="0"/>
        <pt x="670" y="359" on="0"/>
        <pt x="643" y="283" on="0"/>
        <pt x="643" y="246" on="1"/>
        <pt x="643" y="236" on="1"/>
        <pt x="654" y="223" on="0"/>
        <pt x="697" y="179" on="0"/>
        <pt x="741" y="126" on="0"/>
        <pt x="773" y="67" on="0"/>
        <pt x="773" y="40" on="1"/>
        <pt x="773" y="21" on="0"/>
        <pt x="759" y="0" on="0"/>
        <pt x="728" y="0" on="1"/>
        <pt x="706" y="22" on="1"/>
        <pt x="699" y="30" on="0"/>
        <pt x="663" y="72" on="0"/>
        <pt x="623" y="120" on="0"/>
        <pt x="586" y="162" on="0"/>
        <pt x="579" y="171" on="1"/>
      </contour>
      <contour>
        <pt x="105" y="362" on="1"/>
        <pt x="105" y="320" on="0"/>
        <pt x="118" y="249" on="0"/>
        <pt x="151" y="198" on="0"/>
        <pt x="211" y="169" on="0"/>
        <pt x="257" y="169" on="1"/>
        <pt x="269" y="169" on="0"/>
        <pt x="314" y="173" on="0"/>
        <pt x="367" y="182" on="0"/>
        <pt x="422" y="196" on="0"/>
        <pt x="466" y="219" on="0"/>
        <pt x="495" y="248" on="0"/>
        <pt x="495" y="268" on="1"/>
        <pt x="495" y="274" on="0"/>
        <pt x="478" y="301" on="0"/>
        <pt x="451" y="339" on="0"/>
        <pt x="419" y="382" on="0"/>
        <pt x="390" y="425" on="0"/>
        <pt x="367" y="460" on="0"/>
        <pt x="364" y="472" on="1"/>
        <pt x="371" y="490" on="0"/>
        <pt x="394" y="495" on="0"/>
        <pt x="408" y="495" on="1"/>
        <pt x="427" y="495" on="0"/>
        <pt x="455" y="472" on="0"/>
        <pt x="478" y="438" on="0"/>
        <pt x="499" y="398" on="0"/>
        <pt x="522" y="364" on="0"/>
        <pt x="549" y="341" on="0"/>
        <pt x="568" y="341" on="1"/>
        <pt x="587" y="341" on="0"/>
        <pt x="614" y="370" on="0"/>
        <pt x="631" y="414" on="0"/>
        <pt x="640" y="468" on="0"/>
        <pt x="644" y="518" on="0"/>
        <pt x="645" y="559" on="0"/>
        <pt x="645" y="568" on="1"/>
        <pt x="645" y="619" on="0"/>
        <pt x="624" y="723" on="0"/>
        <pt x="573" y="806" on="0"/>
        <pt x="490" y="859" on="0"/>
        <pt x="428" y="859" on="1"/>
        <pt x="381" y="859" on="0"/>
        <pt x="295" y="810" on="0"/>
        <pt x="223" y="729" on="0"/>
        <pt x="166" y="625" on="0"/>
        <pt x="126" y="514" on="0"/>
        <pt x="105" y="406" on="0"/>
      </contour>
    </TTGlyph>
    <TTGlyph name="R" xMin="-2" yMin="0" xMax="686" yMax="883">
      <contour>
        <pt x="-2" y="706" on="1"/>
        <pt x="-2" y="714" on="0"/>
        <pt x="-1" y="751" on="0"/>
        <pt x="-1" y="792" on="0"/>
        <pt x="0" y="829" on="0"/>
        <pt x="0" y="836" on="1"/>
        <pt x="11" y="857" on="0"/>
        <pt x="58" y="876" on="0"/>
        <pt x="113" y="883" on="0"/>
        <pt x="166" y="881" on="0"/>
        <pt x="183" y="881" on="1"/>
        <pt x="205" y="881" on="0"/>
        <pt x="264" y="877" on="0"/>
        <pt x="323" y="866" on="0"/>
        <pt x="381" y="845" on="0"/>
        <pt x="426" y="812" on="0"/>
        <pt x="453" y="765" on="0"/>
        <pt x="453" y="733" on="1"/>
        <pt x="453" y="695" on="0"/>
        <pt x="417" y="634" on="0"/>
        <pt x="364" y="581" on="0"/>
        <pt x="301" y="535" on="0"/>
        <pt x="248" y="491" on="0"/>
        <pt x="212" y="445" on="0"/>
        <pt x="212" y="418" on="1"/>
        <pt x="212" y="416" on="0"/>
        <pt x="215" y="409" on="0"/>
        <pt x="215" y="408" on="1"/>
        <pt x="333" y="373" on="0"/>
        <pt x="556" y="273" on="0"/>
        <pt x="664" y="215" on="1"/>
        <pt x="667" y="213" on="0"/>
        <pt x="674" y="202" on="0"/>
        <pt x="680" y="187" on="0"/>
        <pt x="686" y="175" on="0"/>
        <pt x="686" y="171" on="1"/>
        <pt x="686" y="162" on="0"/>
        <pt x="676" y="153" on="0"/>
        <pt x="662" y="148" on="0"/>
        <pt x="648" y="148" on="0"/>
        <pt x="643" y="148" on="1"/>
        <pt x="589" y="148" on="0"/>
        <pt x="482" y="195" on="0"/>
        <pt x="374" y="253" on="0"/>
        <pt x="263" y="301" on="0"/>
        <pt x="203" y="301" on="1"/>
        <pt x="171" y="301" on="1"/>
        <pt x="187" y="264" on="0"/>
        <pt x="212" y="206" on="0"/>
        <pt x="229" y="152" on="0"/>
        <pt x="238" y="97" on="0"/>
        <pt x="238" y="65" on="1"/>
        <pt x="238" y="58" on="0"/>
        <pt x="238" y="39" on="0"/>
        <pt x="236" y="19" on="0"/>
        <pt x="226" y="3" on="0"/>
        <pt x="215" y="0" on="1"/>
        <pt x="174" y="24" on="0"/>
        <pt x="109" y="125" on="0"/>
        <pt x="61" y="255" on="0"/>
        <pt x="28" y="401" on="0"/>
        <pt x="7" y="542" on="0"/>
        <pt x="-2" y="665" on="0"/>
      </contour>
      <contour>
        <pt x="84" y="643" on="1"/>
        <pt x="84" y="630" on="0"/>
        <pt x="81" y="589" on="0"/>
        <pt x="83" y="546" on="0"/>
        <pt x="94" y="507" on="0"/>
        <pt x="107" y="493" on="1"/>
        <pt x="109" y="492" on="0"/>
        <pt x="111" y="492" on="1"/>
        <pt x="112" y="491" on="0"/>
        <pt x="116" y="491" on="1"/>
        <pt x="134" y="491" on="0"/>
        <pt x="185" y="513" on="0"/>
        <pt x="241" y="549" on="0"/>
        <pt x="296" y="596" on="0"/>
        <pt x="340" y="646" on="0"/>
        <pt x="367" y="697" on="0"/>
        <pt x="367" y="718" on="1"/>
        <pt x="367" y="738" on="0"/>
        <pt x="337" y="767" on="0"/>
        <pt x="295" y="785" on="0"/>
        <pt x="250" y="793" on="0"/>
        <pt x="236" y="793" on="1"/>
        <pt x="219" y="793" on="0"/>
        <pt x="173" y="794" on="0"/>
        <pt x="128" y="787" on="0"/>
        <pt x="92" y="769" on="0"/>
        <pt x="85" y="751" on="1"/>
        <pt x="85" y="745" on="0"/>
        <pt x="85" y="715" on="0"/>
        <pt x="85" y="680" on="0"/>
        <pt x="84" y="650" on="0"/>
      </contour>
    </TTGlyph>
    <TTGlyph name="Racute" xMin="-2" yMin="0" xMax="686" yMax="1145">
      <component glyphName="R" x="0" y="0" flags="0x204"/>
      <component glyphName="acute" x="-30" y="370" flags="0x4"/>
    </TTGlyph>
    <TTGlyph name="Rcaron" xMin="-2" yMin="0" xMax="686" yMax="1147">
      <component glyphName="R" x="0" y="0" flags="0x204"/>
      <component glyphName="caron" x="25" y="283" flags="0x4"/>
    </TTGlyph>
    <TTGlyph name="Rcommaaccent" xMin="-2" yMin="-450" xMax="686" yMax="883">
      <component glyphName="R" x="0" y="0" flags="0x204"/>
      <component glyphName="commaaccent" x="153" y="0" flags="0x4"/>
    </TTGlyph>
    <TTGlyph name="S" xMin="20" yMin="-2" xMax="514" yMax="771">
      <contour>
        <pt x="171" y="43" on="1"/>
        <pt x="176" y="67" on="0"/>
        <pt x="217" y="98" on="0"/>
        <pt x="270" y="124" on="0"/>
        <pt x="328" y="147" on="0"/>
        <pt x="377" y="173" on="0"/>
        <pt x="409" y="208" on="0"/>
        <pt x="409" y="233" on="1"/>
        <pt x="409" y="265" on="0"/>
        <pt x="376" y="307" on="0"/>
        <pt x="321" y="337" on="0"/>
        <pt x="251" y="357" on="0"/>
        <pt x="178" y="378" on="0"/>
        <pt x="108" y="403" on="0"/>
        <pt x="53" y="441" on="0"/>
        <pt x="20" y="495" on="0"/>
        <pt x="20" y="535" on="1"/>
        <pt x="20" y="568" on="0"/>
        <pt x="47" y="627" on="0"/>
        <pt x="92" y="680" on="0"/>
        <pt x="151" y="724" on="0"/>
        <pt x="216" y="754" on="0"/>
        <pt x="282" y="771" on="0"/>
        <pt x="310" y="771" on="1"/>
        <pt x="321" y="771" on="1"/>
        <pt x="330" y="768" on="0"/>
        <pt x="360" y="754" on="0"/>
        <pt x="388" y="741" on="0"/>
        <pt x="408" y="730" on="0"/>
        <pt x="408" y="729" on="1"/>
        <pt x="408" y="706" on="1"/>
        <pt x="389" y="704" on="0"/>
        <pt x="329" y="693" on="0"/>
        <pt x="263" y="675" on="0"/>
        <pt x="195" y="648" on="0"/>
        <pt x="141" y="612" on="0"/>
        <pt x="107" y="565" on="0"/>
        <pt x="107" y="535" on="1"/>
        <pt x="107" y="492" on="0"/>
        <pt x="167" y="443" on="0"/>
        <pt x="257" y="411" on="0"/>
        <pt x="364" y="386" on="0"/>
        <pt x="454" y="351" on="0"/>
        <pt x="514" y="294" on="0"/>
        <pt x="514" y="246" on="1"/>
        <pt x="514" y="220" on="0"/>
        <pt x="483" y="163" on="0"/>
        <pt x="432" y="108" on="0"/>
        <pt x="368" y="58" on="0"/>
        <pt x="301" y="21" on="0"/>
        <pt x="237" y="-2" on="0"/>
        <pt x="212" y="-2" on="1"/>
        <pt x="204" y="-2" on="0"/>
        <pt x="186" y="2" on="0"/>
        <pt x="173" y="11" on="0"/>
        <pt x="166" y="29" on="0"/>
      </contour>
    </TTGlyph>
    <TTGlyph name="Sacute" xMin="20" yMin="-2" xMax="514" yMax="1007">
      <component glyphName="S" x="0" y="0" flags="0x204"/>
      <component glyphName="acute" x="-6" y="232" flags="0x4"/>
    </TTGlyph>
    <TTGlyph name="Scaron" xMin="20" yMin="-2" xMax="514" yMax="1057">
      <component glyphName="S" x="0" y="0" flags="0x204"/>
      <component glyphName="caron" x="55" y="193" flags="0x4"/>
    </TTGlyph>
    <TTGlyph name="Scedilla" xMin="20" yMin="-381" xMax="586" yMax="771">
      <contour>
        <pt x="318" y="-335" on="1"/>
        <pt x="333" y="-324" on="0"/>
        <pt x="379" y="-295" on="0"/>
        <pt x="427" y="-265" on="0"/>
        <pt x="470" y="-231" on="0"/>
        <pt x="494" y="-201" on="0"/>
        <pt x="495" y="-171" on="0"/>
        <pt x="476" y="-159" on="1"/>
        <pt x="428" y="-159" on="0"/>
        <pt x="343" y="-164" on="0"/>
        <pt x="278" y="-141" on="0"/>
        <pt x="239" y="-75" on="0"/>
        <pt x="239" y="-5" on="1"/>
        <pt x="239" y="-2" on="0"/>
        <pt x="238" y="1" on="1"/>
        <pt x="224" y="-2" on="0"/>
        <pt x="212" y="-2" on="1"/>
        <pt x="204" y="-2" on="0"/>
        <pt x="186" y="2" on="0"/>
        <pt x="173" y="11" on="0"/>
        <pt x="166" y="29" on="0"/>
        <pt x="171" y="43" on="1"/>
        <pt x="176" y="67" on="0"/>
        <pt x="217" y="98" on="0"/>
        <pt x="270" y="124" on="0"/>
        <pt x="328" y="147" on="0"/>
        <pt x="377" y="173" on="0"/>
        <pt x="409" y="208" on="0"/>
        <pt x="409" y="233" on="1"/>
        <pt x="409" y="265" on="0"/>
        <pt x="376" y="307" on="0"/>
        <pt x="321" y="337" on="0"/>
        <pt x="251" y="357" on="0"/>
        <pt x="178" y="378" on="0"/>
        <pt x="108" y="403" on="0"/>
        <pt x="53" y="441" on="0"/>
        <pt x="20" y="495" on="0"/>
        <pt x="20" y="535" on="1"/>
        <pt x="20" y="568" on="0"/>
        <pt x="47" y="627" on="0"/>
        <pt x="92" y="680" on="0"/>
        <pt x="151" y="724" on="0"/>
        <pt x="216" y="754" on="0"/>
        <pt x="282" y="771" on="0"/>
        <pt x="310" y="771" on="1"/>
        <pt x="321" y="771" on="1"/>
        <pt x="330" y="768" on="0"/>
        <pt x="360" y="754" on="0"/>
        <pt x="388" y="741" on="0"/>
        <pt x="408" y="730" on="0"/>
        <pt x="408" y="729" on="1"/>
        <pt x="408" y="706" on="1"/>
        <pt x="389" y="704" on="0"/>
        <pt x="329" y="693" on="0"/>
        <pt x="263" y="675" on="0"/>
        <pt x="195" y="648" on="0"/>
        <pt x="141" y="612" on="0"/>
        <pt x="107" y="565" on="0"/>
        <pt x="107" y="535" on="1"/>
        <pt x="107" y="492" on="0"/>
        <pt x="167" y="443" on="0"/>
        <pt x="257" y="411" on="0"/>
        <pt x="364" y="386" on="0"/>
        <pt x="454" y="351" on="0"/>
        <pt x="514" y="294" on="0"/>
        <pt x="514" y="246" on="1"/>
        <pt x="514" y="220" on="0"/>
        <pt x="483" y="163" on="0"/>
        <pt x="432" y="108" on="0"/>
        <pt x="368" y="58" on="0"/>
        <pt x="334" y="39" on="1"/>
        <pt x="324" y="33" on="1"/>
        <pt x="328" y="26" on="0"/>
        <pt x="330" y="18" on="1"/>
        <pt x="334" y="4" on="0"/>
        <pt x="326" y="-6" on="1"/>
        <pt x="326" y="-38" on="0"/>
        <pt x="348" y="-69" on="0"/>
        <pt x="384" y="-81" on="0"/>
        <pt x="431" y="-79" on="0"/>
        <pt x="481" y="-76" on="0"/>
        <pt x="527" y="-77" on="0"/>
        <pt x="563" y="-94" on="0"/>
        <pt x="586" y="-133" on="0"/>
        <pt x="586" y="-170" on="1"/>
        <pt x="586" y="-194" on="0"/>
        <pt x="538" y="-266" on="0"/>
        <pt x="467" y="-333" on="0"/>
        <pt x="385" y="-381" on="0"/>
        <pt x="352" y="-381" on="1"/>
        <pt x="331" y="-381" on="0"/>
        <pt x="318" y="-351" on="0"/>
      </contour>
    </TTGlyph>
    <TTGlyph name="Scircumflex" xMin="20" yMin="-2" xMax="514" yMax="1302">
      <component glyphName="S" x="0" y="0" flags="0x204"/>
      <component glyphName="circumflex" x="44" y="320" flags="0x4"/>
    </TTGlyph>
    <TTGlyph name="Scommaaccent" xMin="20" yMin="-450" xMax="514" yMax="771">
      <component glyphName="S" x="0" y="0" flags="0x204"/>
      <component glyphName="commaaccent" x="153" y="0" flags="0x4"/>
    </TTGlyph>
    <TTGlyph name="T" xMin="20" yMin="-2" xMax="778" yMax="731">
      <contour>
        <pt x="408" y="600" on="1"/>
        <pt x="404" y="614" on="0"/>
        <pt x="381" y="624" on="0"/>
        <pt x="354" y="625" on="0"/>
        <pt x="328" y="621" on="0"/>
        <pt x="321" y="621" on="1"/>
        <pt x="304" y="622" on="0"/>
        <pt x="220" y="628" on="0"/>
        <pt x="123" y="635" on="0"/>
        <pt x="39" y="642" on="0"/>
        <pt x="22" y="643" on="1"/>
        <pt x="22" y="645" on="0"/>
        <pt x="20" y="661" on="0"/>
        <pt x="20" y="664" on="1"/>
        <pt x="20" y="678" on="0"/>
        <pt x="25" y="700" on="0"/>
        <pt x="42" y="706" on="1"/>
        <pt x="136" y="704" on="0"/>
        <pt x="319" y="710" on="0"/>
        <pt x="502" y="721" on="0"/>
        <pt x="685" y="731" on="0"/>
        <pt x="778" y="731" on="1"/>
        <pt x="778" y="693" on="0"/>
        <pt x="742" y="658" on="0"/>
        <pt x="689" y="646" on="0"/>
        <pt x="625" y="648" on="0"/>
        <pt x="566" y="644" on="0"/>
        <pt x="521" y="625" on="0"/>
        <pt x="514" y="600" on="1"/>
        <pt x="513" y="594" on="0"/>
        <pt x="511" y="560" on="0"/>
        <pt x="510" y="522" on="0"/>
        <pt x="509" y="489" on="0"/>
        <pt x="509" y="482" on="1"/>
        <pt x="509" y="425" on="0"/>
        <pt x="538" y="314" on="0"/>
        <pt x="573" y="205" on="0"/>
        <pt x="602" y="96" on="0"/>
        <pt x="602" y="40" on="1"/>
        <pt x="602" y="-2" on="0"/>
        <pt x="554" y="-2" on="1"/>
        <pt x="525" y="-2" on="0"/>
        <pt x="480" y="78" on="0"/>
        <pt x="447" y="202" on="0"/>
        <pt x="426" y="348" on="0"/>
        <pt x="413" y="482" on="0"/>
        <pt x="408" y="584" on="0"/>
      </contour>
    </TTGlyph>
    <TTGlyph name="Tbar" xMin="20" yMin="-2" xMax="778" yMax="731">
      <contour>
        <pt x="214" y="460" on="1"/>
        <pt x="214" y="463" on="0"/>
        <pt x="217" y="486" on="0"/>
        <pt x="217" y="489" on="1"/>
        <pt x="253" y="489" on="0"/>
        <pt x="308" y="492" on="1"/>
        <pt x="358" y="496" on="0"/>
        <pt x="412" y="499" on="1"/>
        <pt x="411" y="517" on="0"/>
        <pt x="410" y="533" on="1"/>
        <pt x="408" y="584" on="0"/>
        <pt x="408" y="600" on="1"/>
        <pt x="404" y="614" on="0"/>
        <pt x="381" y="624" on="0"/>
        <pt x="354" y="625" on="0"/>
        <pt x="328" y="621" on="0"/>
        <pt x="321" y="621" on="1"/>
        <pt x="304" y="622" on="0"/>
        <pt x="220" y="628" on="0"/>
        <pt x="123" y="635" on="0"/>
        <pt x="39" y="642" on="0"/>
        <pt x="22" y="643" on="1"/>
        <pt x="22" y="645" on="0"/>
        <pt x="20" y="661" on="0"/>
        <pt x="20" y="664" on="1"/>
        <pt x="20" y="678" on="0"/>
        <pt x="25" y="700" on="0"/>
        <pt x="42" y="706" on="1"/>
        <pt x="136" y="704" on="0"/>
        <pt x="319" y="710" on="0"/>
        <pt x="502" y="721" on="0"/>
        <pt x="685" y="731" on="0"/>
        <pt x="778" y="731" on="1"/>
        <pt x="778" y="693" on="0"/>
        <pt x="742" y="658" on="0"/>
        <pt x="689" y="646" on="0"/>
        <pt x="625" y="648" on="0"/>
        <pt x="566" y="644" on="0"/>
        <pt x="521" y="625" on="0"/>
        <pt x="514" y="600" on="1"/>
        <pt x="513" y="594" on="0"/>
        <pt x="511" y="560" on="0"/>
        <pt x="510" y="522" on="0"/>
        <pt x="509" y="505" on="1"/>
        <pt x="509" y="502" on="1"/>
        <pt x="523" y="503" on="0"/>
        <pt x="536" y="503" on="1"/>
        <pt x="590" y="504" on="0"/>
        <pt x="624" y="498" on="1"/>
        <pt x="650" y="498" on="0"/>
        <pt x="670" y="487" on="0"/>
        <pt x="670" y="456" on="1"/>
        <pt x="628" y="430" on="0"/>
        <pt x="576" y="418" on="1"/>
        <pt x="546" y="412" on="0"/>
        <pt x="515" y="408" on="1"/>
        <pt x="518" y="389" on="0"/>
        <pt x="524" y="369" on="1"/>
        <pt x="538" y="314" on="0"/>
        <pt x="573" y="205" on="0"/>
        <pt x="602" y="96" on="0"/>
        <pt x="602" y="40" on="1"/>
        <pt x="602" y="-2" on="0"/>
        <pt x="554" y="-2" on="1"/>
        <pt x="525" y="-2" on="0"/>
        <pt x="480" y="78" on="0"/>
        <pt x="447" y="202" on="0"/>
        <pt x="436" y="274" on="1"/>
        <pt x="427" y="340" on="0"/>
        <pt x="420" y="401" on="1"/>
        <pt x="394" y="401" on="0"/>
        <pt x="368" y="402" on="1"/>
        <pt x="318" y="404" on="0"/>
        <pt x="278" y="403" on="1"/>
        <pt x="240" y="400" on="0"/>
        <pt x="214" y="435" on="0"/>
      </contour>
    </TTGlyph>
    <TTGlyph name="Tcaron" xMin="20" yMin="-2" xMax="778" yMax="1057">
      <component glyphName="T" x="0" y="0" flags="0x204"/>
      <component glyphName="caron" x="195" y="193" flags="0x4"/>
    </TTGlyph>
    <TTGlyph name="Tcommaaccent" xMin="20" yMin="-414" xMax="778" yMax="731">
      <component glyphName="T" x="0" y="0" flags="0x204"/>
      <component glyphName="commaaccent" x="290" y="36" flags="0x4"/>
    </TTGlyph>
    <TTGlyph name="Thorn" xMin="35" yMin="12" xMax="527" yMax="846">
      <contour>
        <pt x="88" y="280" on="1"/>
        <pt x="88" y="283" on="0"/>
        <pt x="84" y="330" on="0"/>
        <pt x="76" y="401" on="0"/>
        <pt x="67" y="490" on="0"/>
        <pt x="57" y="582" on="0"/>
        <pt x="47" y="671" on="0"/>
        <pt x="40" y="742" on="0"/>
        <pt x="35" y="789" on="0"/>
        <pt x="35" y="793" on="1"/>
        <pt x="45" y="812" on="0"/>
        <pt x="89" y="846" on="0"/>
        <pt x="112" y="846" on="1"/>
        <pt x="122" y="793" on="0"/>
        <pt x="130" y="713" on="0"/>
        <pt x="131" y="648" on="0"/>
        <pt x="130" y="591" on="0"/>
        <pt x="134" y="532" on="0"/>
        <pt x="147" y="463" on="0"/>
        <pt x="160" y="418" on="1"/>
        <pt x="162" y="443" on="0"/>
        <pt x="163" y="499" on="0"/>
        <pt x="172" y="558" on="0"/>
        <pt x="193" y="613" on="0"/>
        <pt x="232" y="654" on="0"/>
        <pt x="295" y="679" on="0"/>
        <pt x="343" y="678" on="1"/>
        <pt x="386" y="678" on="0"/>
        <pt x="455" y="645" on="0"/>
        <pt x="502" y="590" on="0"/>
        <pt x="527" y="517" on="0"/>
        <pt x="527" y="476" on="1"/>
        <pt x="527" y="421" on="0"/>
        <pt x="472" y="316" on="0"/>
        <pt x="384" y="232" on="0"/>
        <pt x="274" y="181" on="0"/>
        <pt x="217" y="181" on="1"/>
        <pt x="213" y="181" on="0"/>
        <pt x="212" y="156" on="0"/>
        <pt x="213" y="119" on="0"/>
        <pt x="216" y="75" on="0"/>
        <pt x="218" y="38" on="0"/>
        <pt x="217" y="13" on="0"/>
        <pt x="214" y="14" on="1"/>
        <pt x="210" y="15" on="0"/>
        <pt x="180" y="13" on="0"/>
        <pt x="147" y="13" on="0"/>
        <pt x="118" y="12" on="0"/>
        <pt x="114" y="14" on="1"/>
      </contour>
      <contour>
        <pt x="354" y="589" on="1"/>
        <pt x="334" y="580" on="0"/>
        <pt x="291" y="550" on="0"/>
        <pt x="254" y="487" on="0"/>
        <pt x="228" y="379" on="0"/>
        <pt x="225" y="290" on="1"/>
        <pt x="227" y="290" on="0"/>
        <pt x="243" y="287" on="0"/>
        <pt x="246" y="287" on="1"/>
        <pt x="273" y="287" on="0"/>
        <pt x="343" y="320" on="0"/>
        <pt x="408" y="372" on="0"/>
        <pt x="456" y="433" on="0"/>
        <pt x="461" y="461" on="1"/>
        <pt x="463" y="478" on="0"/>
        <pt x="444" y="522" on="0"/>
        <pt x="411" y="562" on="0"/>
        <pt x="371" y="589" on="0"/>
      </contour>
    </TTGlyph>
    <TTGlyph name="U" xMin="0" yMin="20" xMax="588" yMax="774">
      <contour>
        <pt x="43" y="686" on="1"/>
        <pt x="59" y="674" on="0"/>
        <pt x="79" y="639" on="0"/>
        <pt x="85" y="621" on="1"/>
        <pt x="86" y="583" on="0"/>
        <pt x="86" y="477" on="0"/>
        <pt x="94" y="363" on="0"/>
        <pt x="116" y="250" on="0"/>
        <pt x="163" y="160" on="0"/>
        <pt x="242" y="105" on="0"/>
        <pt x="302" y="105" on="1"/>
        <pt x="357" y="105" on="0"/>
        <pt x="436" y="157" on="0"/>
        <pt x="489" y="237" on="0"/>
        <pt x="514" y="336" on="0"/>
        <pt x="514" y="383" on="1"/>
        <pt x="514" y="474" on="0"/>
        <pt x="496" y="663" on="0"/>
        <pt x="472" y="751" on="1"/>
        <pt x="479" y="769" on="0"/>
        <pt x="501" y="774" on="0"/>
        <pt x="514" y="774" on="1"/>
        <pt x="540" y="774" on="0"/>
        <pt x="570" y="732" on="0"/>
        <pt x="585" y="667" on="0"/>
        <pt x="588" y="590" on="0"/>
        <pt x="585" y="521" on="0"/>
        <pt x="580" y="468" on="0"/>
        <pt x="580" y="461" on="1"/>
        <pt x="580" y="409" on="0"/>
        <pt x="575" y="302" on="0"/>
        <pt x="556" y="204" on="0"/>
        <pt x="519" y="119" on="0"/>
        <pt x="457" y="56" on="0"/>
        <pt x="365" y="20" on="0"/>
        <pt x="301" y="20" on="1"/>
        <pt x="220" y="20" on="0"/>
        <pt x="116" y="82" on="0"/>
        <pt x="53" y="185" on="0"/>
        <pt x="22" y="317" on="0"/>
        <pt x="9" y="455" on="0"/>
        <pt x="4" y="589" on="0"/>
        <pt x="0" y="643" on="1"/>
      </contour>
    </TTGlyph>
    <TTGlyph name="Uacute" xMin="0" yMin="20" xMax="588" yMax="968">
      <component glyphName="U" x="0" y="0" flags="0x204"/>
      <component glyphName="acute" x="79" y="193" flags="0x4"/>
    </TTGlyph>
    <TTGlyph name="Ubreve" xMin="0" yMin="20" xMax="588" yMax="1179">
      <component glyphName="U" x="0" y="0" flags="0x204"/>
      <component glyphName="breve" x="25" y="320" flags="0x4"/>
    </TTGlyph>
    <TTGlyph name="Ucircumflex" xMin="0" yMin="20" xMax="588" yMax="1175">
      <component glyphName="U" x="0" y="0" flags="0x204"/>
      <component glyphName="circumflex" x="87" y="193" flags="0x4"/>
    </TTGlyph>
    <TTGlyph name="Udieresis" xMin="0" yMin="20" xMax="588" yMax="978">
      <component glyphName="U" x="0" y="0" flags="0x204"/>
      <component glyphName="dieresis" x="-30" y="193" flags="0x4"/>
    </TTGlyph>
    <TTGlyph name="Ugrave" xMin="0" yMin="20" xMax="588" yMax="981">
      <component glyphName="U" x="0" y="0" flags="0x204"/>
      <component glyphName="grave" x="119" y="193" flags="0x4"/>
    </TTGlyph>
    <TTGlyph name="Uhungarumlaut" xMin="0" yMin="20" xMax="588" yMax="1107">
      <component glyphName="U" x="0" y="0" flags="0x204"/>
      <component glyphName="hungarumlaut" x="140" y="320" flags="0x4"/>
    </TTGlyph>
    <TTGlyph name="Umacron" xMin="0" yMin="20" xMax="588" yMax="936">
      <component glyphName="U" x="0" y="0" flags="0x204"/>
      <component glyphName="macron" x="99" y="320" flags="0x4"/>
    </TTGlyph>
    <TTGlyph name="Uogonek" xMin="0" yMin="-164" xMax="588" yMax="774">
      <contour>
        <pt x="453" y="58" on="1"/>
        <pt x="439" y="49" on="0"/>
        <pt x="406" y="16" on="0"/>
        <pt x="376" y="-20" on="0"/>
        <pt x="355" y="-53" on="0"/>
        <pt x="355" y="-62" on="1"/>
        <pt x="355" y="-77" on="0"/>
        <pt x="369" y="-94" on="0"/>
        <pt x="391" y="-100" on="0"/>
        <pt x="419" y="-93" on="0"/>
        <pt x="434" y="-83" on="1"/>
        <pt x="471" y="-56" on="0"/>
        <pt x="506" y="-47" on="0"/>
        <pt x="512" y="-65" on="0"/>
        <pt x="497" y="-101" on="0"/>
        <pt x="469" y="-137" on="0"/>
        <pt x="435" y="-164" on="0"/>
        <pt x="419" y="-164" on="1"/>
        <pt x="391" y="-164" on="0"/>
        <pt x="340" y="-149" on="0"/>
        <pt x="302" y="-123" on="0"/>
        <pt x="281" y="-85" on="0"/>
        <pt x="281" y="-60" on="1"/>
        <pt x="281" y="-41" on="0"/>
        <pt x="298" y="0" on="0"/>
        <pt x="311" y="20" on="1"/>
        <pt x="301" y="20" on="1"/>
        <pt x="220" y="20" on="0"/>
        <pt x="116" y="82" on="0"/>
        <pt x="53" y="185" on="0"/>
        <pt x="22" y="317" on="0"/>
        <pt x="9" y="455" on="0"/>
        <pt x="4" y="589" on="0"/>
        <pt x="0" y="643" on="1"/>
        <pt x="43" y="686" on="1"/>
        <pt x="59" y="674" on="0"/>
        <pt x="79" y="639" on="0"/>
        <pt x="85" y="621" on="1"/>
        <pt x="86" y="583" on="0"/>
        <pt x="86" y="477" on="0"/>
        <pt x="94" y="363" on="0"/>
        <pt x="116" y="250" on="0"/>
        <pt x="163" y="160" on="0"/>
        <pt x="242" y="105" on="0"/>
        <pt x="302" y="105" on="1"/>
        <pt x="357" y="105" on="0"/>
        <pt x="436" y="157" on="0"/>
        <pt x="489" y="237" on="0"/>
        <pt x="514" y="336" on="0"/>
        <pt x="514" y="383" on="1"/>
        <pt x="514" y="474" on="0"/>
        <pt x="496" y="663" on="0"/>
        <pt x="472" y="751" on="1"/>
        <pt x="479" y="769" on="0"/>
        <pt x="501" y="774" on="0"/>
        <pt x="514" y="774" on="1"/>
        <pt x="540" y="774" on="0"/>
        <pt x="570" y="732" on="0"/>
        <pt x="585" y="667" on="0"/>
        <pt x="588" y="590" on="0"/>
        <pt x="585" y="521" on="0"/>
        <pt x="580" y="468" on="0"/>
        <pt x="580" y="461" on="1"/>
        <pt x="580" y="409" on="0"/>
        <pt x="575" y="302" on="0"/>
        <pt x="556" y="204" on="0"/>
        <pt x="519" y="119" on="0"/>
        <pt x="488" y="87" on="1"/>
        <pt x="472" y="71" on="0"/>
        <pt x="452" y="58" on="1"/>
      </contour>
    </TTGlyph>
    <TTGlyph name="Uring" xMin="0" yMin="20" xMax="588" yMax="1094">
      <component glyphName="U" x="0" y="0" flags="0x204"/>
      <component glyphName="ring" x="101" y="193" flags="0x4"/>
    </TTGlyph>
    <TTGlyph name="Utilde" xMin="0" yMin="20" xMax="596" yMax="1146">
      <component glyphName="U" x="0" y="0" flags="0x204"/>
      <component glyphName="tilde" x="-4" y="425" flags="0x4"/>
    </TTGlyph>
    <TTGlyph name="V" xMin="0" yMin="0" xMax="602" yMax="752">
      <contour>
        <pt x="0" y="723" on="1"/>
        <pt x="44" y="723" on="0"/>
        <pt x="102" y="671" on="0"/>
        <pt x="142" y="588" on="0"/>
        <pt x="168" y="481" on="0"/>
        <pt x="192" y="368" on="0"/>
        <pt x="217" y="261" on="0"/>
        <pt x="256" y="177" on="0"/>
        <pt x="311" y="126" on="0"/>
        <pt x="354" y="126" on="1"/>
        <pt x="356" y="126" on="0"/>
        <pt x="359" y="127" on="1"/>
        <pt x="361" y="128" on="0"/>
        <pt x="364" y="129" on="1"/>
        <pt x="368" y="130" on="0"/>
        <pt x="384" y="147" on="0"/>
        <pt x="386" y="150" on="1"/>
        <pt x="388" y="155" on="0"/>
        <pt x="400" y="211" on="0"/>
        <pt x="421" y="297" on="0"/>
        <pt x="447" y="405" on="0"/>
        <pt x="476" y="516" on="0"/>
        <pt x="506" y="621" on="0"/>
        <pt x="534" y="703" on="0"/>
        <pt x="559" y="752" on="0"/>
        <pt x="568" y="752" on="1"/>
        <pt x="580" y="752" on="0"/>
        <pt x="594" y="742" on="0"/>
        <pt x="600" y="726" on="0"/>
        <pt x="602" y="707" on="0"/>
        <pt x="602" y="698" on="1"/>
        <pt x="602" y="683" on="0"/>
        <pt x="591" y="607" on="0"/>
        <pt x="572" y="504" on="0"/>
        <pt x="545" y="382" on="0"/>
        <pt x="513" y="257" on="0"/>
        <pt x="475" y="142" on="0"/>
        <pt x="436" y="53" on="0"/>
        <pt x="395" y="0" on="0"/>
        <pt x="375" y="0" on="1"/>
        <pt x="348" y="0" on="0"/>
        <pt x="298" y="30" on="0"/>
        <pt x="254" y="78" on="0"/>
        <pt x="215" y="139" on="0"/>
        <pt x="184" y="201" on="0"/>
        <pt x="158" y="257" on="0"/>
        <pt x="150" y="278" on="1"/>
        <pt x="139" y="305" on="0"/>
        <pt x="108" y="382" on="0"/>
        <pt x="75" y="466" on="0"/>
        <pt x="42" y="551" on="0"/>
        <pt x="16" y="618" on="0"/>
        <pt x="0" y="662" on="0"/>
        <pt x="0" y="664" on="1"/>
      </contour>
    </TTGlyph>
    <TTGlyph name="W" xMin="0" yMin="0" xMax="838" yMax="816">
      <contour>
        <pt x="0" y="602" on="1"/>
        <pt x="0" y="618" on="0"/>
        <pt x="13" y="645" on="0"/>
        <pt x="32" y="645" on="1"/>
        <pt x="48" y="645" on="0"/>
        <pt x="79" y="579" on="0"/>
        <pt x="112" y="476" on="0"/>
        <pt x="148" y="353" on="0"/>
        <pt x="188" y="238" on="0"/>
        <pt x="232" y="147" on="0"/>
        <pt x="257" y="129" on="1"/>
        <pt x="281" y="139" on="0"/>
        <pt x="310" y="190" on="0"/>
        <pt x="328" y="261" on="0"/>
        <pt x="337" y="344" on="0"/>
        <pt x="346" y="427" on="0"/>
        <pt x="356" y="506" on="0"/>
        <pt x="375" y="566" on="0"/>
        <pt x="405" y="602" on="0"/>
        <pt x="428" y="602" on="1"/>
        <pt x="442" y="602" on="0"/>
        <pt x="464" y="597" on="0"/>
        <pt x="472" y="579" on="1"/>
        <pt x="476" y="566" on="0"/>
        <pt x="494" y="516" on="0"/>
        <pt x="517" y="450" on="0"/>
        <pt x="546" y="375" on="0"/>
        <pt x="577" y="303" on="0"/>
        <pt x="607" y="238" on="0"/>
        <pt x="621" y="215" on="1"/>
        <pt x="623" y="211" on="0"/>
        <pt x="640" y="194" on="0"/>
        <pt x="643" y="193" on="1"/>
        <pt x="686" y="236" on="1"/>
        <pt x="703" y="253" on="0"/>
        <pt x="721" y="320" on="0"/>
        <pt x="730" y="408" on="0"/>
        <pt x="733" y="509" on="0"/>
        <pt x="735" y="609" on="0"/>
        <pt x="741" y="703" on="0"/>
        <pt x="755" y="774" on="0"/>
        <pt x="781" y="816" on="0"/>
        <pt x="804" y="816" on="1"/>
        <pt x="805" y="816" on="0"/>
        <pt x="808" y="815" on="0"/>
        <pt x="810" y="815" on="1"/>
        <pt x="813" y="814" on="0"/>
        <pt x="814" y="814" on="1"/>
        <pt x="815" y="814" on="0"/>
        <pt x="823" y="807" on="0"/>
        <pt x="830" y="801" on="0"/>
        <pt x="835" y="795" on="0"/>
        <pt x="836" y="793" on="1"/>
        <pt x="836" y="786" on="0"/>
        <pt x="837" y="750" on="0"/>
        <pt x="837" y="708" on="0"/>
        <pt x="838" y="671" on="0"/>
        <pt x="838" y="664" on="1"/>
        <pt x="838" y="644" on="0"/>
        <pt x="837" y="574" on="0"/>
        <pt x="832" y="485" on="0"/>
        <pt x="823" y="384" on="0"/>
        <pt x="805" y="285" on="0"/>
        <pt x="778" y="194" on="0"/>
        <pt x="739" y="125" on="0"/>
        <pt x="688" y="84" on="0"/>
        <pt x="653" y="84" on="1"/>
        <pt x="619" y="84" on="0"/>
        <pt x="572" y="129" on="0"/>
        <pt x="538" y="196" on="0"/>
        <pt x="514" y="275" on="0"/>
        <pt x="489" y="343" on="0"/>
        <pt x="460" y="388" on="0"/>
        <pt x="439" y="388" on="1"/>
        <pt x="437" y="388" on="0"/>
        <pt x="430" y="386" on="0"/>
        <pt x="428" y="386" on="1"/>
        <pt x="427" y="382" on="0"/>
        <pt x="417" y="320" on="0"/>
        <pt x="399" y="235" on="0"/>
        <pt x="373" y="137" on="0"/>
        <pt x="340" y="55" on="0"/>
        <pt x="301" y="0" on="0"/>
        <pt x="278" y="0" on="1"/>
        <pt x="231" y="0" on="0"/>
        <pt x="153" y="71" on="0"/>
        <pt x="92" y="184" on="0"/>
        <pt x="46" y="322" on="0"/>
        <pt x="15" y="455" on="0"/>
        <pt x="0" y="570" on="0"/>
      </contour>
    </TTGlyph>
    <TTGlyph name="Wacute" xMin="0" yMin="0" xMax="838" yMax="1095">
      <component glyphName="W" x="0" y="0" flags="0x204"/>
      <component glyphName="acute" x="208" y="320" flags="0x4"/>
    </TTGlyph>
    <TTGlyph name="Wcircumflex" xMin="0" yMin="0" xMax="838" yMax="1302">
      <component glyphName="W" x="0" y="0" flags="0x204"/>
      <component glyphName="circumflex" x="216" y="320" flags="0x4"/>
    </TTGlyph>
    <TTGlyph name="Wdieresis" xMin="0" yMin="0" xMax="838" yMax="1105">
      <component glyphName="W" x="0" y="0" flags="0x204"/>
      <component glyphName="dieresis" x="97" y="320" flags="0x4"/>
    </TTGlyph>
    <TTGlyph name="Wgrave" xMin="0" yMin="0" xMax="838" yMax="1108">
      <component glyphName="W" x="0" y="0" flags="0x204"/>
      <component glyphName="grave" x="247" y="320" flags="0x4"/>
    </TTGlyph>
    <TTGlyph name="X" xMin="20" yMin="-2" xMax="623" yMax="757">
      <contour>
        <pt x="148" y="105" on="1"/>
        <pt x="148" y="147" on="0"/>
        <pt x="162" y="227" on="0"/>
        <pt x="178" y="307" on="0"/>
        <pt x="193" y="386" on="0"/>
        <pt x="193" y="428" on="1"/>
        <pt x="193" y="450" on="1"/>
        <pt x="188" y="454" on="0"/>
        <pt x="158" y="481" on="0"/>
        <pt x="121" y="519" on="0"/>
        <pt x="78" y="566" on="0"/>
        <pt x="43" y="616" on="0"/>
        <pt x="20" y="664" on="0"/>
        <pt x="20" y="686" on="1"/>
        <pt x="20" y="690" on="0"/>
        <pt x="21" y="706" on="0"/>
        <pt x="24" y="719" on="0"/>
        <pt x="34" y="729" on="0"/>
        <pt x="42" y="729" on="1"/>
        <pt x="66" y="729" on="0"/>
        <pt x="101" y="703" on="0"/>
        <pt x="129" y="664" on="0"/>
        <pt x="153" y="619" on="0"/>
        <pt x="180" y="580" on="0"/>
        <pt x="213" y="554" on="0"/>
        <pt x="236" y="554" on="1"/>
        <pt x="259" y="554" on="0"/>
        <pt x="297" y="584" on="0"/>
        <pt x="332" y="629" on="0"/>
        <pt x="369" y="682" on="0"/>
        <pt x="413" y="727" on="0"/>
        <pt x="469" y="757" on="0"/>
        <pt x="506" y="757" on="1"/>
        <pt x="506" y="730" on="0"/>
        <pt x="481" y="686" on="0"/>
        <pt x="445" y="647" on="0"/>
        <pt x="402" y="609" on="0"/>
        <pt x="365" y="568" on="0"/>
        <pt x="341" y="520" on="0"/>
        <pt x="341" y="491" on="1"/>
        <pt x="341" y="477" on="0"/>
        <pt x="381" y="427" on="0"/>
        <pt x="440" y="368" on="0"/>
        <pt x="510" y="307" on="0"/>
        <pt x="572" y="255" on="0"/>
        <pt x="616" y="219" on="0"/>
        <pt x="621" y="215" on="1"/>
        <pt x="621" y="213" on="0"/>
        <pt x="623" y="196" on="0"/>
        <pt x="623" y="193" on="1"/>
        <pt x="623" y="176" on="0"/>
        <pt x="608" y="148" on="0"/>
        <pt x="589" y="148" on="1"/>
        <pt x="587" y="148" on="0"/>
        <pt x="580" y="150" on="0"/>
        <pt x="579" y="150" on="1"/>
        <pt x="571" y="157" on="0"/>
        <pt x="542" y="184" on="0"/>
        <pt x="504" y="218" on="0"/>
        <pt x="462" y="255" on="0"/>
        <pt x="424" y="288" on="0"/>
        <pt x="392" y="315" on="0"/>
        <pt x="385" y="321" on="1"/>
        <pt x="376" y="329" on="0"/>
        <pt x="348" y="352" on="0"/>
        <pt x="321" y="373" on="0"/>
        <pt x="301" y="387" on="0"/>
        <pt x="300" y="386" on="1"/>
        <pt x="278" y="364" on="1"/>
        <pt x="270" y="355" on="0"/>
        <pt x="263" y="295" on="0"/>
        <pt x="257" y="214" on="0"/>
        <pt x="251" y="124" on="0"/>
        <pt x="238" y="48" on="0"/>
        <pt x="212" y="-2" on="0"/>
        <pt x="191" y="-2" on="1"/>
        <pt x="172" y="-2" on="0"/>
        <pt x="153" y="22" on="0"/>
        <pt x="147" y="57" on="0"/>
        <pt x="148" y="93" on="0"/>
      </contour>
    </TTGlyph>
    <TTGlyph name="Y" xMin="20" yMin="-5" xMax="651" yMax="1137">
      <contour>
        <pt x="343" y="558" on="1"/>
        <pt x="304" y="566" on="0"/>
        <pt x="226" y="622" on="0"/>
        <pt x="155" y="702" on="0"/>
        <pt x="92" y="800" on="0"/>
        <pt x="46" y="900" on="0"/>
        <pt x="20" y="994" on="0"/>
        <pt x="20" y="1031" on="1"/>
        <pt x="20" y="1036" on="0"/>
        <pt x="21" y="1050" on="0"/>
        <pt x="24" y="1063" on="0"/>
        <pt x="34" y="1072" on="0"/>
        <pt x="42" y="1072" on="1"/>
        <pt x="67" y="1072" on="0"/>
        <pt x="103" y="1037" on="0"/>
        <pt x="133" y="979" on="0"/>
        <pt x="159" y="905" on="0"/>
        <pt x="186" y="829" on="0"/>
        <pt x="216" y="755" on="0"/>
        <pt x="253" y="697" on="0"/>
        <pt x="301" y="662" on="0"/>
        <pt x="332" y="662" on="1"/>
        <pt x="334" y="662" on="0"/>
        <pt x="341" y="664" on="0"/>
        <pt x="343" y="664" on="1"/>
        <pt x="371" y="689" on="0"/>
        <pt x="416" y="772" on="0"/>
        <pt x="454" y="868" on="0"/>
        <pt x="490" y="970" on="0"/>
        <pt x="529" y="1058" on="0"/>
        <pt x="572" y="1124" on="0"/>
        <pt x="600" y="1137" on="1"/>
        <pt x="643" y="1093" on="1"/>
        <pt x="651" y="1085" on="0"/>
        <pt x="640" y="1036" on="0"/>
        <pt x="613" y="963" on="0"/>
        <pt x="573" y="874" on="0"/>
        <pt x="529" y="778" on="0"/>
        <pt x="485" y="683" on="0"/>
        <pt x="450" y="599" on="0"/>
        <pt x="428" y="533" on="0"/>
        <pt x="428" y="514" on="1"/>
        <pt x="428" y="454" on="0"/>
        <pt x="463" y="342" on="0"/>
        <pt x="503" y="231" on="0"/>
        <pt x="537" y="120" on="0"/>
        <pt x="537" y="62" on="1"/>
        <pt x="537" y="54" on="0"/>
        <pt x="537" y="29" on="0"/>
        <pt x="530" y="7" on="0"/>
        <pt x="511" y="-5" on="0"/>
        <pt x="493" y="0" on="1"/>
        <pt x="456" y="54" on="0"/>
        <pt x="400" y="191" on="0"/>
        <pt x="360" y="339" on="0"/>
        <pt x="341" y="490" on="0"/>
      </contour>
    </TTGlyph>
    <TTGlyph name="Yacute" xMin="13" yMin="-74" xMax="644" yMax="1260">
      <component glyphName="Y" x="-7" y="-69" flags="0x204"/>
      <component glyphName="acute" x="110" y="485" flags="0x4"/>
    </TTGlyph>
    <TTGlyph name="Ycircumflex" xMin="20" yMin="-5" xMax="651" yMax="1439">
      <component glyphName="Y" x="0" y="0" flags="0x204"/>
      <component glyphName="circumflex" x="127" y="457" flags="0x4"/>
    </TTGlyph>
    <TTGlyph name="Ydieresis" xMin="20" yMin="-5" xMax="651" yMax="1229">
      <component glyphName="Y" x="0" y="0" flags="0x204"/>
      <component glyphName="dieresis" x="-61" y="444" flags="0x4"/>
    </TTGlyph>
    <TTGlyph name="Ygrave" xMin="20" yMin="-5" xMax="651" yMax="1317">
      <component glyphName="Y" x="0" y="0" flags="0x204"/>
      <component glyphName="grave" x="116" y="529" flags="0x4"/>
    </TTGlyph>
    <TTGlyph name="Z" xMin="0" yMin="0" xMax="836" yMax="864">
      <contour>
        <pt x="148" y="51" on="1"/>
        <pt x="148" y="119" on="0"/>
        <pt x="199" y="242" on="0"/>
        <pt x="276" y="357" on="0"/>
        <pt x="366" y="467" on="0"/>
        <pt x="444" y="576" on="0"/>
        <pt x="495" y="685" on="0"/>
        <pt x="495" y="742" on="1"/>
        <pt x="495" y="742" on="0"/>
        <pt x="494" y="745" on="0"/>
        <pt x="494" y="747" on="1"/>
        <pt x="493" y="749" on="0"/>
        <pt x="493" y="751" on="1"/>
        <pt x="484" y="760" on="0"/>
        <pt x="448" y="772" on="0"/>
        <pt x="406" y="782" on="0"/>
        <pt x="362" y="788" on="0"/>
        <pt x="325" y="791" on="0"/>
        <pt x="301" y="793" on="0"/>
        <pt x="301" y="793" on="1"/>
        <pt x="254" y="793" on="0"/>
        <pt x="187" y="778" on="0"/>
        <pt x="130" y="762" on="0"/>
        <pt x="75" y="748" on="0"/>
        <pt x="40" y="748" on="1"/>
        <pt x="18" y="748" on="0"/>
        <pt x="0" y="783" on="0"/>
        <pt x="0" y="804" on="1"/>
        <pt x="0" y="824" on="0"/>
        <pt x="40" y="850" on="0"/>
        <pt x="103" y="861" on="0"/>
        <pt x="175" y="864" on="0"/>
        <pt x="236" y="863" on="0"/>
        <pt x="277" y="859" on="0"/>
        <pt x="278" y="859" on="1"/>
        <pt x="288" y="859" on="0"/>
        <pt x="337" y="859" on="0"/>
        <pt x="391" y="858" on="0"/>
        <pt x="440" y="857" on="0"/>
        <pt x="450" y="857" on="1"/>
        <pt x="469" y="852" on="0"/>
        <pt x="521" y="840" on="0"/>
        <pt x="569" y="820" on="0"/>
        <pt x="602" y="788" on="0"/>
        <pt x="602" y="765" on="1"/>
        <pt x="602" y="710" on="0"/>
        <pt x="558" y="605" on="0"/>
        <pt x="490" y="502" on="0"/>
        <pt x="407" y="400" on="0"/>
        <pt x="330" y="295" on="0"/>
        <pt x="270" y="186" on="0"/>
        <pt x="257" y="129" on="1"/>
        <pt x="301" y="129" on="1"/>
        <pt x="368" y="129" on="0"/>
        <pt x="501" y="137" on="0"/>
        <pt x="635" y="146" on="0"/>
        <pt x="769" y="154" on="0"/>
        <pt x="836" y="154" on="1"/>
        <pt x="836" y="85" on="1"/>
        <pt x="796" y="83" on="0"/>
        <pt x="695" y="67" on="0"/>
        <pt x="581" y="49" on="0"/>
        <pt x="460" y="28" on="0"/>
        <pt x="341" y="11" on="0"/>
        <pt x="229" y="0" on="0"/>
        <pt x="183" y="0" on="1"/>
        <pt x="170" y="0" on="0"/>
        <pt x="157" y="10" on="0"/>
        <pt x="149" y="25" on="0"/>
        <pt x="148" y="43" on="0"/>
      </contour>
    </TTGlyph>
    <TTGlyph name="Zacute" xMin="0" yMin="0" xMax="836" yMax="1142">
      <component glyphName="Z" x="0" y="0" flags="0x204"/>
      <component glyphName="acute" x="160" y="367" flags="0x4"/>
    </TTGlyph>
    <TTGlyph name="Zcaron" xMin="0" yMin="0" xMax="836" yMax="1104">
      <component glyphName="Z" x="0" y="0" flags="0x204"/>
      <component glyphName="caron" x="217" y="240" flags="0x4"/>
    </TTGlyph>
    <TTGlyph name="Zdotaccent" xMin="0" yMin="0" xMax="836" yMax="1093">
      <component glyphName="Z" x="0" y="0" flags="0x204"/>
      <component glyphName="dotaccent" x="218" y="396" flags="0x4"/>
    </TTGlyph>
    <TTGlyph name="a" xMin="20" yMin="-23" xMax="578" yMax="580">
      <contour>
        <pt x="450" y="129" on="1"/>
        <pt x="412" y="103" on="0"/>
        <pt x="357" y="62" on="0"/>
        <pt x="305" y="34" on="0"/>
        <pt x="246" y="20" on="0"/>
        <pt x="203" y="20" on="1"/>
        <pt x="110" y="20" on="0"/>
        <pt x="20" y="119" on="0"/>
        <pt x="20" y="217" on="1"/>
        <pt x="20" y="255" on="0"/>
        <pt x="40" y="337" on="0"/>
        <pt x="79" y="418" on="0"/>
        <pt x="133" y="491" on="0"/>
        <pt x="201" y="547" on="0"/>
        <pt x="278" y="580" on="0"/>
        <pt x="321" y="580" on="1"/>
        <pt x="393" y="573" on="0"/>
        <pt x="475" y="516" on="0"/>
        <pt x="517" y="427" on="0"/>
        <pt x="533" y="318" on="0"/>
        <pt x="542" y="202" on="0"/>
        <pt x="556" y="86" on="0"/>
        <pt x="578" y="37" on="1"/>
        <pt x="565" y="4" on="0"/>
        <pt x="542" y="-23" on="0"/>
        <pt x="514" y="-5" on="0"/>
        <pt x="477" y="65" on="0"/>
      </contour>
      <contour>
        <pt x="105" y="215" on="1"/>
        <pt x="105" y="158" on="0"/>
        <pt x="148" y="105" on="0"/>
        <pt x="203" y="105" on="1"/>
        <pt x="244" y="105" on="0"/>
        <pt x="319" y="134" on="0"/>
        <pt x="375" y="185" on="0"/>
        <pt x="409" y="257" on="0"/>
        <pt x="409" y="301" on="1"/>
        <pt x="409" y="319" on="0"/>
        <pt x="411" y="384" on="0"/>
        <pt x="401" y="448" on="0"/>
        <pt x="373" y="495" on="0"/>
        <pt x="345" y="495" on="1"/>
        <pt x="293" y="495" on="0"/>
        <pt x="205" y="442" on="0"/>
        <pt x="141" y="360" on="0"/>
        <pt x="105" y="261" on="0"/>
      </contour>
    </TTGlyph>
    <TTGlyph name="a35" xMin="20" yMin="-3" xMax="712" yMax="771">
      <contour>
        <pt x="20" y="399" on="1"/>
        <pt x="20" y="422" on="0"/>
        <pt x="49" y="450" on="0"/>
        <pt x="93" y="466" on="0"/>
        <pt x="146" y="478" on="0"/>
        <pt x="193" y="492" on="0"/>
        <pt x="229" y="515" on="0"/>
        <pt x="236" y="535" on="1"/>
        <pt x="301" y="751" on="1"/>
        <pt x="302" y="755" on="0"/>
        <pt x="318" y="771" on="0"/>
        <pt x="321" y="771" on="1"/>
        <pt x="346" y="771" on="0"/>
        <pt x="381" y="745" on="0"/>
        <pt x="408" y="705" on="0"/>
        <pt x="430" y="655" on="0"/>
        <pt x="453" y="607" on="0"/>
        <pt x="477" y="568" on="0"/>
        <pt x="493" y="558" on="1"/>
        <pt x="510" y="560" on="0"/>
        <pt x="556" y="566" on="0"/>
        <pt x="605" y="569" on="0"/>
        <pt x="652" y="566" on="0"/>
        <pt x="689" y="551" on="0"/>
        <pt x="712" y="519" on="0"/>
        <pt x="712" y="493" on="1"/>
        <pt x="712" y="463" on="0"/>
        <pt x="683" y="426" on="0"/>
        <pt x="648" y="392" on="0"/>
        <pt x="619" y="355" on="0"/>
        <pt x="619" y="325" on="1"/>
        <pt x="619" y="290" on="0"/>
        <pt x="630" y="240" on="0"/>
        <pt x="648" y="192" on="0"/>
        <pt x="672" y="131" on="0"/>
        <pt x="686" y="85" on="1"/>
        <pt x="686" y="65" on="1"/>
        <pt x="674" y="37" on="0"/>
        <pt x="643" y="28" on="0"/>
        <pt x="606" y="46" on="0"/>
        <pt x="565" y="82" on="0"/>
        <pt x="523" y="114" on="0"/>
        <pt x="481" y="136" on="0"/>
        <pt x="461" y="130" on="1"/>
        <pt x="437" y="130" on="0"/>
        <pt x="402" y="111" on="0"/>
        <pt x="374" y="82" on="0"/>
        <pt x="349" y="47" on="0"/>
        <pt x="322" y="18" on="0"/>
        <pt x="291" y="-2" on="0"/>
        <pt x="270" y="-2" on="1"/>
        <pt x="265" y="-2" on="0"/>
        <pt x="247" y="-3" on="0"/>
        <pt x="229" y="1" on="0"/>
        <pt x="215" y="11" on="0"/>
        <pt x="215" y="22" on="1"/>
        <pt x="215" y="236" on="1"/>
        <pt x="215" y="254" on="0"/>
        <pt x="186" y="278" on="0"/>
        <pt x="143" y="298" on="0"/>
        <pt x="92" y="316" on="0"/>
        <pt x="49" y="340" on="0"/>
        <pt x="20" y="373" on="0"/>
      </contour>
    </TTGlyph>
    <TTGlyph name="aacute" xMin="20" yMin="-23" xMax="578" yMax="864">
      <component glyphName="a" x="0" y="0" flags="0x204"/>
      <component glyphName="acute" x="75" y="89" flags="0x4"/>
    </TTGlyph>
    <TTGlyph name="abreve" xMin="20" yMin="-23" xMax="578" yMax="859">
      <component glyphName="a" x="0" y="0" flags="0x204"/>
      <component glyphName="breve" x="26" y="0" flags="0x4"/>
    </TTGlyph>
    <TTGlyph name="acircumflex" xMin="20" yMin="-23" xMax="578" yMax="982">
      <component glyphName="a" x="0" y="0" flags="0x204"/>
      <component glyphName="circumflex" x="87" y="0" flags="0x4"/>
    </TTGlyph>
    <TTGlyph name="acute" xMin="161" yMin="566" xMax="319" yMax="775">
      <contour>
        <pt x="319" y="740" on="1"/>
        <pt x="211" y="580" on="1"/>
        <pt x="199" y="566" on="0"/>
        <pt x="175" y="570" on="0"/>
        <pt x="162" y="589" on="0"/>
        <pt x="161" y="618" on="0"/>
        <pt x="172" y="632" on="1"/>
        <pt x="175" y="635" on="0"/>
        <pt x="182" y="646" on="0"/>
        <pt x="183" y="648" on="1"/>
        <pt x="193" y="664" on="0"/>
        <pt x="219" y="704" on="0"/>
        <pt x="247" y="739" on="0"/>
        <pt x="274" y="766" on="0"/>
        <pt x="298" y="775" on="0"/>
        <pt x="315" y="762" on="0"/>
      </contour>
    </TTGlyph>
    <TTGlyph name="adieresis" xMin="20" yMin="-23" xMax="578" yMax="785">
      <component glyphName="a" x="0" y="0" flags="0x204"/>
      <component glyphName="dieresis" x="-30" y="0" flags="0x4"/>
    </TTGlyph>
    <TTGlyph name="ae" xMin="20" yMin="-23" xMax="992" yMax="580">
      <contour>
        <pt x="450" y="129" on="1"/>
        <pt x="412" y="103" on="0"/>
        <pt x="357" y="62" on="0"/>
        <pt x="305" y="34" on="0"/>
        <pt x="246" y="20" on="0"/>
        <pt x="203" y="20" on="1"/>
        <pt x="110" y="20" on="0"/>
        <pt x="20" y="119" on="0"/>
        <pt x="20" y="217" on="1"/>
        <pt x="20" y="255" on="0"/>
        <pt x="40" y="337" on="0"/>
        <pt x="79" y="418" on="0"/>
        <pt x="133" y="491" on="0"/>
        <pt x="201" y="547" on="0"/>
        <pt x="278" y="580" on="0"/>
        <pt x="321" y="580" on="1"/>
        <pt x="369" y="576" on="0"/>
        <pt x="436" y="546" on="0"/>
        <pt x="482" y="501" on="0"/>
        <pt x="509" y="442" on="0"/>
        <pt x="517" y="408" on="1"/>
        <pt x="529" y="442" on="0"/>
        <pt x="568" y="501" on="0"/>
        <pt x="621" y="546" on="0"/>
        <pt x="691" y="571" on="0"/>
        <pt x="734" y="571" on="1"/>
        <pt x="771" y="571" on="0"/>
        <pt x="828" y="544" on="0"/>
        <pt x="866" y="500" on="0"/>
        <pt x="885" y="441" on="0"/>
        <pt x="885" y="409" on="1"/>
        <pt x="885" y="358" on="0"/>
        <pt x="837" y="262" on="0"/>
        <pt x="758" y="189" on="0"/>
        <pt x="657" y="152" on="0"/>
        <pt x="604" y="162" on="1"/>
        <pt x="605" y="133" on="0"/>
        <pt x="642" y="98" on="0"/>
        <pt x="694" y="80" on="0"/>
        <pt x="751" y="75" on="0"/>
        <pt x="771" y="75" on="1"/>
        <pt x="794" y="75" on="0"/>
        <pt x="835" y="83" on="0"/>
        <pt x="875" y="93" on="0"/>
        <pt x="915" y="101" on="0"/>
        <pt x="938" y="101" on="1"/>
        <pt x="947" y="101" on="0"/>
        <pt x="966" y="99" on="0"/>
        <pt x="982" y="92" on="0"/>
        <pt x="992" y="77" on="0"/>
        <pt x="992" y="66" on="1"/>
        <pt x="992" y="47" on="0"/>
        <pt x="964" y="22" on="0"/>
        <pt x="921" y="4" on="0"/>
        <pt x="868" y="-5" on="0"/>
        <pt x="819" y="-10" on="0"/>
        <pt x="778" y="-11" on="0"/>
        <pt x="769" y="-11" on="1"/>
        <pt x="704" y="-11" on="0"/>
        <pt x="601" y="28" on="0"/>
        <pt x="567" y="66" on="1"/>
        <pt x="571" y="51" on="0"/>
        <pt x="578" y="37" on="1"/>
        <pt x="565" y="4" on="0"/>
        <pt x="542" y="-23" on="0"/>
        <pt x="514" y="-5" on="0"/>
        <pt x="477" y="65" on="0"/>
      </contour>
      <contour>
        <pt x="105" y="215" on="1"/>
        <pt x="105" y="158" on="0"/>
        <pt x="148" y="105" on="0"/>
        <pt x="203" y="105" on="1"/>
        <pt x="244" y="105" on="0"/>
        <pt x="319" y="134" on="0"/>
        <pt x="375" y="185" on="0"/>
        <pt x="409" y="257" on="0"/>
        <pt x="409" y="301" on="1"/>
        <pt x="409" y="319" on="0"/>
        <pt x="411" y="384" on="0"/>
        <pt x="401" y="448" on="0"/>
        <pt x="373" y="495" on="0"/>
        <pt x="345" y="495" on="1"/>
        <pt x="293" y="495" on="0"/>
        <pt x="205" y="442" on="0"/>
        <pt x="141" y="360" on="0"/>
        <pt x="105" y="261" on="0"/>
      </contour>
      <contour>
        <pt x="602" y="334" on="1"/>
        <pt x="602" y="316" on="0"/>
        <pt x="606" y="291" on="0"/>
        <pt x="617" y="274" on="0"/>
        <pt x="639" y="267" on="0"/>
        <pt x="657" y="267" on="1"/>
        <pt x="683" y="267" on="0"/>
        <pt x="733" y="286" on="0"/>
        <pt x="774" y="319" on="0"/>
        <pt x="799" y="366" on="0"/>
        <pt x="799" y="393" on="1"/>
        <pt x="799" y="408" on="0"/>
        <pt x="793" y="440" on="0"/>
        <pt x="778" y="467" on="0"/>
        <pt x="752" y="484" on="0"/>
        <pt x="733" y="484" on="1"/>
        <pt x="702" y="484" on="0"/>
        <pt x="653" y="457" on="0"/>
        <pt x="620" y="414" on="0"/>
        <pt x="602" y="361" on="0"/>
      </contour>
    </TTGlyph>
    <TTGlyph name="aeacute" xMin="20" yMin="-23" xMax="992" yMax="775">
      <component glyphName="ae" x="0" y="0" flags="0x204"/>
      <component glyphName="acute" x="271" y="0" flags="0x4"/>
    </TTGlyph>
    <TTGlyph name="agrave" xMin="20" yMin="-23" xMax="578" yMax="830">
      <component glyphName="a" x="0" y="0" flags="0x204"/>
      <component glyphName="grave" x="114" y="42" flags="0x4"/>
    </TTGlyph>
    <TTGlyph name="amacron" xMin="20" yMin="-23" xMax="578" yMax="738">
      <component glyphName="a" x="0" y="0" flags="0x204"/>
      <component glyphName="macron" x="103" y="122" flags="0x4"/>
    </TTGlyph>
    <TTGlyph name="ampersand" xMin="0" yMin="0" xMax="714" yMax="818">
      <contour>
        <pt x="129" y="160" on="1"/>
        <pt x="129" y="184" on="0"/>
        <pt x="136" y="229" on="0"/>
        <pt x="145" y="274" on="0"/>
        <pt x="152" y="319" on="0"/>
        <pt x="152" y="343" on="1"/>
        <pt x="152" y="346" on="0"/>
        <pt x="151" y="357" on="0"/>
        <pt x="151" y="372" on="0"/>
        <pt x="150" y="383" on="0"/>
        <pt x="150" y="386" on="1"/>
        <pt x="129" y="402" on="0"/>
        <pt x="76" y="445" on="0"/>
        <pt x="31" y="497" on="0"/>
        <pt x="0" y="556" on="0"/>
        <pt x="0" y="589" on="1"/>
        <pt x="0" y="637" on="0"/>
        <pt x="61" y="720" on="0"/>
        <pt x="150" y="782" on="0"/>
        <pt x="250" y="818" on="0"/>
        <pt x="290" y="818" on="1"/>
        <pt x="349" y="818" on="0"/>
        <pt x="390" y="764" on="0"/>
        <pt x="390" y="706" on="1"/>
        <pt x="390" y="666" on="0"/>
        <pt x="361" y="592" on="0"/>
        <pt x="327" y="520" on="0"/>
        <pt x="298" y="447" on="0"/>
        <pt x="298" y="408" on="1"/>
        <pt x="298" y="383" on="0"/>
        <pt x="337" y="344" on="0"/>
        <pt x="390" y="316" on="0"/>
        <pt x="445" y="301" on="0"/>
        <pt x="461" y="301" on="1"/>
        <pt x="472" y="301" on="1"/>
        <pt x="472" y="304" on="0"/>
        <pt x="488" y="353" on="0"/>
        <pt x="517" y="408" on="0"/>
        <pt x="555" y="451" on="0"/>
        <pt x="579" y="450" on="1"/>
        <pt x="586" y="440" on="0"/>
        <pt x="595" y="426" on="0"/>
        <pt x="600" y="412" on="0"/>
        <pt x="602" y="397" on="0"/>
        <pt x="602" y="386" on="1"/>
        <pt x="602" y="371" on="0"/>
        <pt x="594" y="342" on="0"/>
        <pt x="585" y="313" on="0"/>
        <pt x="577" y="284" on="0"/>
        <pt x="577" y="268" on="1"/>
        <pt x="577" y="266" on="0"/>
        <pt x="578" y="257" on="0"/>
        <pt x="578" y="247" on="0"/>
        <pt x="579" y="237" on="0"/>
        <pt x="579" y="236" on="1"/>
        <pt x="607" y="227" on="0"/>
        <pt x="657" y="212" on="0"/>
        <pt x="693" y="190" on="0"/>
        <pt x="714" y="153" on="0"/>
        <pt x="714" y="122" on="1"/>
        <pt x="695" y="103" on="0"/>
        <pt x="650" y="105" on="0"/>
        <pt x="597" y="127" on="0"/>
        <pt x="535" y="159" on="0"/>
        <pt x="501" y="171" on="1"/>
        <pt x="482" y="171" on="0"/>
        <pt x="443" y="146" on="0"/>
        <pt x="400" y="108" on="0"/>
        <pt x="354" y="63" on="0"/>
        <pt x="305" y="25" on="0"/>
        <pt x="253" y="0" on="0"/>
        <pt x="225" y="0" on="1"/>
        <pt x="193" y="0" on="0"/>
        <pt x="156" y="32" on="0"/>
        <pt x="135" y="81" on="0"/>
        <pt x="129" y="137" on="0"/>
      </contour>
      <contour>
        <pt x="212" y="158" on="1"/>
        <pt x="212" y="150" on="0"/>
        <pt x="214" y="131" on="0"/>
        <pt x="220" y="117" on="0"/>
        <pt x="234" y="107" on="0"/>
        <pt x="246" y="107" on="1"/>
        <pt x="267" y="107" on="0"/>
        <pt x="314" y="129" on="0"/>
        <pt x="359" y="161" on="0"/>
        <pt x="396" y="199" on="0"/>
        <pt x="408" y="215" on="1"/>
        <pt x="407" y="216" on="0"/>
        <pt x="401" y="222" on="0"/>
        <pt x="394" y="229" on="0"/>
        <pt x="387" y="235" on="0"/>
        <pt x="386" y="236" on="1"/>
        <pt x="379" y="240" on="0"/>
        <pt x="347" y="260" on="0"/>
        <pt x="313" y="281" on="0"/>
        <pt x="283" y="298" on="0"/>
        <pt x="278" y="301" on="1"/>
        <pt x="275" y="301" on="0"/>
        <pt x="274" y="301" on="1"/>
        <pt x="272" y="301" on="0"/>
        <pt x="269" y="302" on="0"/>
        <pt x="268" y="302" on="1"/>
        <pt x="247" y="302" on="0"/>
        <pt x="225" y="269" on="0"/>
        <pt x="214" y="222" on="0"/>
        <pt x="212" y="174" on="0"/>
      </contour>
      <contour>
        <pt x="84" y="577" on="1"/>
        <pt x="84" y="574" on="0"/>
        <pt x="84" y="568" on="0"/>
        <pt x="85" y="565" on="1"/>
        <pt x="85" y="562" on="0"/>
        <pt x="85" y="558" on="1"/>
        <pt x="193" y="450" on="1"/>
        <pt x="226" y="471" on="0"/>
        <pt x="272" y="538" on="0"/>
        <pt x="301" y="616" on="0"/>
        <pt x="315" y="699" on="0"/>
        <pt x="315" y="735" on="1"/>
        <pt x="281" y="735" on="0"/>
        <pt x="201" y="715" on="0"/>
        <pt x="130" y="677" on="0"/>
        <pt x="84" y="617" on="0"/>
      </contour>
    </TTGlyph>
    <TTGlyph name="aogonek" xMin="20" yMin="-185" xMax="616" yMax="580">
      <contour>
        <pt x="450" y="129" on="1"/>
        <pt x="412" y="103" on="0"/>
        <pt x="357" y="62" on="0"/>
        <pt x="305" y="34" on="0"/>
        <pt x="246" y="20" on="0"/>
        <pt x="203" y="20" on="1"/>
        <pt x="110" y="20" on="0"/>
        <pt x="20" y="119" on="0"/>
        <pt x="20" y="217" on="1"/>
        <pt x="20" y="255" on="0"/>
        <pt x="40" y="337" on="0"/>
        <pt x="79" y="418" on="0"/>
        <pt x="133" y="491" on="0"/>
        <pt x="201" y="547" on="0"/>
        <pt x="278" y="580" on="0"/>
        <pt x="321" y="580" on="1"/>
        <pt x="393" y="573" on="0"/>
        <pt x="475" y="516" on="0"/>
        <pt x="517" y="427" on="0"/>
        <pt x="533" y="318" on="0"/>
        <pt x="542" y="202" on="0"/>
        <pt x="556" y="86" on="0"/>
        <pt x="578" y="37" on="1"/>
        <pt x="565" y="4" on="0"/>
        <pt x="542" y="-23" on="0"/>
        <pt x="527" y="-14" on="1"/>
        <pt x="521" y="-10" on="0"/>
        <pt x="514" y="0" on="1"/>
        <pt x="494" y="-23" on="1"/>
        <pt x="480" y="-41" on="0"/>
        <pt x="459" y="-75" on="0"/>
        <pt x="459" y="-84" on="1"/>
        <pt x="459" y="-98" on="0"/>
        <pt x="472" y="-115" on="0"/>
        <pt x="495" y="-122" on="0"/>
        <pt x="523" y="-114" on="0"/>
        <pt x="537" y="-104" on="1"/>
        <pt x="574" y="-77" on="0"/>
        <pt x="609" y="-68" on="0"/>
        <pt x="616" y="-86" on="0"/>
        <pt x="600" y="-122" on="0"/>
        <pt x="572" y="-158" on="0"/>
        <pt x="538" y="-185" on="0"/>
        <pt x="523" y="-185" on="1"/>
        <pt x="494" y="-185" on="0"/>
        <pt x="444" y="-171" on="0"/>
        <pt x="406" y="-145" on="0"/>
        <pt x="384" y="-106" on="0"/>
        <pt x="384" y="-82" on="1"/>
        <pt x="384" y="-62" on="0"/>
        <pt x="401" y="-21" on="0"/>
        <pt x="429" y="18" on="0"/>
        <pt x="446" y="34" on="1"/>
        <pt x="463" y="49" on="0"/>
        <pt x="480" y="60" on="1"/>
        <pt x="466" y="89" on="0"/>
      </contour>
      <contour>
        <pt x="105" y="215" on="1"/>
        <pt x="105" y="158" on="0"/>
        <pt x="148" y="105" on="0"/>
        <pt x="203" y="105" on="1"/>
        <pt x="244" y="105" on="0"/>
        <pt x="319" y="134" on="0"/>
        <pt x="375" y="185" on="0"/>
        <pt x="409" y="257" on="0"/>
        <pt x="409" y="301" on="1"/>
        <pt x="409" y="319" on="0"/>
        <pt x="411" y="384" on="0"/>
        <pt x="401" y="448" on="0"/>
        <pt x="373" y="495" on="0"/>
        <pt x="345" y="495" on="1"/>
        <pt x="293" y="495" on="0"/>
        <pt x="205" y="442" on="0"/>
        <pt x="141" y="360" on="0"/>
        <pt x="105" y="261" on="0"/>
      </contour>
    </TTGlyph>
    <TTGlyph name="aring" xMin="20" yMin="-23" xMax="578" yMax="841">
      <contour>
        <pt x="162" y="679" on="1"/>
        <pt x="162" y="714" on="0"/>
        <pt x="197" y="773" on="0"/>
        <pt x="254" y="816" on="0"/>
        <pt x="327" y="841" on="0"/>
        <pt x="364" y="841" on="1"/>
        <pt x="383" y="841" on="0"/>
        <pt x="416" y="816" on="0"/>
        <pt x="437" y="781" on="0"/>
        <pt x="449" y="742" on="0"/>
        <pt x="449" y="726" on="1"/>
        <pt x="449" y="695" on="0"/>
        <pt x="417" y="636" on="0"/>
        <pt x="391" y="613" on="1"/>
        <pt x="366" y="592" on="0"/>
        <pt x="337" y="579" on="1"/>
        <pt x="398" y="570" on="0"/>
        <pt x="434" y="544" on="1"/>
        <pt x="475" y="516" on="0"/>
        <pt x="517" y="427" on="0"/>
        <pt x="533" y="318" on="0"/>
        <pt x="542" y="202" on="0"/>
        <pt x="556" y="86" on="0"/>
        <pt x="578" y="37" on="1"/>
        <pt x="565" y="4" on="0"/>
        <pt x="542" y="-23" on="0"/>
        <pt x="514" y="-5" on="0"/>
        <pt x="477" y="65" on="0"/>
        <pt x="450" y="129" on="1"/>
        <pt x="412" y="103" on="0"/>
        <pt x="357" y="62" on="0"/>
        <pt x="305" y="34" on="0"/>
        <pt x="246" y="20" on="0"/>
        <pt x="203" y="20" on="1"/>
        <pt x="110" y="20" on="0"/>
        <pt x="20" y="119" on="0"/>
        <pt x="20" y="217" on="1"/>
        <pt x="20" y="255" on="0"/>
        <pt x="40" y="337" on="0"/>
        <pt x="79" y="418" on="0"/>
        <pt x="133" y="491" on="0"/>
        <pt x="201" y="547" on="0"/>
        <pt x="239" y="563" on="1"/>
        <pt x="240" y="564" on="1"/>
        <pt x="228" y="567" on="0"/>
        <pt x="218" y="571" on="1"/>
        <pt x="198" y="580" on="0"/>
        <pt x="173" y="612" on="0"/>
        <pt x="162" y="654" on="0"/>
      </contour>
      <contour>
        <pt x="105" y="215" on="1"/>
        <pt x="105" y="158" on="0"/>
        <pt x="148" y="105" on="0"/>
        <pt x="203" y="105" on="1"/>
        <pt x="244" y="105" on="0"/>
        <pt x="319" y="134" on="0"/>
        <pt x="375" y="185" on="0"/>
        <pt x="409" y="257" on="0"/>
        <pt x="409" y="301" on="1"/>
        <pt x="409" y="319" on="0"/>
        <pt x="411" y="384" on="0"/>
        <pt x="401" y="448" on="0"/>
        <pt x="373" y="495" on="0"/>
        <pt x="345" y="495" on="1"/>
        <pt x="293" y="495" on="0"/>
        <pt x="205" y="442" on="0"/>
        <pt x="141" y="360" on="0"/>
        <pt x="105" y="261" on="0"/>
      </contour>
      <contour>
        <pt x="237" y="677" on="1"/>
        <pt x="237" y="662" on="0"/>
        <pt x="238" y="642" on="0"/>
        <pt x="247" y="628" on="0"/>
        <pt x="265" y="621" on="0"/>
        <pt x="283" y="621" on="1"/>
        <pt x="328" y="621" on="0"/>
        <pt x="382" y="670" on="0"/>
        <pt x="382" y="710" on="1"/>
        <pt x="382" y="719" on="0"/>
        <pt x="377" y="743" on="0"/>
        <pt x="368" y="766" on="0"/>
        <pt x="351" y="781" on="0"/>
        <pt x="339" y="781" on="1"/>
        <pt x="323" y="781" on="0"/>
        <pt x="287" y="758" on="0"/>
        <pt x="256" y="724" on="0"/>
        <pt x="237" y="688" on="0"/>
      </contour>
    </TTGlyph>
    <TTGlyph name="asciicircum" xMin="27" yMin="651" xMax="419" yMax="982">
      <contour>
        <pt x="191" y="982" on="1"/>
        <pt x="211" y="971" on="0"/>
        <pt x="253" y="929" on="0"/>
        <pt x="296" y="876" on="0"/>
        <pt x="337" y="817" on="0"/>
        <pt x="375" y="763" on="0"/>
        <pt x="408" y="717" on="0"/>
        <pt x="419" y="705" on="1"/>
        <pt x="418" y="703" on="0"/>
        <pt x="408" y="691" on="0"/>
        <pt x="394" y="678" on="0"/>
        <pt x="380" y="664" on="0"/>
        <pt x="376" y="661" on="1"/>
        <pt x="373" y="661" on="0"/>
        <pt x="372" y="661" on="1"/>
        <pt x="369" y="660" on="0"/>
        <pt x="366" y="660" on="1"/>
        <pt x="362" y="660" on="0"/>
        <pt x="359" y="661" on="1"/>
        <pt x="356" y="661" on="0"/>
        <pt x="355" y="661" on="1"/>
        <pt x="325" y="681" on="0"/>
        <pt x="293" y="736" on="0"/>
        <pt x="265" y="785" on="0"/>
        <pt x="229" y="819" on="0"/>
        <pt x="196" y="819" on="1"/>
        <pt x="175" y="768" on="0"/>
        <pt x="151" y="704" on="0"/>
        <pt x="135" y="668" on="0"/>
        <pt x="121" y="653" on="0"/>
        <pt x="98" y="651" on="0"/>
        <pt x="59" y="655" on="0"/>
        <pt x="27" y="655" on="1"/>
        <pt x="27" y="674" on="0"/>
        <pt x="40" y="732" on="0"/>
        <pt x="63" y="798" on="0"/>
        <pt x="94" y="868" on="0"/>
        <pt x="130" y="928" on="0"/>
        <pt x="171" y="973" on="0"/>
      </contour>
    </TTGlyph>
    <TTGlyph name="asciitilde" xMin="34" yMin="420" xMax="600" yMax="721">
      <contour>
        <pt x="34" y="514" on="1"/>
        <pt x="34" y="547" on="0"/>
        <pt x="46" y="620" on="0"/>
        <pt x="78" y="681" on="0"/>
        <pt x="135" y="721" on="0"/>
        <pt x="180" y="721" on="1"/>
        <pt x="212" y="721" on="0"/>
        <pt x="259" y="692" on="0"/>
        <pt x="296" y="649" on="0"/>
        <pt x="328" y="598" on="0"/>
        <pt x="364" y="554" on="0"/>
        <pt x="407" y="526" on="0"/>
        <pt x="436" y="526" on="1"/>
        <pt x="470" y="526" on="0"/>
        <pt x="501" y="546" on="0"/>
        <pt x="511" y="579" on="0"/>
        <pt x="508" y="619" on="0"/>
        <pt x="508" y="658" on="0"/>
        <pt x="517" y="689" on="0"/>
        <pt x="534" y="698" on="1"/>
        <pt x="544" y="698" on="1"/>
        <pt x="554" y="698" on="1"/>
        <pt x="557" y="697" on="0"/>
        <pt x="570" y="692" on="0"/>
        <pt x="583" y="686" on="0"/>
        <pt x="596" y="679" on="0"/>
        <pt x="598" y="678" on="1"/>
        <pt x="598" y="674" on="0"/>
        <pt x="599" y="659" on="0"/>
        <pt x="599" y="642" on="0"/>
        <pt x="600" y="626" on="0"/>
        <pt x="600" y="624" on="1"/>
        <pt x="600" y="536" on="0"/>
        <pt x="508" y="437" on="0"/>
        <pt x="422" y="437" on="1"/>
        <pt x="389" y="437" on="0"/>
        <pt x="341" y="463" on="0"/>
        <pt x="304" y="503" on="0"/>
        <pt x="274" y="550" on="0"/>
        <pt x="242" y="589" on="0"/>
        <pt x="205" y="616" on="0"/>
        <pt x="180" y="616" on="1"/>
        <pt x="148" y="616" on="0"/>
        <pt x="121" y="591" on="0"/>
        <pt x="111" y="553" on="0"/>
        <pt x="111" y="507" on="0"/>
        <pt x="105" y="463" on="0"/>
        <pt x="86" y="428" on="0"/>
        <pt x="63" y="420" on="1"/>
        <pt x="40" y="441" on="1"/>
        <pt x="40" y="444" on="0"/>
        <pt x="38" y="463" on="0"/>
        <pt x="36" y="485" on="0"/>
        <pt x="34" y="508" on="0"/>
      </contour>
    </TTGlyph>
    <TTGlyph name="asterisk" xMin="0" yMin="17" xMax="495" yMax="621">
      <contour>
        <pt x="174" y="292" on="1"/>
        <pt x="174" y="293" on="0"/>
        <pt x="172" y="297" on="1"/>
        <pt x="171" y="299" on="0"/>
        <pt x="171" y="301" on="1"/>
        <pt x="168" y="303" on="0"/>
        <pt x="157" y="310" on="0"/>
        <pt x="143" y="317" on="0"/>
        <pt x="131" y="321" on="0"/>
        <pt x="129" y="321" on="1"/>
        <pt x="126" y="321" on="0"/>
        <pt x="107" y="315" on="0"/>
        <pt x="85" y="308" on="0"/>
        <pt x="67" y="301" on="0"/>
        <pt x="65" y="301" on="1"/>
        <pt x="63" y="301" on="0"/>
        <pt x="45" y="298" on="0"/>
        <pt x="40" y="298" on="1"/>
        <pt x="26" y="298" on="0"/>
        <pt x="0" y="313" on="0"/>
        <pt x="0" y="332" on="1"/>
        <pt x="0" y="360" on="0"/>
        <pt x="31" y="396" on="0"/>
        <pt x="76" y="417" on="0"/>
        <pt x="129" y="426" on="0"/>
        <pt x="150" y="428" on="1"/>
        <pt x="146" y="436" on="0"/>
        <pt x="127" y="472" on="0"/>
        <pt x="106" y="514" on="0"/>
        <pt x="88" y="551" on="0"/>
        <pt x="85" y="558" on="1"/>
        <pt x="85" y="560" on="0"/>
        <pt x="84" y="574" on="0"/>
        <pt x="84" y="579" on="1"/>
        <pt x="84" y="583" on="0"/>
        <pt x="85" y="598" on="0"/>
        <pt x="89" y="611" on="0"/>
        <pt x="98" y="621" on="0"/>
        <pt x="107" y="621" on="1"/>
        <pt x="110" y="621" on="0"/>
        <pt x="121" y="616" on="0"/>
        <pt x="136" y="609" on="0"/>
        <pt x="148" y="603" on="0"/>
        <pt x="150" y="600" on="1"/>
        <pt x="156" y="594" on="0"/>
        <pt x="181" y="558" on="0"/>
        <pt x="208" y="517" on="0"/>
        <pt x="231" y="480" on="0"/>
        <pt x="236" y="472" on="1"/>
        <pt x="255" y="495" on="0"/>
        <pt x="292" y="535" on="0"/>
        <pt x="334" y="566" on="0"/>
        <pt x="383" y="583" on="0"/>
        <pt x="414" y="583" on="1"/>
        <pt x="414" y="558" on="0"/>
        <pt x="391" y="522" on="0"/>
        <pt x="364" y="489" on="0"/>
        <pt x="341" y="454" on="0"/>
        <pt x="341" y="428" on="1"/>
        <pt x="341" y="425" on="0"/>
        <pt x="343" y="409" on="0"/>
        <pt x="343" y="408" on="1"/>
        <pt x="359" y="407" on="0"/>
        <pt x="410" y="407" on="0"/>
        <pt x="460" y="396" on="0"/>
        <pt x="495" y="370" on="0"/>
        <pt x="495" y="343" on="1"/>
        <pt x="495" y="319" on="0"/>
        <pt x="474" y="301" on="0"/>
        <pt x="442" y="299" on="0"/>
        <pt x="404" y="305" on="0"/>
        <pt x="370" y="306" on="0"/>
        <pt x="346" y="296" on="0"/>
        <pt x="343" y="278" on="1"/>
        <pt x="345" y="274" on="0"/>
        <pt x="355" y="247" on="0"/>
        <pt x="371" y="211" on="0"/>
        <pt x="388" y="166" on="0"/>
        <pt x="401" y="126" on="0"/>
        <pt x="409" y="94" on="0"/>
        <pt x="408" y="85" on="1"/>
        <pt x="408" y="84" on="0"/>
        <pt x="398" y="72" on="0"/>
        <pt x="383" y="58" on="0"/>
        <pt x="369" y="46" on="0"/>
        <pt x="364" y="43" on="1"/>
        <pt x="361" y="42" on="0"/>
        <pt x="359" y="41" on="1"/>
        <pt x="356" y="40" on="0"/>
        <pt x="354" y="40" on="1"/>
        <pt x="330" y="40" on="0"/>
        <pt x="302" y="81" on="0"/>
        <pt x="283" y="138" on="0"/>
        <pt x="267" y="197" on="0"/>
        <pt x="257" y="215" on="1"/>
        <pt x="236" y="181" on="0"/>
        <pt x="218" y="111" on="0"/>
        <pt x="194" y="53" on="0"/>
        <pt x="148" y="17" on="0"/>
        <pt x="99" y="17" on="1"/>
        <pt x="99" y="52" on="0"/>
        <pt x="114" y="118" on="0"/>
        <pt x="137" y="182" on="0"/>
        <pt x="161" y="246" on="0"/>
        <pt x="171" y="278" on="1"/>
        <pt x="171" y="281" on="0"/>
        <pt x="172" y="283" on="1"/>
        <pt x="174" y="289" on="0"/>
      </contour>
    </TTGlyph>
    <TTGlyph name="at" xMin="20" yMin="-2" xMax="836" yMax="816">
      <contour>
        <pt x="20" y="349" on="1"/>
        <pt x="20" y="444" on="0"/>
        <pt x="91" y="614" on="0"/>
        <pt x="213" y="742" on="0"/>
        <pt x="380" y="816" on="0"/>
        <pt x="475" y="816" on="1"/>
        <pt x="538" y="816" on="0"/>
        <pt x="666" y="761" on="0"/>
        <pt x="770" y="669" on="0"/>
        <pt x="836" y="548" on="0"/>
        <pt x="836" y="482" on="1"/>
        <pt x="836" y="427" on="0"/>
        <pt x="798" y="310" on="0"/>
        <pt x="731" y="203" on="0"/>
        <pt x="641" y="109" on="0"/>
        <pt x="535" y="39" on="0"/>
        <pt x="421" y="-2" on="0"/>
        <pt x="364" y="-2" on="1"/>
        <pt x="293" y="-2" on="0"/>
        <pt x="168" y="55" on="0"/>
        <pt x="75" y="151" on="0"/>
        <pt x="20" y="278" on="0"/>
      </contour>
      <contour>
        <pt x="105" y="349" on="1"/>
        <pt x="105" y="291" on="0"/>
        <pt x="148" y="193" on="0"/>
        <pt x="223" y="122" on="0"/>
        <pt x="323" y="84" on="0"/>
        <pt x="379" y="84" on="1"/>
        <pt x="413" y="84" on="0"/>
        <pt x="475" y="104" on="0"/>
        <pt x="530" y="139" on="0"/>
        <pt x="579" y="187" on="0"/>
        <pt x="600" y="215" on="1"/>
        <pt x="588" y="228" on="0"/>
        <pt x="568" y="245" on="0"/>
        <pt x="550" y="255" on="0"/>
        <pt x="529" y="259" on="0"/>
        <pt x="516" y="259" on="1"/>
        <pt x="497" y="259" on="0"/>
        <pt x="461" y="251" on="0"/>
        <pt x="426" y="241" on="0"/>
        <pt x="389" y="233" on="0"/>
        <pt x="369" y="233" on="1"/>
        <pt x="348" y="233" on="0"/>
        <pt x="302" y="249" on="0"/>
        <pt x="262" y="278" on="0"/>
        <pt x="236" y="319" on="0"/>
        <pt x="236" y="343" on="1"/>
        <pt x="236" y="382" on="0"/>
        <pt x="276" y="452" on="0"/>
        <pt x="338" y="504" on="0"/>
        <pt x="415" y="535" on="0"/>
        <pt x="450" y="535" on="1"/>
        <pt x="490" y="535" on="0"/>
        <pt x="535" y="507" on="0"/>
        <pt x="560" y="463" on="0"/>
        <pt x="574" y="413" on="0"/>
        <pt x="596" y="370" on="0"/>
        <pt x="633" y="341" on="0"/>
        <pt x="668" y="341" on="1"/>
        <pt x="696" y="341" on="0"/>
        <pt x="730" y="374" on="0"/>
        <pt x="747" y="424" on="0"/>
        <pt x="752" y="481" on="0"/>
        <pt x="752" y="506" on="1"/>
        <pt x="752" y="552" on="0"/>
        <pt x="696" y="633" on="0"/>
        <pt x="611" y="695" on="0"/>
        <pt x="512" y="731" on="0"/>
        <pt x="471" y="731" on="1"/>
        <pt x="397" y="731" on="0"/>
        <pt x="264" y="667" on="0"/>
        <pt x="164" y="561" on="0"/>
        <pt x="105" y="423" on="0"/>
      </contour>
      <contour>
        <pt x="475" y="456" on="1"/>
        <pt x="409" y="445" on="0"/>
        <pt x="336" y="410" on="0"/>
        <pt x="308" y="371" on="0"/>
        <pt x="318" y="334" on="0"/>
        <pt x="350" y="310" on="0"/>
        <pt x="396" y="307" on="0"/>
        <pt x="440" y="334" on="0"/>
        <pt x="475" y="397" on="0"/>
        <pt x="481" y="453" on="1"/>
      </contour>
    </TTGlyph>
    <TTGlyph name="atilde" xMin="20" yMin="-23" xMax="603" yMax="889">
      <component glyphName="a" x="0" y="0" flags="0x204"/>
      <component glyphName="tilde" x="3" y="168" flags="0x4"/>
    </TTGlyph>
    <TTGlyph name="b" xMin="20" yMin="-2" xMax="580" yMax="868">
      <contour>
        <pt x="171" y="43" on="1"/>
        <pt x="140" y="133" on="0"/>
        <pt x="85" y="290" on="0"/>
        <pt x="44" y="441" on="0"/>
        <pt x="20" y="597" on="0"/>
        <pt x="20" y="686" on="1"/>
        <pt x="20" y="693" on="0"/>
        <pt x="21" y="730" on="0"/>
        <pt x="21" y="770" on="0"/>
        <pt x="22" y="807" on="0"/>
        <pt x="22" y="814" on="1"/>
        <pt x="31" y="834" on="0"/>
        <pt x="76" y="868" on="0"/>
        <pt x="99" y="868" on="1"/>
        <pt x="99" y="794" on="0"/>
        <pt x="103" y="627" on="0"/>
        <pt x="124" y="461" on="0"/>
        <pt x="171" y="302" on="0"/>
        <pt x="214" y="236" on="1"/>
        <pt x="215" y="260" on="0"/>
        <pt x="217" y="318" on="0"/>
        <pt x="226" y="376" on="0"/>
        <pt x="246" y="430" on="0"/>
        <pt x="285" y="472" on="0"/>
        <pt x="348" y="496" on="0"/>
        <pt x="396" y="495" on="1"/>
        <pt x="439" y="495" on="0"/>
        <pt x="508" y="463" on="0"/>
        <pt x="555" y="408" on="0"/>
        <pt x="580" y="335" on="0"/>
        <pt x="580" y="294" on="1"/>
        <pt x="580" y="239" on="0"/>
        <pt x="526" y="133" on="0"/>
        <pt x="437" y="49" on="0"/>
        <pt x="327" y="-2" on="0"/>
        <pt x="270" y="-2" on="1"/>
        <pt x="241" y="-2" on="0"/>
        <pt x="187" y="19" on="0"/>
      </contour>
      <contour>
        <pt x="408" y="408" on="1"/>
        <pt x="388" y="397" on="0"/>
        <pt x="344" y="367" on="0"/>
        <pt x="307" y="304" on="0"/>
        <pt x="281" y="196" on="0"/>
        <pt x="278" y="107" on="1"/>
        <pt x="280" y="107" on="0"/>
        <pt x="297" y="105" on="0"/>
        <pt x="300" y="105" on="1"/>
        <pt x="327" y="105" on="0"/>
        <pt x="396" y="139" on="0"/>
        <pt x="461" y="189" on="0"/>
        <pt x="509" y="250" on="0"/>
        <pt x="514" y="278" on="1"/>
        <pt x="517" y="295" on="0"/>
        <pt x="497" y="339" on="0"/>
        <pt x="464" y="380" on="0"/>
        <pt x="425" y="408" on="0"/>
      </contour>
    </TTGlyph>
    <TTGlyph name="backslash" xMin="16" yMin="127" xMax="497" yMax="851">
      <contour>
        <pt x="42" y="753" on="1"/>
        <pt x="40" y="757" on="0"/>
        <pt x="33" y="774" on="0"/>
        <pt x="25" y="793" on="0"/>
        <pt x="18" y="809" on="0"/>
        <pt x="16" y="812" on="1"/>
        <pt x="16" y="815" on="0"/>
        <pt x="24" y="828" on="0"/>
        <pt x="34" y="840" on="0"/>
        <pt x="44" y="849" on="0"/>
        <pt x="48" y="850" on="1"/>
        <pt x="57" y="851" on="0"/>
        <pt x="101" y="805" on="0"/>
        <pt x="160" y="727" on="0"/>
        <pt x="231" y="624" on="0"/>
        <pt x="305" y="510" on="0"/>
        <pt x="376" y="395" on="0"/>
        <pt x="436" y="294" on="0"/>
        <pt x="481" y="214" on="0"/>
        <pt x="491" y="193" on="1"/>
        <pt x="497" y="181" on="0"/>
        <pt x="491" y="164" on="0"/>
        <pt x="478" y="150" on="0"/>
        <pt x="461" y="141" on="0"/>
        <pt x="453" y="138" on="1"/>
        <pt x="429" y="127" on="0"/>
        <pt x="374" y="156" on="0"/>
        <pt x="316" y="220" on="0"/>
        <pt x="256" y="314" on="0"/>
        <pt x="196" y="420" on="0"/>
        <pt x="141" y="534" on="0"/>
        <pt x="94" y="637" on="0"/>
        <pt x="55" y="725" on="0"/>
      </contour>
    </TTGlyph>
    <TTGlyph name="bar" xMin="49" yMin="-19" xMax="247" yMax="723">
      <contour>
        <pt x="57" y="570" on="1"/>
        <pt x="57" y="598" on="0"/>
        <pt x="49" y="653" on="0"/>
        <pt x="53" y="697" on="0"/>
        <pt x="81" y="723" on="0"/>
        <pt x="116" y="723" on="1"/>
        <pt x="136" y="705" on="0"/>
        <pt x="171" y="617" on="0"/>
        <pt x="201" y="496" on="0"/>
        <pt x="224" y="351" on="0"/>
        <pt x="239" y="202" on="0"/>
        <pt x="247" y="57" on="0"/>
        <pt x="246" y="-3" on="1"/>
        <pt x="221" y="-19" on="0"/>
        <pt x="184" y="-5" on="0"/>
        <pt x="156" y="45" on="0"/>
        <pt x="133" y="123" on="0"/>
        <pt x="115" y="220" on="0"/>
        <pt x="101" y="326" on="0"/>
        <pt x="85" y="432" on="0"/>
        <pt x="67" y="530" on="0"/>
      </contour>
    </TTGlyph>
    <TTGlyph name="braceleft" xMin="79" yMin="-200" xMax="514" yMax="895">
      <contour>
        <pt x="146" y="265" on="1"/>
        <pt x="146" y="283" on="0"/>
        <pt x="166" y="319" on="0"/>
        <pt x="194" y="352" on="0"/>
        <pt x="224" y="384" on="0"/>
        <pt x="234" y="401" on="1"/>
        <pt x="207" y="436" on="0"/>
        <pt x="151" y="507" on="0"/>
        <pt x="107" y="581" on="0"/>
        <pt x="79" y="662" on="0"/>
        <pt x="79" y="708" on="1"/>
        <pt x="79" y="743" on="0"/>
        <pt x="110" y="811" on="0"/>
        <pt x="161" y="863" on="0"/>
        <pt x="229" y="895" on="0"/>
        <pt x="266" y="895" on="1"/>
        <pt x="278" y="895" on="0"/>
        <pt x="307" y="890" on="0"/>
        <pt x="334" y="880" on="0"/>
        <pt x="356" y="864" on="0"/>
        <pt x="362" y="852" on="1"/>
        <pt x="338" y="838" on="0"/>
        <pt x="273" y="816" on="0"/>
        <pt x="211" y="787" on="0"/>
        <pt x="167" y="742" on="0"/>
        <pt x="167" y="704" on="1"/>
        <pt x="167" y="673" on="0"/>
        <pt x="190" y="621" on="0"/>
        <pt x="224" y="574" on="0"/>
        <pt x="265" y="530" on="0"/>
        <pt x="299" y="483" on="0"/>
        <pt x="321" y="431" on="0"/>
        <pt x="321" y="400" on="1"/>
        <pt x="321" y="380" on="0"/>
        <pt x="307" y="346" on="0"/>
        <pt x="291" y="315" on="0"/>
        <pt x="276" y="283" on="0"/>
        <pt x="276" y="265" on="1"/>
        <pt x="276" y="261" on="0"/>
        <pt x="272" y="205" on="0"/>
        <pt x="271" y="125" on="0"/>
        <pt x="275" y="34" on="0"/>
        <pt x="293" y="-43" on="0"/>
        <pt x="328" y="-95" on="0"/>
        <pt x="358" y="-95" on="1"/>
        <pt x="378" y="-95" on="0"/>
        <pt x="409" y="-79" on="0"/>
        <pt x="436" y="-61" on="0"/>
        <pt x="463" y="-46" on="0"/>
        <pt x="481" y="-46" on="1"/>
        <pt x="499" y="-46" on="0"/>
        <pt x="514" y="-75" on="0"/>
        <pt x="514" y="-93" on="1"/>
        <pt x="514" y="-122" on="0"/>
        <pt x="479" y="-163" on="0"/>
        <pt x="427" y="-189" on="0"/>
        <pt x="369" y="-200" on="0"/>
        <pt x="346" y="-200" on="1"/>
        <pt x="301" y="-200" on="0"/>
        <pt x="238" y="-148" on="0"/>
        <pt x="193" y="-64" on="0"/>
        <pt x="166" y="40" on="0"/>
        <pt x="151" y="143" on="0"/>
        <pt x="146" y="235" on="0"/>
      </contour>
    </TTGlyph>
    <TTGlyph name="braceright" xMin="5" yMin="-182" xMax="322" yMax="850">
      <contour>
        <pt x="40" y="-132" on="1"/>
        <pt x="40" y="-106" on="0"/>
        <pt x="58" y="-83" on="0"/>
        <pt x="88" y="-73" on="0"/>
        <pt x="121" y="-69" on="0"/>
        <pt x="151" y="-57" on="0"/>
        <pt x="170" y="-29" on="0"/>
        <pt x="170" y="1" on="1"/>
        <pt x="170" y="22" on="0"/>
        <pt x="149" y="65" on="0"/>
        <pt x="125" y="111" on="0"/>
        <pt x="104" y="159" on="0"/>
        <pt x="104" y="185" on="1"/>
        <pt x="104" y="187" on="0"/>
        <pt x="104" y="193" on="0"/>
        <pt x="105" y="196" on="1"/>
        <pt x="105" y="200" on="0"/>
        <pt x="106" y="204" on="1"/>
        <pt x="108" y="208" on="0"/>
        <pt x="129" y="239" on="0"/>
        <pt x="151" y="275" on="0"/>
        <pt x="170" y="307" on="0"/>
        <pt x="170" y="311" on="1"/>
        <pt x="170" y="332" on="0"/>
        <pt x="143" y="377" on="0"/>
        <pt x="110" y="426" on="0"/>
        <pt x="83" y="479" on="0"/>
        <pt x="83" y="508" on="1"/>
        <pt x="83" y="538" on="0"/>
        <pt x="104" y="588" on="0"/>
        <pt x="130" y="634" on="0"/>
        <pt x="151" y="681" on="0"/>
        <pt x="151" y="707" on="1"/>
        <pt x="151" y="733" on="0"/>
        <pt x="114" y="760" on="0"/>
        <pt x="66" y="772" on="0"/>
        <pt x="17" y="774" on="0"/>
        <pt x="5" y="774" on="1"/>
        <pt x="5" y="796" on="0"/>
        <pt x="20" y="826" on="0"/>
        <pt x="46" y="843" on="0"/>
        <pt x="79" y="850" on="0"/>
        <pt x="98" y="850" on="1"/>
        <pt x="121" y="850" on="0"/>
        <pt x="176" y="832" on="0"/>
        <pt x="225" y="801" on="0"/>
        <pt x="258" y="756" on="0"/>
        <pt x="258" y="729" on="1"/>
        <pt x="258" y="728" on="0"/>
        <pt x="257" y="725" on="0"/>
        <pt x="257" y="724" on="1"/>
        <pt x="256" y="721" on="0"/>
        <pt x="256" y="719" on="1"/>
        <pt x="255" y="714" on="0"/>
        <pt x="241" y="684" on="0"/>
        <pt x="223" y="644" on="0"/>
        <pt x="203" y="599" on="0"/>
        <pt x="185" y="560" on="0"/>
        <pt x="172" y="530" on="0"/>
        <pt x="170" y="526" on="1"/>
        <pt x="170" y="515" on="1"/>
        <pt x="170" y="485" on="0"/>
        <pt x="193" y="445" on="0"/>
        <pt x="227" y="417" on="0"/>
        <pt x="265" y="395" on="0"/>
        <pt x="300" y="373" on="0"/>
        <pt x="322" y="346" on="0"/>
        <pt x="322" y="326" on="1"/>
        <pt x="322" y="305" on="0"/>
        <pt x="306" y="276" on="0"/>
        <pt x="281" y="255" on="0"/>
        <pt x="252" y="235" on="0"/>
        <pt x="227" y="212" on="0"/>
        <pt x="211" y="183" on="0"/>
        <pt x="211" y="161" on="1"/>
        <pt x="211" y="138" on="0"/>
        <pt x="226" y="99" on="0"/>
        <pt x="243" y="60" on="0"/>
        <pt x="258" y="20" on="0"/>
        <pt x="258" y="-5" on="1"/>
        <pt x="258" y="-35" on="0"/>
        <pt x="245" y="-98" on="0"/>
        <pt x="213" y="-149" on="0"/>
        <pt x="164" y="-182" on="0"/>
        <pt x="128" y="-182" on="1"/>
        <pt x="112" y="-182" on="0"/>
        <pt x="81" y="-180" on="0"/>
        <pt x="56" y="-171" on="0"/>
        <pt x="40" y="-151" on="0"/>
      </contour>
    </TTGlyph>
    <TTGlyph name="bracketleft" xMin="19" yMin="0" xMax="536" yMax="676">
      <contour>
        <pt x="20" y="540" on="1"/>
        <pt x="20" y="546" on="0"/>
        <pt x="19" y="565" on="0"/>
        <pt x="22" y="583" on="0"/>
        <pt x="31" y="598" on="0"/>
        <pt x="42" y="600" on="1"/>
        <pt x="146" y="633" on="0"/>
        <pt x="368" y="676" on="0"/>
        <pt x="477" y="676" on="1"/>
        <pt x="477" y="669" on="0"/>
        <pt x="477" y="646" on="0"/>
        <pt x="472" y="624" on="0"/>
        <pt x="462" y="604" on="0"/>
        <pt x="450" y="600" on="1"/>
        <pt x="441" y="598" on="0"/>
        <pt x="404" y="591" on="0"/>
        <pt x="357" y="583" on="0"/>
        <pt x="306" y="574" on="0"/>
        <pt x="259" y="566" on="0"/>
        <pt x="222" y="560" on="0"/>
        <pt x="214" y="558" on="1"/>
        <pt x="209" y="556" on="0"/>
        <pt x="178" y="552" on="0"/>
        <pt x="143" y="543" on="0"/>
        <pt x="112" y="526" on="0"/>
        <pt x="107" y="514" on="1"/>
        <pt x="119" y="464" on="0"/>
        <pt x="130" y="362" on="0"/>
        <pt x="137" y="259" on="0"/>
        <pt x="143" y="157" on="0"/>
        <pt x="150" y="107" on="1"/>
        <pt x="214" y="107" on="1"/>
        <pt x="247" y="107" on="0"/>
        <pt x="312" y="113" on="0"/>
        <pt x="377" y="121" on="0"/>
        <pt x="443" y="129" on="0"/>
        <pt x="475" y="129" on="1"/>
        <pt x="485" y="129" on="0"/>
        <pt x="503" y="127" on="0"/>
        <pt x="519" y="118" on="0"/>
        <pt x="532" y="101" on="0"/>
        <pt x="535" y="85" on="1"/>
        <pt x="536" y="83" on="0"/>
        <pt x="532" y="69" on="0"/>
        <pt x="526" y="56" on="0"/>
        <pt x="517" y="44" on="0"/>
        <pt x="514" y="43" on="1"/>
        <pt x="500" y="41" on="0"/>
        <pt x="444" y="35" on="0"/>
        <pt x="373" y="26" on="0"/>
        <pt x="293" y="17" on="0"/>
        <pt x="221" y="8" on="0"/>
        <pt x="164" y="2" on="0"/>
        <pt x="150" y="0" on="1"/>
        <pt x="126" y="0" on="1"/>
        <pt x="100" y="0" on="0"/>
        <pt x="64" y="68" on="0"/>
        <pt x="40" y="175" on="0"/>
        <pt x="27" y="304" on="0"/>
        <pt x="21" y="424" on="0"/>
        <pt x="20" y="519" on="0"/>
      </contour>
    </TTGlyph>
    <TTGlyph name="bracketright" xMin="4" yMin="-2" xMax="560" yMax="755">
      <contour>
        <pt x="231" y="60" on="1"/>
        <pt x="231" y="62" on="0"/>
        <pt x="232" y="71" on="0"/>
        <pt x="233" y="76" on="1"/>
        <pt x="234" y="80" on="0"/>
        <pt x="236" y="85" on="1"/>
        <pt x="450" y="150" on="1"/>
        <pt x="450" y="157" on="0"/>
        <pt x="451" y="163" on="1"/>
        <pt x="452" y="168" on="0"/>
        <pt x="453" y="180" on="0"/>
        <pt x="453" y="184" on="1"/>
        <pt x="453" y="188" on="0"/>
        <pt x="452" y="204" on="0"/>
        <pt x="451" y="220" on="0"/>
        <pt x="450" y="234" on="0"/>
        <pt x="450" y="236" on="1"/>
        <pt x="448" y="281" on="0"/>
        <pt x="436" y="382" on="0"/>
        <pt x="429" y="484" on="0"/>
        <pt x="435" y="580" on="0"/>
        <pt x="450" y="621" on="1"/>
        <pt x="450" y="624" on="0"/>
        <pt x="449" y="634" on="0"/>
        <pt x="449" y="646" on="0"/>
        <pt x="448" y="657" on="0"/>
        <pt x="448" y="660" on="1"/>
        <pt x="336" y="660" on="0"/>
        <pt x="115" y="641" on="0"/>
        <pt x="4" y="641" on="1"/>
        <pt x="4" y="676" on="0"/>
        <pt x="55" y="720" on="0"/>
        <pt x="133" y="745" on="0"/>
        <pt x="229" y="754" on="0"/>
        <pt x="322" y="755" on="0"/>
        <pt x="400" y="752" on="0"/>
        <pt x="420" y="752" on="1"/>
        <pt x="430" y="752" on="0"/>
        <pt x="462" y="751" on="0"/>
        <pt x="491" y="751" on="0"/>
        <pt x="513" y="751" on="0"/>
        <pt x="514" y="751" on="1"/>
        <pt x="520" y="694" on="0"/>
        <pt x="528" y="607" on="0"/>
        <pt x="533" y="529" on="0"/>
        <pt x="534" y="457" on="0"/>
        <pt x="534" y="416" on="1"/>
        <pt x="534" y="380" on="0"/>
        <pt x="542" y="310" on="0"/>
        <pt x="552" y="241" on="0"/>
        <pt x="560" y="173" on="0"/>
        <pt x="560" y="138" on="1"/>
        <pt x="560" y="113" on="0"/>
        <pt x="526" y="73" on="0"/>
        <pt x="472" y="42" on="0"/>
        <pt x="406" y="20" on="0"/>
        <pt x="343" y="5" on="0"/>
        <pt x="291" y="-2" on="0"/>
        <pt x="278" y="-2" on="1"/>
        <pt x="247" y="-2" on="0"/>
        <pt x="231" y="33" on="0"/>
      </contour>
    </TTGlyph>
    <TTGlyph name="breve" xMin="112" yMin="609" xMax="445" yMax="859">
      <contour>
        <pt x="112" y="773" on="1"/>
        <pt x="112" y="781" on="1"/>
        <pt x="112" y="787" on="0"/>
        <pt x="113" y="801" on="0"/>
        <pt x="113" y="807" on="1"/>
        <pt x="113" y="815" on="1"/>
        <pt x="124" y="826" on="0"/>
        <pt x="157" y="837" on="0"/>
        <pt x="176" y="824" on="1"/>
        <pt x="176" y="815" on="1"/>
        <pt x="175" y="814" on="0"/>
        <pt x="170" y="799" on="0"/>
        <pt x="165" y="781" on="0"/>
        <pt x="160" y="767" on="0"/>
        <pt x="160" y="765" on="1"/>
        <pt x="160" y="753" on="0"/>
        <pt x="172" y="715" on="0"/>
        <pt x="198" y="679" on="0"/>
        <pt x="237" y="652" on="0"/>
        <pt x="264" y="652" on="1"/>
        <pt x="299" y="652" on="0"/>
        <pt x="345" y="680" on="0"/>
        <pt x="371" y="720" on="0"/>
        <pt x="381" y="763" on="0"/>
        <pt x="381" y="777" on="1"/>
        <pt x="381" y="796" on="0"/>
        <pt x="363" y="828" on="0"/>
        <pt x="363" y="846" on="1"/>
        <pt x="363" y="853" on="0"/>
        <pt x="383" y="859" on="0"/>
        <pt x="394" y="859" on="1"/>
        <pt x="418" y="859" on="0"/>
        <pt x="439" y="839" on="0"/>
        <pt x="445" y="811" on="0"/>
        <pt x="444" y="781" on="0"/>
        <pt x="444" y="773" on="1"/>
        <pt x="444" y="753" on="0"/>
        <pt x="425" y="697" on="0"/>
        <pt x="383" y="645" on="0"/>
        <pt x="317" y="609" on="0"/>
        <pt x="270" y="609" on="1"/>
        <pt x="220" y="609" on="0"/>
        <pt x="159" y="647" on="0"/>
        <pt x="125" y="699" on="0"/>
        <pt x="112" y="755" on="0"/>
      </contour>
    </TTGlyph>
    <TTGlyph name="brokenbar" xMin="34" yMin="16" xMax="180" yMax="803">
      <contour>
        <pt x="67" y="435" on="1"/>
        <pt x="59" y="468" on="0"/>
        <pt x="48" y="520" on="0"/>
        <pt x="39" y="569" on="0"/>
        <pt x="34" y="619" on="0"/>
        <pt x="34" y="651" on="1"/>
        <pt x="34" y="688" on="1"/>
        <pt x="34" y="715" on="0"/>
        <pt x="44" y="765" on="0"/>
        <pt x="67" y="803" on="0"/>
        <pt x="89" y="803" on="1"/>
        <pt x="106" y="803" on="0"/>
        <pt x="125" y="757" on="0"/>
        <pt x="134" y="685" on="0"/>
        <pt x="135" y="598" on="0"/>
        <pt x="136" y="519" on="0"/>
        <pt x="139" y="455" on="0"/>
        <pt x="144" y="443" on="1"/>
      </contour>
      <contour>
        <pt x="151" y="377" on="1"/>
        <pt x="162" y="336" on="0"/>
        <pt x="168" y="239" on="0"/>
        <pt x="171" y="150" on="0"/>
        <pt x="173" y="78" on="0"/>
        <pt x="178" y="62" on="1"/>
        <pt x="178" y="60" on="0"/>
        <pt x="180" y="52" on="0"/>
        <pt x="180" y="50" on="1"/>
        <pt x="180" y="40" on="0"/>
        <pt x="166" y="26" on="0"/>
        <pt x="145" y="19" on="0"/>
        <pt x="122" y="16" on="0"/>
        <pt x="113" y="16" on="1"/>
        <pt x="110" y="16" on="0"/>
        <pt x="94" y="18" on="0"/>
        <pt x="92" y="18" on="1"/>
        <pt x="79" y="59" on="0"/>
        <pt x="77" y="147" on="0"/>
        <pt x="80" y="238" on="0"/>
        <pt x="80" y="329" on="0"/>
        <pt x="70" y="377" on="1"/>
      </contour>
    </TTGlyph>
    <TTGlyph name="bullet" xMin="71" yMin="196" xMax="258" yMax="377">
      <contour>
        <pt x="71" y="272" on="1"/>
        <pt x="71" y="293" on="0"/>
        <pt x="101" y="332" on="0"/>
        <pt x="142" y="361" on="0"/>
        <pt x="187" y="377" on="0"/>
        <pt x="202" y="377" on="1"/>
        <pt x="220" y="377" on="0"/>
        <pt x="242" y="364" on="0"/>
        <pt x="255" y="343" on="0"/>
        <pt x="258" y="313" on="0"/>
        <pt x="258" y="296" on="1"/>
        <pt x="258" y="269" on="0"/>
        <pt x="238" y="231" on="0"/>
        <pt x="205" y="207" on="0"/>
        <pt x="162" y="196" on="0"/>
        <pt x="139" y="196" on="1"/>
        <pt x="135" y="196" on="1"/>
        <pt x="133" y="196" on="0"/>
        <pt x="131" y="197" on="1"/>
        <pt x="126" y="199" on="1"/>
        <pt x="121" y="201" on="0"/>
        <pt x="105" y="216" on="0"/>
        <pt x="89" y="234" on="0"/>
        <pt x="76" y="252" on="0"/>
        <pt x="73" y="256" on="1"/>
        <pt x="72" y="259" on="0"/>
        <pt x="72" y="263" on="1"/>
        <pt x="71" y="265" on="0"/>
        <pt x="71" y="267" on="1"/>
      </contour>
    </TTGlyph>
</ttFont>
